<?xml version="1.0" encoding="UTF-8"?>
<!DOCTYPE svg PUBLIC "-//W3C//DTD SVG 1.1//EN" "http://www.w3.org/Graphics/SVG/1.1/DTD/svg11.dtd">
<!-- Creator: CorelDRAW -->
<svg xmlns="http://www.w3.org/2000/svg" xml:space="preserve" width="250px" height="250px" version="1.1" style="shape-rendering:geometricPrecision; text-rendering:geometricPrecision; image-rendering:optimizeQuality; fill-rule:evenodd; clip-rule:evenodd"
viewBox="0 0 250 250"
 xmlns:xlink="http://www.w3.org/1999/xlink"
 xmlns:xodm="http://www.corel.com/coreldraw/odm/2003">
 <defs>
  <style type="text/css">
   <![CDATA[
    .str0 {stroke:rgb(31 41 55);stroke-width:2;stroke-miterlimit:2.61313}
    .fil0 {fill:rgb(31 41 55)}
    .fil1 {fill:rgb(31 41 55);fill-rule:nonzero}
   ]]>
  </style>
 </defs>
 <g id="Layer_x0020_1">
  <metadata id="CorelCorpID_0Corel-Layer"/>
  <g id="_3099282444944">
   <g>
    <path class="fil0" d="M108.97 200.86l32.06 0 5.45 19.29c0.5,1.72 1.24,5.01 1.88,6.36l-46.72 0c0.64,-1.35 1.38,-4.64 1.88,-6.36 0.6,-2.05 1.2,-4.23 1.84,-6.41 1.19,-4.1 2.61,-8.62 3.61,-12.88zm-72.38 -10.54l0 -18.32 176.82 0 0 18.32c0,1.48 -1.66,2.29 -3.21,2.29l-170.4 0c-1.55,0 -3.21,-0.81 -3.21,-2.29zm-8.25 -119.56l0 120.02c0,5.36 4.91,9.69 10.09,10.06 6.17,0.45 14.23,0.02 20.6,0.02 13.75,0 27.49,0 41.23,0l-3.66 13.28c-0.6,2.16 -1.23,4.26 -1.83,6.41 -2.16,7.71 1.05,5.96 -16.04,5.96l0 8.24 92.54 0 0 -8.24c-13.49,0 -14.09,1.29 -15.05,-2.36l-6.48 -23.29c13.59,0 27.18,0 40.77,0 6.66,0 14.05,0.3 20.62,0 5.42,-0.24 10.53,-4.65 10.53,-10.08l0 -120.02c0,-5.22 -5.32,-10.08 -10.54,-10.08l-17.86 0 0 8.24 16.94 0c1.55,0 3.21,0.81 3.21,2.29l0 92.54 -176.82 0 0 -92.54c0,-1.48 1.66,-2.29 3.21,-2.29l16.94 0 0 -8.24 -17.86 0c-5.22,0 -10.54,4.86 -10.54,10.08z"/>
   </g>
   <path class="fil0" d="M103.68 124.87l-7.78 0c0.32,-1.37 0.76,-1.91 1.25,-3.02 0.68,-1.5 3.94,-8.29 4.02,-9.27l8.02 0 -4.15 9.13c-0.46,1.1 -1.14,2.2 -1.36,3.16zm22.57 -43.39l0.5 0c0.28,1.19 3.99,8.73 4.84,10.71 0.58,1.38 1.04,2.38 1.68,3.59l-13.29 0 4.73 -10.57c0.56,-1.38 1.19,-2.22 1.54,-3.73zm-9.28 14.3l-8.03 0c1.09,-2.06 1.97,-4.41 3.02,-6.52 2.34,-4.71 5.94,-13.19 8.35,-18.48l0.92 -1.58c0.28,1.21 2.28,5.21 2.93,6.6 1.13,2.41 0.71,2.52 -1.26,6.6l-5.93 13.38zm0.5 -35.36c0.15,1.75 2.01,4.04 2.01,5.26 0,0.73 -6,13.26 -6.74,15.09l-6.81 15.01 -14.29 0c0.26,-0.54 0.36,-0.97 0.67,-1.59l15.89 -35.02c1.13,-2.54 6.18,-13.14 6.51,-14.55l12.79 0 4.44 10.1c0.72,1.69 1.65,3.38 2.3,4.98l4.55 9.99c0.79,1.61 1.45,3.42 2.25,5.03l13.63 30c0.8,1.73 1.54,3.2 2.28,5l6.91 15.15 -14.29 0 -5.52 -12.29c1.2,0 2.98,0.29 3.59,-0.45 0.59,-0.72 0.32,-2.31 -0.83,-2.31l-51.91 0c-0.61,0 -1.25,0.58 -1.25,1.51 0,0.6 0.4,0.73 0.75,1.25l3.76 0c-0.39,1.68 -3.08,6.85 -3.98,9.06 -0.41,1.03 -1.2,2.17 -1.29,3.23l-14.54 0c2.02,-3.82 5.39,-12.27 7.52,-16.56 0.56,-1.12 1.01,-2.22 1.59,-3.42l1.49 -3.27c0.36,-0.84 1.01,-3.08 1.94,-3.08l43.13 0c1.4,0 1.62,4.51 3.26,4.51 0.68,0 0.69,-0.12 1.26,-0.25 0.71,-3.06 -0.57,-2.03 -0.76,-4.26 1.63,0 2.44,0.05 3.76,-0.25 0.47,-1.99 0.36,-1.23 -0.5,-2.51l-4.76 0c-0.37,-1.56 -1.27,-3.04 -1.94,-4.59l-13.68 -29.95c-0.89,-2.06 -1.69,-2.54 -3.19,-0.82zm13.04 -15.8l7.77 0 2.33 4.94c3.35,7.83 8.23,17.56 11.32,25.05 0.72,1.73 1.58,3.24 2.3,4.97 0.74,1.8 1.47,3.27 2.28,5l9.04 20.05c0.72,1.69 1.64,3.37 2.29,4.98 0.69,1.7 1.56,3.36 2.29,4.98 0.76,1.7 1.45,3.37 2.26,5.01l2.26 5.27 -7.78 0 -15.87 -35.04c-2.7,-6.32 -6.56,-13.97 -9.06,-20.03l-10.85 -23.76c-0.26,-0.57 -0.34,-0.93 -0.58,-1.42zm-17.55 -2.76c-4.44,0 -7.53,-0.94 -7.53,1.76 0,1.54 3.63,1 6.27,1l-5.77 12.79c-0.48,0.97 -0.93,2.04 -1.42,3.09l-5.09 11.21c-0.25,0.55 -0.38,0.97 -0.67,1.58 -0.56,1.16 -0.94,2.12 -1.51,3.26l-8.61 19.23c-2.02,0 -4.12,-0.13 -5.77,0.25 -0.34,1.43 -0.4,0.52 0,2.26 1.41,0.32 2.54,0.25 4.27,0.25 -0.34,1.45 -0.84,2.08 -1.43,3.34 -0.29,0.63 -0.37,0.96 -0.66,1.59 -0.31,0.66 -0.52,0.98 -0.82,1.69l-7.46 16.36c-0.3,0.61 -0.42,1.04 -0.67,1.59 -0.3,0.66 -0.56,0.95 -0.75,1.76 -1.73,0 -2.85,-0.08 -4.26,0.25 -0.35,0.72 -0.69,1.54 0.04,2.19 0.59,0.52 1.98,0.32 2.97,0.32 -0.88,1.66 -2.54,4.51 0.25,4.51 1.22,0 2.07,-3.09 2.76,-4.51 4.97,0 31.26,0.35 33.85,-0.25 1.47,-3.07 -1.4,-2.51 -4.26,-2.51l5.51 -12.29 28.59 0 3.94 8.6c3.17,7.42 2.69,6.46 6.09,6.45 8.44,-0.04 16.89,0 25.33,0 0.85,3.66 3.87,2.41 3,0.03l-13.45 -29.46c-2.67,-5.74 -7.02,-16.1 -9.69,-21.4 -0.91,-1.79 -1.57,-3.62 -2.43,-5.35 -0.87,-1.75 -1.53,-3.51 -2.42,-5.35 -1.73,-3.58 -3.25,-7.1 -4.85,-10.69 -0.8,-1.78 -1.62,-3.44 -2.44,-5.35 -0.5,-1.18 -2.24,-4.37 -2.33,-5.44l4.77 0c0.75,-1.13 1.39,-2.58 -1,-2.77 -1.53,-0.11 -3.67,0.01 -5.27,0.01 -0.21,-0.92 -1.19,-3.51 -2.26,-3.51 -2.45,0 -1.36,2.37 -0.75,3.51l-20.81 0c0.19,-0.82 0.64,-1.43 0.85,-2.19 0.44,-1.6 -1.78,-3.21 -2.97,-0.18 -0.35,0.87 -0.75,1.64 -1.14,2.37z"/>
   <path class="fil1" d="M98.08 123.37l4.54 0c0.15,-0.37 0.33,-0.73 0.51,-1.1 0.19,-0.41 0.4,-0.83 0.52,-1.13l3.22 -7.06 -4.62 0c-0.68,1.81 -2.06,4.79 -2.98,6.76l-0.75 1.62c-0.14,0.32 -0.29,0.62 -0.44,0.91zm28.17 -43.39l1.33 0 -1.32 -2.9c0.22,0.95 0.04,1.69 -0.51,2.9l0.5 0zm2.26 9.13c-0.67,-1.41 -1.4,-2.96 -1.99,-4.28 -0.14,0.29 -0.28,0.59 -0.42,0.94l-3.81 8.51 8.57 0 -0.65 -1.5c-0.29,-0.68 -0.96,-2.09 -1.7,-3.67zm7.25 8.17l-0.7 0c0.54,0.28 0.92,0.79 1.23,1.4l-0.12 -1.4 -0.41 0zm-24.43 -3l4.67 0c2.06,-4.66 4.02,-9.43 6.27,-13.99 1.06,-2.14 1.21,-2.43 0.54,-3.85l-0.46 -0.96c-0.37,-0.77 -0.85,-1.76 -1.29,-2.72l-2.17 4.9c-1.94,4.38 -4.02,9.1 -5.59,12.26 -0.49,0.98 -0.9,1.94 -1.32,2.89l-0.65 1.47zm8.65 -25.83l2.51 0.38 -1.52 -3.32 0.01 0.17c0,0.32 -0.4,1.36 -1,2.77zm-2.72 -4.39c-0.56,-1.11 -1.19,-2.32 -1.28,-3.52l-0.06 -0.63 0.42 -0.47c1.2,-1.38 2.28,-1.82 3.42,-1.45 0.98,0.32 1.66,1.23 2.28,2.66l13.68 29.96c0.18,0.41 0.42,0.91 0.67,1.41 0.36,0.75 0.72,1.49 1,2.26l4.45 0 0.45 0.67c0.15,0.23 0.29,0.39 0.39,0.5 0.31,0.35 0.49,0.56 0.6,1.08 0.09,0.51 0.01,0.89 -0.21,1.79l-0.28 1.21 -0.91 0.21c-0.7,0.17 -1.27,0.24 -1.86,0.27 0.28,0.61 0.37,1.43 -0.03,3.13l-0.21 0.91 -0.91 0.21 -0.28 0.08c-0.37,0.12 -0.63,0.21 -1.31,0.21 -1.87,0 -2.54,-1.72 -3.17,-3.36 -0.22,-0.59 0.27,-1.15 -0.09,-1.15l-43.13 0c-0.27,0 -0.09,0.93 -0.32,1.55 -0.73,1.86 -1.65,3.72 -2.49,5.54 -0.28,0.6 -0.55,1.2 -0.87,1.85 -0.98,1.96 -2.22,4.82 -3.47,7.7 -1.03,2.37 -2.07,4.75 -2.98,6.69l10.97 0c0.18,-0.47 0.41,-0.93 0.63,-1.37 0.16,-0.32 0.32,-0.62 0.43,-0.92 0.35,-0.85 0.96,-2.14 1.61,-3.51 0.56,-1.2 1.16,-2.46 1.61,-3.49l-2.41 0 -0.44 -0.67 -0.2 -0.23c-0.45,-0.47 -0.81,-0.87 -0.81,-1.85 0,-0.81 0.28,-1.5 0.71,-2.01 0.53,-0.64 1.29,-1 2.04,-1l51.91 0c0.64,0 1.18,0.22 1.61,0.57 0.36,0.29 0.62,0.68 0.8,1.11 0.15,0.38 0.22,0.79 0.22,1.18 0,0.68 -0.21,1.37 -0.64,1.9 -0.61,0.74 -1.49,0.98 -2.42,1.04l4.15 9.25 11.01 0 -5.98 -13.09c-0.52,-1.26 -1.06,-2.41 -1.64,-3.62 -4.87,-10.36 -9.51,-20.9 -14.24,-31.33 -0.41,-0.83 -0.78,-1.69 -1.15,-2.55 -0.35,-0.83 -0.71,-1.66 -1.08,-2.42 -1.39,-3.24 -3.04,-6.96 -4.6,-10.1 -0.34,-0.83 -0.75,-1.68 -1.16,-2.54 -0.38,-0.78 -0.77,-1.58 -1.12,-2.39l-4.05 -9.21 -10.76 0c-0.89,2.22 -2.97,6.69 -4.53,10.05l-1.67 3.61 -15.65 34.5 11.06 0 6.39 -14.09c0.27,-0.68 1.23,-2.74 2.35,-5.15 1.89,-4.09 4.27,-9.22 4.27,-9.36 0,-0.23 -0.35,-0.9 -0.72,-1.62zm-27.36 33.22l-0.94 -0.01 -0.3 1.3c0.32,-0.54 0.72,-1.02 1.24,-1.29zm24.08 -54.16l0.4 0 0.32 -1.37 -0.72 1.37zm23.13 57.86c0.04,0.28 0.07,0.49 0.13,0.55 0.03,-0.33 -0.04,-0.42 -0.11,-0.52l-0.02 -0.03zm0.23 -54.86l-4.57 0 10.55 23.12c1.33,3.21 3.04,6.87 4.75,10.54 1.53,3.26 3.05,6.53 4.3,9.44l15.47 34.15 4.54 0 -1.33 -3.1c-0.57,-1.15 -1.11,-2.38 -1.65,-3.63l-0.64 -1.45c-0.29,-0.65 -0.59,-1.27 -0.88,-1.89 -0.51,-1.05 -1.02,-2.12 -1.43,-3.13 -0.32,-0.81 -0.74,-1.68 -1.16,-2.55 -0.38,-0.78 -0.76,-1.57 -1.11,-2.38l-9.04 -20.05 -0.6 -1.27c-0.57,-1.22 -1.12,-2.37 -1.7,-3.77 -0.31,-0.76 -0.71,-1.58 -1.11,-2.4 -0.39,-0.8 -0.78,-1.61 -1.18,-2.57 -1.6,-3.88 -3.78,-8.56 -5.96,-13.23 -1.87,-4.01 -3.74,-8.02 -5.34,-11.77l-1.91 -4.06zm2.01 -2.76l0.72 1.53 -0.14 -1.53 -0.58 0zm-29.09 -3.08l1.8 0.07c0.23,-0.45 0.45,-0.91 0.64,-1.4 0.62,-1.58 1.56,-2.35 2.49,-2.59 0.51,-0.12 1.01,-0.09 1.47,0.06 0.44,0.15 0.83,0.41 1.14,0.74 0.67,0.71 1.01,1.81 0.71,2.91l-0.09 0.29 16.43 0c-0.04,-0.2 -0.07,-0.4 -0.08,-0.6 -0.1,-1.61 0.57,-2.91 3.01,-2.91 1.03,0 1.84,0.7 2.45,1.65 0.36,0.56 0.67,1.24 0.9,1.85l0.6 -0.01c1.28,-0.03 2.64,-0.06 3.69,0.02 2.15,0.16 2.95,1.13 3.06,2.4 0.08,0.95 -0.4,1.9 -0.93,2.69l-0.45 0.67 -3.45 0 0.89 1.85c0.3,0.63 0.57,1.18 0.71,1.51 0.43,1.01 0.94,2.1 1.44,3.16l0.98 2.16 1.05 2.36c1.24,2.79 2.47,5.57 3.79,8.29 0.4,0.83 0.8,1.74 1.18,2.64 0.39,0.88 0.77,1.76 1.24,2.7 0.43,0.87 0.81,1.75 1.19,2.64 0.38,0.9 0.78,1.81 1.22,2.7 1.65,3.26 3.88,8.32 5.98,13.08 1.35,3.08 2.66,6.04 3.74,8.36l13.5 29.57c0.5,1.37 0.2,2.59 -0.48,3.37 -0.35,0.4 -0.81,0.69 -1.32,0.83 -0.51,0.14 -1.06,0.12 -1.6,-0.07 -0.8,-0.28 -1.57,-0.96 -2.09,-2.15l-7.27 -0.01c-5.66,-0.01 -11.32,-0.01 -16.97,0.01l-0.98 0.03c-1.48,0.06 -2.28,0.1 -3.31,-1 -0.83,-0.87 -1.52,-2.47 -2.99,-5.92l-3.72 -8.15 -26.66 0 -4.16 9.25c0.91,0.01 1.73,0.09 2.4,0.41 1.48,0.71 2,1.95 0.89,4.28l-0.32 0.65 -0.69 0.16c-2.24,0.53 -19.7,0.39 -29.1,0.32l-4.11 -0.02 -0.11 0.27c-0.76,1.91 -1.69,4.24 -3.63,4.24 -2.28,0 -3.05,-1.11 -3.05,-2.68 0,-0.6 0.17,-1.23 0.41,-1.85 -0.57,-0.09 -1.12,-0.28 -1.57,-0.68 -0.79,-0.7 -1,-1.51 -0.92,-2.33 0.06,-0.63 0.29,-1.16 0.51,-1.63l0.31 -0.65 0.71 -0.16c1.26,-0.29 2.27,-0.3 3.54,-0.29l0.44 -0.88 0.26 -0.6c0.11,-0.31 0.24,-0.62 0.43,-1.02l7.44 -16.29c0.19,-0.48 0.35,-0.79 0.52,-1.11l0.31 -0.63c0.11,-0.23 0.21,-0.48 0.3,-0.72 0.11,-0.27 0.22,-0.54 0.37,-0.87 0.2,-0.43 0.36,-0.75 0.51,-1.04l0.09 -0.18c-0.8,-0.02 -1.55,-0.08 -2.42,-0.29l-0.91 -0.21 -0.39 -1.63c-0.1,-0.37 -0.15,-0.55 -0.15,-0.84 0,-0.31 0.05,-0.46 0.15,-0.75 0.04,-0.13 0.11,-0.33 0.18,-0.63l0.22 -0.9 0.89 -0.21c1.47,-0.34 3.17,-0.32 4.88,-0.3l0.27 0.01 8.23 -18.4c0.31,-0.62 0.56,-1.17 0.8,-1.72l0.7 -1.52c0.14,-0.29 0.25,-0.55 0.35,-0.82l0.3 -0.72 5.66 -12.44c0.28,-0.65 0.57,-1.29 0.86,-1.87l4.78 -10.6 -1.09 0.02c-2.4,0 -4.33,-0.44 -4.33,-2.59 0,-2.84 1.64,-3.42 4.36,-3.42 0.52,0 1.22,0.04 1.97,0.08zm-1.54 2.93l-0.43 -0.01c-0.85,0 -1.36,0.07 -1.36,0.42 0,0.33 0.59,-0.41 1.33,-0.41l0.46 0zm-34.05 86.54c-0.15,0.32 -0.27,0.63 -0.33,0.89 0.04,0 0.16,-0.38 0.33,-0.89zm-0.36 1.02l-0.02 0.19c0,0.12 0.01,-0.06 0.02,-0.19zm71.11 -87.65l0.04 0 0.03 -0.11c-0.01,-0.11 -0.02,-0.01 -0.07,0.11zm-7.61 -3.22c0.03,-0.03 0.04,-0.05 -0.01,-0.05l0.01 0.05zm-0.05 -0.22c0,-0.08 -0.01,-0.16 -0.01,-0.08l0.01 0.08zm-22.92 87.24c-0.13,-0.81 0.04,-1.61 0.17,-2.14l0.18 -0.77 0.74 -0.29c1.39,-0.54 11.57,-0.42 16.78,-0.37l2.57 0.02c1.15,0 2.01,0.8 2.37,1.81 0.12,0.35 0.19,0.71 0.19,1.07 0,0.38 -0.07,0.77 -0.23,1.14 -0.4,0.97 -1.3,1.74 -2.84,1.74l-17.3 0c-1.76,0 -2.44,-0.99 -2.63,-2.21z"/>
   <path class="fil0" d="M116.47 125.12c-0.2,0.84 -0.55,2.51 1,2.51l17.3 0c2.26,0 1.75,-2.76 0.5,-2.76 -2.65,0 -17.42,-0.29 -18.8,0.25z"/>
   <path class="fil1" d="M61.94 18.61l127.95 0 0 132.71 -129.78 0 0 -132.71 1.83 0zm124.29 3.66l-122.46 0 0 125.38 122.46 0 0 -125.38z"/>
   <path class="fil1" d="M61.94 17.61l128.95 0 0 134.71 -131.78 0 0 -134.71 2.83 0zm126.95 2l-127.78 0 0 130.71 127.78 0 0 -130.71zm-3.66 3.66l-120.46 0 0 123.38 120.46 0 0 -123.38zm-121.46 -2l123.46 0 0 127.38 -124.46 0 0 -127.38 1 0z"/>
   <circle class="fil0 str0" cx="125" cy="20.44" r="5.19"/>
   <circle class="fil0 str0" cx="125" cy="149.49" r="5.19"/>
   <circle class="fil0 str0" cx="188.06" cy="84.96" r="5.19"/>
   <circle class="fil0 str0" cx="61.94" cy="84.96" r="5.19"/>
   <rect class="fil0 str0" x="57.66" y="17.08" width="8.55" height="8.55"/>
   <rect class="fil0 str0" x="183.78" y="17.08" width="8.55" height="8.55"/>
   <rect class="fil0 str0" x="57.66" y="145.21" width="8.55" height="8.55"/>
   <rect class="fil0 str0" x="183.78" y="145.21" width="8.55" height="8.55"/>
  </g>
 </g>
</svg>
