<?xml version="1.0" encoding="UTF-8"?>
<!DOCTYPE svg PUBLIC "-//W3C//DTD SVG 1.1//EN" "http://www.w3.org/Graphics/SVG/1.1/DTD/svg11.dtd">
<!-- Creator: CorelDRAW -->
<svg xmlns="http://www.w3.org/2000/svg" xml:space="preserve" width="250px" height="250px" version="1.1" style="shape-rendering:geometricPrecision; text-rendering:geometricPrecision; image-rendering:optimizeQuality; fill-rule:evenodd; clip-rule:evenodd"
viewBox="0 0 250 250"
 xmlns:xlink="http://www.w3.org/1999/xlink"
 xmlns:xodm="http://www.corel.com/coreldraw/odm/2003">
 <defs>
  <style type="text/css">
   <![CDATA[
    .fil0 {fill:rgb(31 41 55)}
    .fil1 {fill:rgb(31 41 55);fill-rule:nonzero}
   ]]>
  </style>
 </defs>
 <g id="Layer_x0020_1">
  <metadata id="CorelCorpID_0Corel-Layer"/>
  <g id="_3097565332256">
   <path class="fil0" d="M187.68 51.68c-1.01,-0.18 -2.05,-0.3 -3.06,-0.4 -1.07,-0.09 -1.96,0.65 -2.05,1.66 -0.12,1.1 0.4,1.83 1.5,2.05 1.04,0.21 2.08,0.27 3.06,0.39 1.22,0.04 2.05,-0.64 2.17,-1.65 0.12,-1.04 -0.49,-1.83 -1.62,-2.05l0 0z"/>
   <path class="fil1" d="M187.57 52.17c-0.48,-0.09 -0.98,-0.16 -1.48,-0.23l-1.51 -0.16c-0.4,-0.03 -0.77,0.09 -1.03,0.3 -0.27,0.22 -0.45,0.54 -0.48,0.9 -0.05,0.44 0.02,0.78 0.2,1.02l0.01 0.02c0.17,0.23 0.47,0.4 0.88,0.48l0.02 0c0.7,0.14 1.41,0.22 2.1,0.29l0.89 0.1c0.48,0 0.87,-0.12 1.14,-0.33 0.28,-0.21 0.45,-0.52 0.5,-0.89l0 -0.01c0.04,-0.38 -0.05,-0.71 -0.25,-0.96l0 -0.01c-0.21,-0.25 -0.54,-0.44 -0.97,-0.52l-0.02 0zm-1.36 -1.22c0.51,0.07 1.03,0.15 1.54,0.24l0.02 0c0.68,0.13 1.21,0.44 1.57,0.88l0.01 0.01c0.36,0.46 0.52,1.04 0.45,1.69l0 0.02c-0.08,0.64 -0.39,1.18 -0.87,1.55l-0.01 0.02c-0.46,0.34 -1.06,0.53 -1.77,0.52 -0.32,-0.01 -0.65,-0.07 -0.97,-0.1 -0.72,-0.07 -1.46,-0.15 -2.21,-0.3 -0.66,-0.13 -1.17,-0.43 -1.5,-0.87l-0.01 -0.02c-0.33,-0.45 -0.46,-1.03 -0.39,-1.71 0.07,-0.64 0.38,-1.2 0.85,-1.58 0.46,-0.37 1.08,-0.57 1.74,-0.51l1.55 0.16zm-4.05 -7.06c0.1,0.3 0.26,0.51 0.48,0.66 0.22,0.14 0.52,0.23 0.88,0.26l0.81 -0.22c0.94,-0.26 1.94,-0.54 2.84,-1.03l0.02 -0.01c0.23,-0.14 0.4,-0.34 0.49,-0.57 0.08,-0.24 0.08,-0.53 -0.02,-0.85 -0.11,-0.36 -0.28,-0.64 -0.51,-0.81l-0.02 -0.02c-0.2,-0.13 -0.45,-0.2 -0.74,-0.17 -0.65,0.07 -1.3,0.22 -1.92,0.42 -0.63,0.21 -1.25,0.48 -1.85,0.78 -0.27,0.14 -0.43,0.34 -0.51,0.57l0 0.01c-0.09,0.28 -0.06,0.62 0.05,0.97l0 0.01zm-0.07 1.49c-0.4,-0.27 -0.7,-0.66 -0.87,-1.17l-0.01 -0.02c-0.17,-0.54 -0.21,-1.09 -0.05,-1.58l0 -0.02c0.16,-0.47 0.48,-0.87 1,-1.14 0.65,-0.34 1.32,-0.62 2,-0.84 0.69,-0.23 1.4,-0.39 2.12,-0.47 0.56,-0.05 1.04,0.08 1.43,0.36l0.04 0.02c0.4,0.3 0.69,0.76 0.87,1.32 0.16,0.53 0.15,1.04 -0.01,1.48 -0.16,0.45 -0.48,0.84 -0.93,1.1l-0.04 0.02c-0.98,0.54 -2.04,0.83 -3.05,1.11l-0.86 0.24 -0.18 0.03c-0.58,-0.04 -1.07,-0.18 -1.46,-0.44zm2.78 17.66l-0.33 -0.21c-0.93,-0.59 -1.88,-1.19 -2.88,-1.64 -0.3,-0.13 -0.58,-0.14 -0.83,-0.05 -0.27,0.09 -0.52,0.32 -0.71,0.65 -0.19,0.31 -0.27,0.62 -0.24,0.9 0.03,0.25 0.17,0.49 0.41,0.69l0.02 0.03c0.49,0.4 1.02,0.77 1.56,1.1 0.56,0.33 1.14,0.61 1.74,0.81 0.13,0.04 0.27,0.06 0.4,0.06 0.26,0 0.52,-0.09 0.72,-0.25 0.22,-0.17 0.4,-0.42 0.49,-0.71 0.06,-0.17 0.09,-0.37 0.09,-0.59 -0.01,-0.14 -0.06,-0.31 -0.14,-0.47 -0.07,-0.12 -0.16,-0.23 -0.28,-0.31l-0.02 -0.01zm0.2 -1.05l0.38 0.23c0.27,0.18 0.46,0.42 0.59,0.67 0.16,0.29 0.24,0.6 0.26,0.83l0.01 0.11c0,0.31 -0.05,0.62 -0.14,0.9 -0.17,0.49 -0.46,0.9 -0.83,1.19 -0.38,0.29 -0.84,0.46 -1.33,0.46 -0.23,0 -0.47,-0.04 -0.71,-0.12 -0.68,-0.23 -1.33,-0.53 -1.93,-0.89 -0.59,-0.35 -1.16,-0.76 -1.69,-1.19l-0.03 -0.03c-0.45,-0.37 -0.7,-0.83 -0.76,-1.34 -0.06,-0.5 0.07,-1.04 0.38,-1.54 0.31,-0.52 0.73,-0.89 1.22,-1.07 0.48,-0.18 1.02,-0.17 1.58,0.08 1.07,0.48 2.04,1.1 3,1.71zm-5.91 -25.91c0.56,-0.35 1.1,-0.75 1.59,-1.19 0.46,-0.42 0.87,-0.87 1.23,-1.37 0.15,-0.2 0.23,-0.43 0.24,-0.64 0,-0.2 -0.05,-0.41 -0.14,-0.6l-0.01 -0.02c-0.1,-0.19 -0.25,-0.35 -0.42,-0.49 -0.23,-0.16 -0.52,-0.28 -0.84,-0.3l-0.36 0.05c-0.59,0.39 -1.16,0.81 -1.68,1.28 -0.53,0.46 -1.01,0.96 -1.43,1.52 -0.16,0.22 -0.21,0.47 -0.19,0.7 0.03,0.27 0.17,0.54 0.4,0.77 0.25,0.28 0.52,0.44 0.79,0.49 0.26,0.04 0.54,-0.02 0.81,-0.19l0.01 -0.01zm2.26 -0.46c-0.53,0.49 -1.12,0.92 -1.73,1.3 -0.49,0.32 -1,0.43 -1.51,0.34 -0.49,-0.08 -0.97,-0.35 -1.36,-0.79 -0.37,-0.39 -0.6,-0.86 -0.66,-1.34 -0.05,-0.47 0.06,-0.95 0.37,-1.38l0.01 -0.02c0.47,-0.63 1,-1.19 1.56,-1.68 0.57,-0.5 1.18,-0.95 1.8,-1.37l0.04 -0.02c0.24,-0.14 0.47,-0.16 0.64,-0.17 0.04,0 0,0.01 0.03,0l0.17 -0.02c0.57,0.02 1.06,0.21 1.46,0.5 0.3,0.22 0.54,0.51 0.71,0.83l0.02 0.03c0.17,0.33 0.26,0.71 0.24,1.09 -0.01,0.41 -0.15,0.82 -0.42,1.19 -0.4,0.56 -0.87,1.06 -1.37,1.51zm-12.79 85.44l-0.2 -0.1c-2.69,-1.44 -5.38,-2.87 -8.01,-4.37 -1,-0.56 -2.02,-0.97 -3.08,-1.23 -1.05,-0.26 -2.15,-0.39 -3.29,-0.39l-11.89 0.02c-5.95,0 -11.9,0 -17.85,0.04 -0.72,0 -1.21,-0.14 -1.52,-0.47l-0.03 -0.03c-0.3,-0.35 -0.38,-0.82 -0.32,-1.48 0.04,-0.53 0.06,-1.05 0.05,-1.56 0,-0.51 -0.02,-1.04 -0.05,-1.58 -0.04,-0.57 0.01,-0.99 0.28,-1.3l0.03 -0.04c0.28,-0.29 0.7,-0.41 1.36,-0.35 0.55,0.04 1.12,0.04 1.69,0 0.58,-0.04 1.17,-0.11 1.75,-0.18 5.01,-0.6 9.41,-2.15 13.22,-4.6 3.82,-2.45 7.06,-5.81 9.74,-10.04 0.36,-0.58 0.57,-1.15 0.58,-1.71 0.02,-0.56 -0.15,-1.12 -0.52,-1.71l-0.02 -0.03c-3.05,-4.86 -6.79,-8.53 -11.19,-11.02 -4.42,-2.49 -9.53,-3.8 -15.29,-3.92 -0.62,0 -1,-0.09 -1.28,-0.37 -0.28,-0.29 -0.36,-0.67 -0.36,-1.26l0.03 -10.56 -0.02 -10.55c-0.01,-1.25 -0.22,-2.07 -0.72,-2.57 -0.5,-0.49 -1.34,-0.7 -2.58,-0.7l-29.01 -0.01c-1.39,0 -2.79,-0.01 -4.18,0.01 -0.15,0 -0.29,0.02 -0.42,0.05 -0.33,0.08 -0.6,0.25 -0.78,0.46 -0.17,0.2 -0.26,0.46 -0.26,0.74l0.04 0.27c0.11,0.48 0.31,0.78 0.59,0.95 0.3,0.18 0.72,0.25 1.21,0.23l7.9 0.01c7.9,0 15.79,0.01 23.68,-0.04 0.72,0 1.16,0.12 1.46,0.45l0.02 0.03c0.27,0.32 0.34,0.74 0.34,1.37l0 0.05c-0.04,4.64 -0.04,9.27 -0.03,13.89l0 4.57 0.04 0.81c0.07,0.81 0.13,1.62 -0.28,2.22l-0.01 0.01c-0.37,0.54 -1.07,0.66 -1.8,0.77 -0.33,0.06 -0.68,0.12 -0.94,0.21l-0.02 0c-0.56,0.19 -0.98,0.24 -1.33,0.03 -0.36,-0.21 -0.52,-0.63 -0.52,-1.36l0.01 -0.08c0,-0.95 -0.24,-1.69 -0.68,-2.17 -0.42,-0.47 -1.05,-0.72 -1.85,-0.74l-38.71 -0.03c-0.76,0 -1.41,0.26 -1.85,0.7 -0.45,0.44 -0.71,1.06 -0.71,1.8l-0.03 12.96 0 12.96c0,0.5 0.11,0.93 0.33,1.29 0.21,0.37 0.54,0.68 0.96,0.95l0.02 0.01c0.29,0.16 0.61,0.25 0.94,0.29 0.37,0.05 0.77,0.05 1.17,0.05 10.07,0 21.49,-0.51 31.4,0 0.57,0 1.14,0.01 1.76,0.42 1.67,1.12 3.41,2.05 5.21,2.8 1.81,0.74 3.7,1.31 5.66,1.69l0.02 0c0.52,0.11 0.83,0.3 1.02,0.6 0.19,0.29 0.22,0.61 0.22,1.02l0 0.06c-0.03,0.66 -0.05,1.33 -0.06,1.97 0,0.66 0.02,1.33 0.06,2l0 0.02c0.04,0.63 -0.07,1.06 -0.37,1.35 -0.3,0.29 -0.73,0.38 -1.34,0.36 -4.52,-0.02 -9.05,-0.01 -13.57,-0.01l-6.79 0.01c-0.62,0 -1.22,0.04 -1.74,0.2 -0.5,0.16 -0.96,0.42 -1.33,0.87l-0.01 0.02c-0.28,0.32 -0.58,0.53 -0.91,0.66l-0.03 0.01c-0.31,0.12 -0.65,0.17 -1.03,0.17 -4.94,-0.23 -10.28,-0.02 -15.27,-0.04 -0.82,0 -1.63,-0.01 -2.45,0.04 -0.43,0.02 -0.78,0.18 -1.01,0.42 -0.23,0.25 -0.36,0.59 -0.35,0.99 0.01,0.36 0.14,0.66 0.36,0.88 0.23,0.23 0.57,0.38 0.99,0.41l0.52 0.03 4.54 0.01c3.97,0 7.96,0.01 11.92,-0.04 0.65,-0.02 1.09,0.1 1.38,0.4 0.3,0.31 0.39,0.75 0.33,1.37 -0.05,0.39 -0.07,0.79 -0.07,1.19 0,0.41 0.02,0.81 0.07,1.19l0 0.01c0.06,0.67 -0.02,1.16 -0.33,1.51 -0.32,0.35 -0.81,0.49 -1.56,0.47 -2.66,-0.06 -5.33,-0.05 -8,-0.04l-5.06 0c-1.23,0 -2.46,-0.01 -3.68,0.01 -0.45,0.01 -0.81,0.15 -1.05,0.38 -0.23,0.23 -0.36,0.56 -0.36,0.96 0,0.38 0.13,0.72 0.37,0.96 0.23,0.23 0.58,0.39 1.01,0.43l17.15 0 0.21 -0.01c0.57,-0.06 1.18,-0.13 1.46,0.86 0.28,0.97 0.78,1.62 1.44,2.01 0.67,0.41 1.54,0.57 2.52,0.57l5.04 0.01c5.1,0 10.2,0.01 15.31,-0.04 0.65,0 1.07,0.12 1.35,0.43l0.03 0.03c0.26,0.3 0.33,0.71 0.31,1.28 -0.04,0.8 -0.06,1.6 -0.06,2.38 0.01,0.79 0.03,1.59 0.06,2.39 0.02,0.59 -0.09,0.96 -0.38,1.22 -0.28,0.24 -0.64,0.31 -1.16,0.31l-25.29 -0.02 -25.32 0.02c-0.54,0 -0.89,-0.1 -1.15,-0.37 -0.25,-0.26 -0.33,-0.61 -0.33,-1.14l0 -85.16c0,-0.61 0.12,-0.99 0.42,-1.25l0.03 -0.02c0.28,-0.23 0.65,-0.28 1.17,-0.27 1.95,0.02 3.92,0.02 5.89,0.01l2.97 -0.01c0.58,0 1.05,-0.14 1.36,-0.39l0.02 -0.02c0.27,-0.22 0.41,-0.54 0.41,-0.92l0.01 -0.06c-0.01,-0.39 -0.15,-0.71 -0.41,-0.92 -0.29,-0.24 -0.72,-0.38 -1.26,-0.39l-2.93 0.01c-2.35,0.01 -4.71,0.02 -7.07,-0.04 -0.82,-0.03 -1.5,0.1 -2.05,0.42 -0.51,0.3 -0.93,0.78 -1.26,1.45l0 90.12c0.41,0.69 0.92,1.13 1.51,1.39 0.64,0.29 1.42,0.38 2.27,0.38 17.23,-0.02 34.68,-0.32 51.87,-0.02 0.24,0.01 0.46,0.01 0.69,-0.01l0.04 0c0.87,-0.08 1.53,-0.36 1.97,-0.83 0.44,-0.47 0.67,-1.15 0.69,-2.04 0.03,-2.04 0.06,-4.08 0,-6.11 -0.04,-0.65 0.05,-1.1 0.34,-1.41l0.03 -0.03c0.3,-0.3 0.74,-0.41 1.38,-0.41l15.11 0.03 15.12 0c0.99,0 1.95,-0.11 2.86,-0.34 0.92,-0.22 1.82,-0.57 2.68,-1.04l2.47 -1.34c2.06,-1.12 4.14,-2.26 6.2,-3.34l0.01 -0.01c0.51,-0.29 0.96,-0.62 1.28,-1.01 0.3,-0.37 0.49,-0.82 0.49,-1.38 0,-0.57 -0.19,-1.02 -0.49,-1.38 -0.32,-0.4 -0.78,-0.72 -1.29,-1zm0.31 -0.96l0.16 0.08c0.62,0.33 1.18,0.73 1.6,1.25 0.44,0.54 0.71,1.19 0.71,2.01 0,0.81 -0.27,1.46 -0.71,2.01 -0.41,0.5 -0.96,0.9 -1.56,1.25l-0.05 0.02c-2.09,1.1 -4.14,2.22 -6.19,3.34l-2.46 1.34c-0.94,0.51 -1.91,0.89 -2.92,1.13 -1.01,0.25 -2.04,0.37 -3.1,0.37l-30.23 -0.03c-0.36,0 -0.58,0.03 -0.67,0.11l-0.01 0.01c-0.08,0.09 -0.1,0.31 -0.08,0.67l0 0.01c0.06,2.06 0.03,4.12 0,6.17 -0.01,1.15 -0.34,2.06 -0.95,2.71 -0.61,0.65 -1.49,1.03 -2.6,1.14l-0.06 0.01c-0.25,0.02 -0.52,0.01 -0.79,0.01 -17.17,-0.32 -34.64,0 -51.85,0.02 -0.97,0 -1.87,-0.12 -2.67,-0.47 -0.81,-0.36 -1.49,-0.95 -2.02,-1.89 -0.06,-0.08 -0.09,-0.17 -0.09,-0.28l0 -90.36c0,-0.07 0.02,-0.14 0.05,-0.21 0.42,-0.92 0.99,-1.57 1.71,-1.99 0.72,-0.42 1.57,-0.59 2.58,-0.56 2.36,0.07 4.69,0.05 7.04,0.04l2.95 -0.01c0.77,0.02 1.42,0.24 1.88,0.62 0.49,0.41 0.77,0.98 0.77,1.69l-0.01 0.06c0,0.69 -0.28,1.27 -0.77,1.69l-0.04 0.03c-0.49,0.39 -1.17,0.61 -1.98,0.61l-2.97 0.01c-1.97,0.01 -3.94,0.01 -5.89,-0.01l-0.03 0c-0.28,-0.01 -0.45,0 -0.51,0.04 -0.06,0.04 -0.08,0.2 -0.08,0.5l0 85.16c0,0.26 0.02,0.42 0.06,0.46 0.03,0.03 0.17,0.05 0.42,0.05l25.32 -0.03 25.29 0.03c0.28,0 0.45,-0.02 0.5,-0.06 0.04,-0.03 0.05,-0.17 0.04,-0.43 -0.03,-0.8 -0.05,-1.61 -0.05,-2.42 -0.01,-0.82 0.01,-1.64 0.05,-2.43 0.01,-0.31 0,-0.5 -0.06,-0.58l-0.01 -0.02c-0.07,-0.07 -0.27,-0.1 -0.62,-0.1 -5.11,0.04 -10.21,0.04 -15.31,0.03l-5.04 0c-1.15,0 -2.19,-0.2 -3.04,-0.71 -0.86,-0.53 -1.52,-1.36 -1.87,-2.59 -0.06,-0.19 -0.24,-0.17 -0.4,-0.15l-0.32 0.02c-5.47,0 -11.85,0.33 -17.2,0 -0.69,-0.05 -1.27,-0.32 -1.67,-0.74 -0.42,-0.42 -0.66,-1 -0.66,-1.65 0,-0.68 0.24,-1.26 0.67,-1.68 0.42,-0.4 1.01,-0.64 1.71,-0.66 1.23,-0.02 2.48,-0.01 3.72,-0.01l5.05 0c2.68,-0.01 5.36,-0.02 8.03,0.04 0.43,0.01 0.69,-0.03 0.78,-0.14 0.1,-0.11 0.12,-0.36 0.08,-0.76 -0.04,-0.43 -0.07,-0.86 -0.07,-1.28 0,-0.42 0.03,-0.85 0.08,-1.29 0.03,-0.32 0.02,-0.51 -0.05,-0.58 -0.07,-0.08 -0.28,-0.1 -0.64,-0.09 -3.98,0.04 -7.97,0.04 -11.95,0.03 -1.71,0 -3.44,0.05 -5.14,-0.03 -0.66,-0.06 -1.21,-0.31 -1.6,-0.7 -0.41,-0.4 -0.65,-0.94 -0.67,-1.56 -0.02,-0.68 0.21,-1.27 0.62,-1.71 0.41,-0.42 0.99,-0.69 1.69,-0.73 0.82,-0.05 1.66,-0.04 2.51,-0.03 4.89,0.02 10.47,0.27 15.26,0.03 0.27,0 0.49,-0.03 0.67,-0.1l0.02 -0.01c0.18,-0.07 0.35,-0.2 0.53,-0.4 0.51,-0.6 1.12,-0.97 1.79,-1.17 0.66,-0.2 1.34,-0.25 2.04,-0.25l6.79 -0.01c4.53,0 9.05,-0.01 13.58,0.01l0.02 0c0.34,0.01 0.55,-0.01 0.62,-0.08 0.07,-0.06 0.08,-0.25 0.06,-0.57 -0.04,-0.68 -0.06,-1.38 -0.05,-2.08 0,-0.68 0.02,-1.35 0.05,-2.01l0 -0.02c0,-0.24 -0.01,-0.41 -0.06,-0.48 -0.04,-0.07 -0.16,-0.12 -0.38,-0.16 -2.02,-0.39 -3.98,-0.98 -5.85,-1.75 -1.88,-0.77 -3.68,-1.74 -5.39,-2.89 -0.37,-0.25 -0.79,-0.25 -1.21,-0.25 -9.98,0.47 -21.27,0 -31.4,0 -0.42,0 -0.85,0 -1.28,-0.06l-0.02 0c-0.45,-0.06 -0.89,-0.18 -1.31,-0.42l-0.04 -0.02c-0.56,-0.35 -1,-0.78 -1.3,-1.29 -0.31,-0.51 -0.47,-1.11 -0.47,-1.8l0.03 -25.92c0,-1.02 0.37,-1.89 1.01,-2.51 0.63,-0.62 1.53,-0.99 2.55,-0.99 12.66,0.01 26.18,0.51 38.71,0.03 1.1,0.02 1.98,0.39 2.59,1.07 0.61,0.67 0.94,1.63 0.94,2.84l0 0.08c0,0.34 0.01,0.5 0.03,0.51 0.03,0.02 0.22,-0.03 0.51,-0.12 0.35,-0.13 0.73,-0.19 1.1,-0.25 0.52,-0.08 1.01,-0.17 1.15,-0.36 0.2,-0.31 0.16,-0.95 0.11,-1.59l0 -0.01c-0.03,-0.3 -0.05,-0.6 -0.05,-0.87l0 -4.57c-0.01,-4.62 -0.01,-9.26 0.03,-13.9l0 -0.04c0,-0.38 -0.02,-0.62 -0.09,-0.72 -0.09,-0.09 -0.31,-0.13 -0.72,-0.13 -7.9,0.05 -15.79,0.04 -23.69,0.03l-7.88 0c-0.67,0.02 -1.27,-0.09 -1.75,-0.38 -0.51,-0.31 -0.87,-0.81 -1.04,-1.57 -0.04,-0.16 -0.06,-0.32 -0.07,-0.48 -0.01,-0.53 0.17,-1.01 0.49,-1.4 0.32,-0.37 0.77,-0.65 1.31,-0.79 0.2,-0.04 0.42,-0.07 0.64,-0.08 1.4,-0.02 2.8,-0.01 4.2,-0.01l29.01 0.01c1.51,0 2.57,0.3 3.28,0.99 0.71,0.7 1.02,1.76 1.02,3.27l0.02 10.56 -0.02 10.56c0,0.32 0.01,0.51 0.06,0.56 0.06,0.05 0.24,0.07 0.57,0.07 5.94,0.12 11.21,1.47 15.78,4.06 4.55,2.56 8.4,6.34 11.54,11.35l0.02 0.03c0.49,0.76 0.7,1.51 0.68,2.27 -0.02,0.74 -0.28,1.48 -0.74,2.21 -2.76,4.36 -6.1,7.83 -10.04,10.35 -3.94,2.53 -8.48,4.13 -13.63,4.75 -0.61,0.08 -1.22,0.15 -1.82,0.19 -0.61,0.04 -1.23,0.04 -1.83,0 -0.32,-0.04 -0.49,-0.02 -0.55,0.03 -0.06,0.08 -0.07,0.28 -0.05,0.6 0.03,0.54 0.06,1.08 0.06,1.63 0,0.56 -0.01,1.12 -0.06,1.65 -0.03,0.38 -0.01,0.62 0.08,0.73 0.11,0.12 0.37,0.17 0.8,0.17 5.95,-0.03 11.9,-0.04 17.85,-0.04l11.89 -0.02c1.22,0 2.39,0.13 3.53,0.42 1.14,0.29 2.24,0.72 3.32,1.33 2.63,1.49 5.32,2.93 8,4.36l0.04 0.02zm-65.03 9l-3.1 -0.02 -3.14 0.02c-0.47,0.01 -0.8,-0.09 -1.03,-0.33 -0.24,-0.25 -0.33,-0.58 -0.3,-1.04 0.01,-0.96 0.01,-1.91 0,-2.85l0 -2.86c0.01,-0.92 0.01,-1.85 0,-2.76 -0.02,-0.45 0.03,-0.8 0.25,-1.06l0.04 -0.04c0.23,-0.25 0.56,-0.37 1.06,-0.37l0.06 0.01c2.08,0.06 4.13,0.03 6.21,0l0.03 -0.01c0.47,0 0.79,0.1 1.02,0.35 0.23,0.24 0.31,0.56 0.31,1.01l-0.02 4.32 0.02 4.31c0,0.49 -0.12,0.81 -0.37,1.04 -0.24,0.22 -0.56,0.29 -0.99,0.29l-0.05 -0.01zm-3.1 -1.02l3.15 0.03c0.19,0 0.3,-0.01 0.33,-0.04 0.02,-0.01 0.03,-0.11 0.03,-0.29l-0.02 -4.31 0.02 -4.32c0,-0.19 -0.01,-0.3 -0.04,-0.32 -0.01,-0.02 -0.11,-0.03 -0.29,-0.03l-0.03 0c-2.08,0.02 -4.15,0.05 -6.24,-0.01l-0.03 0.01c-0.19,0 -0.29,0.01 -0.32,0.03 -0.04,0.04 -0.05,0.18 -0.04,0.39 0.02,0.93 0.02,1.87 0.01,2.81l0 2.84c0.01,0.96 0.01,1.91 -0.01,2.87l0 0.03c-0.01,0.18 0,0.28 0.02,0.3 0.03,0.02 0.13,0.04 0.31,0.04l3.15 -0.03zm-16.92 -28.19c-3.02,0 -6.06,0 -8.75,0.02 -0.46,0.01 -0.79,-0.06 -1.04,-0.28 -0.26,-0.23 -0.38,-0.56 -0.38,-1.07l0.03 -11.43 0 -11.38c-0.02,-0.48 0.06,-0.8 0.29,-1.04 0.24,-0.23 0.55,-0.3 1.01,-0.3l35.68 0.03 0.18 -0.02c0.13,-0.02 0.27,-0.04 0.42,-0.02 0.45,0.04 0.79,0.26 0.72,0.95l-0.01 0.03c-0.02,0.16 0.01,0.38 0.04,0.6 0.12,0.78 0.23,1.57 -0.96,2.13l-0.02 0.01c-1.46,0.67 -2.85,1.48 -4.16,2.4 -1.32,0.93 -2.56,1.97 -3.73,3.1 -0.96,0.93 -1.85,1.93 -2.68,2.97 -0.84,1.08 -1.62,2.21 -2.32,3.38 -0.35,0.57 -0.52,1.12 -0.51,1.66 0,0.54 0.17,1.09 0.51,1.65 0.62,1.01 1.28,1.99 2,2.94 0.73,0.95 1.53,1.89 2.43,2.82 0.19,0.2 0.18,0.51 -0.01,0.7 -0.1,0.1 -0.22,0.14 -0.35,0.14l-18.39 0.01zm-8.75 -0.97c3.13,-0.03 5.95,-0.04 8.75,-0.04l17.24 0c-0.62,-0.68 -1.18,-1.36 -1.71,-2.06 -0.75,-0.98 -1.43,-1.98 -2.06,-3.02 -0.43,-0.73 -0.66,-1.45 -0.66,-2.17 -0.01,-0.73 0.21,-1.45 0.66,-2.18 0.72,-1.21 1.52,-2.38 2.39,-3.48 0.84,-1.07 1.76,-2.1 2.76,-3.07 1.22,-1.17 2.5,-2.24 3.86,-3.19 1.35,-0.95 2.79,-1.79 4.31,-2.5l0.02 0c0.52,-0.25 0.46,-0.67 0.39,-1.08 -0.03,-0.24 -0.06,-0.48 -0.05,-0.72l-0.31 0.03 -35.68 -0.03 -0.3 0.01 -0.03 23.14c0,0.19 0.01,0.3 0.04,0.32 0.03,0.02 0.16,0.04 0.38,0.04zm26.08 -6.02c-0.29,-0.44 -0.45,-0.83 -0.46,-1.24 -0.01,-0.42 0.13,-0.81 0.43,-1.26 2.51,-3.94 6.07,-7.15 10.45,-9.34 4.21,-2.1 9.18,-3.27 14.69,-3.26l0.02 0c4.09,0.15 8.11,1.31 11.81,3.52 3.53,2.1 6.76,5.15 9.48,9.15 0.27,0.39 0.41,0.74 0.42,1.12 0.01,0.39 -0.13,0.76 -0.42,1.17l-0.01 0.01c-3.11,4.5 -6.81,7.86 -11.12,9.97 -4.22,2.08 -9.02,2.96 -14.41,2.56 -4.4,-0.32 -8.31,-1.55 -11.75,-3.59 -3.53,-2.1 -6.57,-5.07 -9.13,-8.81zm0.53 -1.27c0.01,0.2 0.11,0.43 0.3,0.71 2.47,3.62 5.4,6.49 8.81,8.51 3.3,1.96 7.07,3.14 11.31,3.45 5.21,0.39 9.84,-0.46 13.9,-2.45 4.15,-2.04 7.73,-5.29 10.74,-9.65l0.01 -0.02c0.17,-0.23 0.25,-0.41 0.24,-0.57 0,-0.16 -0.08,-0.35 -0.24,-0.57 -2.64,-3.89 -5.77,-6.84 -9.17,-8.87 -3.55,-2.11 -7.41,-3.23 -11.33,-3.37 -5.35,-0.01 -10.17,1.12 -14.23,3.15 -4.22,2.11 -7.65,5.19 -10.06,8.98 -0.19,0.29 -0.28,0.51 -0.28,0.7zm51.27 28.01l-0.01 0.25c-0.14,2.18 -0.14,2.18 -2.54,2.18 -1.87,0 -3.74,0 -5.41,0.03 -0.49,0 -0.89,0.14 -1.16,0.37 -0.26,0.22 -0.41,0.55 -0.43,0.93l0 0.07c0.01,0.37 0.14,0.69 0.39,0.91l0.02 0.03c0.28,0.23 0.69,0.38 1.19,0.39l1.62 0.01c1.6,0 3.21,0.01 4.81,-0.04l0.01 0c0.45,0 0.79,0.05 1.06,0.27l0.01 0.01c0.28,0.24 0.41,0.59 0.41,1.14l0 0.17c0,2.71 0,2.72 -2.85,2.72 -13.99,0 -27.94,0 -40.36,0.02 -0.67,0.01 -1.1,-0.1 -1.39,-0.41 -0.29,-0.32 -0.37,-0.75 -0.34,-1.4l0.01 -0.15c0.07,-2.34 0.07,-2.34 2.54,-2.34l25.19 0 0.42 -0.02c0.47,-0.06 0.84,-0.22 1.08,-0.45 0.22,-0.2 0.34,-0.49 0.34,-0.82l-0.01 -0.19c-0.06,-0.39 -0.23,-0.69 -0.5,-0.9 -0.28,-0.21 -0.69,-0.34 -1.21,-0.35l-13.1 0c-4.57,0 -9.12,0 -13.18,0.03 -0.57,0 -0.95,-0.09 -1.22,-0.36 -0.28,-0.27 -0.38,-0.65 -0.36,-1.23l0.01 -0.08c0.03,-2.6 0.03,-2.61 2.73,-2.61l19.76 0c7.12,0 14.27,0 20.59,-0.02 0.64,-0.01 1.09,0.06 1.43,0.35 0.35,0.29 0.49,0.75 0.45,1.49zm-1.01 0.19l0.01 -0.25c0.03,-0.39 -0.01,-0.6 -0.1,-0.67 -0.1,-0.09 -0.37,-0.11 -0.77,-0.11 -7.38,0.03 -14.01,0.03 -20.6,0.03l-19.76 0c-1.71,0 -1.71,0 -1.74,1.62l0 0.1c-0.01,0.27 0.01,0.43 0.05,0.48 0.06,0.05 0.23,0.07 0.52,0.07 4.75,-0.03 8.96,-0.03 13.19,-0.03l13.11 0c0.74,0.02 1.36,0.21 1.81,0.56 0.48,0.37 0.78,0.89 0.88,1.55l0.02 0.33c0,0.62 -0.23,1.15 -0.65,1.55 -0.4,0.37 -0.96,0.62 -1.64,0.71l-0.55 0.03 -25.19 0c-1.5,0 -1.5,0 -1.54,1.36l-0.01 0.19c-0.02,0.36 -0.01,0.57 0.07,0.65 0.07,0.08 0.28,0.11 0.66,0.11 14.49,-0.03 27.41,-0.04 40.36,-0.04 1.85,0 1.85,0 1.85,-1.71l0 -0.17c0,-0.23 -0.01,-0.34 -0.05,-0.37 -0.05,-0.04 -0.2,-0.05 -0.43,-0.05 -1.6,0.04 -3.21,0.04 -4.82,0.03 -0.38,0 -1.32,0.05 -1.63,0 -0.76,-0.02 -1.39,-0.26 -1.83,-0.65l-0.04 -0.03c-0.46,-0.41 -0.72,-0.99 -0.71,-1.66l0 -0.07c0.02,-0.68 0.3,-1.26 0.77,-1.67 0.45,-0.39 1.07,-0.62 1.81,-0.62 1.94,-0.03 3.68,-0.03 5.41,-0.03 1.46,0 1.47,0 1.54,-1.24zm7.93 7.57l-0.71 0.39c-0.86,0.48 -1.74,0.97 -2.88,1.13 -0.27,0.03 -0.52,-0.16 -0.56,-0.43l0 -9.98c0,-0.28 0.22,-0.5 0.5,-0.5l0.07 0c1.12,0.09 1.99,0.59 2.86,1.09l0.76 0.42c0.26,0.11 0.43,0.27 0.55,0.47 0.1,0.2 0.14,0.41 0.14,0.66l-0.02 2.77 0.02 2.76c0,0.27 -0.05,0.51 -0.17,0.72 -0.12,0.21 -0.3,0.38 -0.56,0.5zm-1.2 -0.49l0.77 -0.41c0.06,-0.03 0.11,-0.06 0.12,-0.09 0.03,-0.05 0.04,-0.12 0.04,-0.22l-0.02 -2.77c0.01,-0.9 0.1,-2.08 0,-2.95l-0.92 -0.5c-0.63,-0.36 -1.25,-0.72 -1.94,-0.88l0 8.72c0.7,-0.2 1.33,-0.55 1.95,-0.9zm4.73 -2.28l0 -2.3c0,-0.27 0.22,-0.5 0.5,-0.5l0.17 0.03c0.6,0.18 1.11,0.49 1.64,0.81l0.6 0.36c0.24,0.13 0.33,0.44 0.19,0.68 -0.04,0.08 -0.11,0.15 -0.2,0.2l-2.17 1.16c-0.24,0.13 -0.54,0.04 -0.67,-0.21 -0.04,-0.07 -0.06,-0.15 -0.06,-0.23zm1 -1.56l0 0.73 0.65 -0.36 -0.65 -0.37zm14.47 -77.84c-0.11,-0.39 -0.27,-0.71 -0.51,-0.92l-0.03 -0.02c-0.2,-0.17 -0.46,-0.27 -0.8,-0.28 -0.31,-0.01 -0.59,0.05 -0.81,0.18 -0.21,0.12 -0.38,0.31 -0.5,0.57l0 0.01c-0.1,0.22 -0.12,0.45 -0.11,0.68 0.01,0.26 0.07,0.54 0.14,0.82 0.83,3.36 0.57,6.75 -0.62,9.74 -1.18,2.97 -3.28,5.56 -6.17,7.35 -0.71,0.46 -1.26,0.91 -1.59,1.45 -0.32,0.51 -0.44,1.13 -0.33,1.91 0.04,0.17 0.05,0.33 0.03,0.48 -0.01,0.24 -0.1,0.44 -0.23,0.6 -0.15,0.17 -0.34,0.28 -0.59,0.33l-0.03 0.01c-0.13,0.02 -0.29,0.03 -0.47,0.01 -0.89,-0.06 -1.75,-0.03 -2.64,0l-0.03 0c-0.46,0.03 -0.77,-0.07 -1,-0.31 -0.21,-0.23 -0.29,-0.53 -0.29,-0.95l0.01 -0.06c0.03,-1.99 0.06,-3.99 0,-5.98l0 -0.02c-0.01,-0.41 0.09,-0.7 0.28,-0.93 0.17,-0.22 0.39,-0.35 0.65,-0.49 0.73,-0.39 1.32,-0.91 1.74,-1.52 0.41,-0.59 0.66,-1.3 0.72,-2.09l0.01 -0.05c0.07,-0.82 0.12,-1.66 0.12,-2.49 0,-0.85 -0.04,-1.7 -0.13,-2.53 -0.13,-1.29 -0.75,-2.37 -1.66,-3.11 -0.94,-0.75 -2.18,-1.15 -3.53,-1.07 -1.21,0.08 -2.29,0.64 -3.07,1.49l-0.02 0.03c-0.76,0.85 -1.23,2 -1.25,3.28l0 1.34c-0.01,0.9 -0.01,1.8 0,2.72 0.02,0.73 0.15,1.47 0.45,2.08 0.25,0.5 0.6,0.92 1.1,1.19 0.97,0.53 1.48,1.17 1.73,1.91l0.01 0.02c0.23,0.7 0.22,1.46 0.14,2.27 -0.01,0.26 -0.01,0.51 0,0.77 0.01,0.28 0.02,0.56 0,0.85 -0.02,0.3 0.02,0.66 0.06,1.01 0.09,0.86 0.19,1.71 -0.39,2.28l-0.03 0.03c-0.61,0.57 -1.47,0.48 -2.35,0.39 -0.35,-0.04 -0.72,-0.07 -1.03,-0.06l-0.28 0.01c-0.14,0.01 -0.27,0 -0.38,-0.02 -0.25,-0.04 -0.46,-0.14 -0.62,-0.3l-0.02 -0.03c-0.14,-0.16 -0.22,-0.36 -0.25,-0.6 -0.01,-0.13 -0.01,-0.27 0.02,-0.43 0.14,-0.87 -0.02,-1.51 -0.38,-2.04 -0.38,-0.57 -1.01,-1.05 -1.76,-1.53 -0.75,-0.49 -1.45,-1.03 -2.08,-1.62 -2.77,-2.56 -4.41,-5.98 -4.85,-9.55 -0.43,-3.56 0.35,-7.28 2.41,-10.45 0.47,-0.74 1.02,-1.45 1.64,-2.12l0.01 -0.01c2.91,-3.12 6.74,-4.82 10.67,-5.06 3.93,-0.23 7.95,1.01 11.22,3.77l0.69 0.57c0.37,0.31 0.76,0.47 1.11,0.47 0.34,0 0.67,-0.14 0.94,-0.42l0.02 -0.01c0.27,-0.31 0.39,-0.65 0.36,-0.99 -0.04,-0.35 -0.25,-0.74 -0.64,-1.1l-0.01 -0.02c-2.32,-2.13 -4.85,-3.57 -7.56,-4.35 -2.74,-0.79 -5.69,-0.89 -8.83,-0.34l-0.65 0.13c-4.63,1.02 -8.55,3.94 -11.11,7.76 -2.57,3.83 -3.76,8.57 -2.93,13.23l0.13 0.65c0.55,2.51 1.49,4.75 2.81,6.72 1.32,1.96 3.04,3.67 5.15,5.12 0.18,0.12 0.32,0.26 0.44,0.42 0.24,0.31 0.39,0.7 0.43,1.08 0.04,0.4 -0.04,0.81 -0.26,1.13 -0.09,0.12 -0.19,0.23 -0.31,0.32 -0.49,0.38 -0.78,0.82 -0.93,1.3 -0.17,0.51 -0.2,1.09 -0.19,1.69l-0.01 4.54c0,0.87 -0.01,1.75 0.01,2.62 0.03,0.99 0.28,1.72 0.75,2.19 0.48,0.46 1.21,0.69 2.21,0.69l0.05 0c2.67,0.03 2.68,0.05 2.71,2.69 0.03,1.01 0.29,1.79 0.77,2.32 0.46,0.51 1.16,0.79 2.09,0.83 1.67,0.09 3.34,0.06 5.01,0 0.88,-0.04 1.59,-0.33 2.06,-0.81 0.48,-0.49 0.75,-1.2 0.76,-2.06 0.08,-2.93 0.08,-2.94 3.01,-2.97 0.85,-0.01 1.54,-0.26 2,-0.7 0.45,-0.43 0.7,-1.07 0.72,-1.9 0.01,-1.84 0.01,-3.67 0,-5.5l0 -2.76c-0.01,-0.41 -0.08,-0.78 -0.23,-1.11l-0.01 -0.02c-0.15,-0.32 -0.38,-0.61 -0.67,-0.88l-0.03 -0.03c-0.14,-0.13 -0.26,-0.27 -0.36,-0.41 -0.27,-0.39 -0.39,-0.81 -0.36,-1.22 0.02,-0.41 0.2,-0.79 0.52,-1.13 0.12,-0.14 0.27,-0.26 0.43,-0.38l0.02 -0.01c1.28,-0.88 2.43,-1.87 3.44,-2.98 1.01,-1.11 1.88,-2.35 2.59,-3.71l0.03 -0.04c1.12,-2.15 1.8,-4.36 2.06,-6.61 0.25,-2.27 0.06,-4.59 -0.56,-6.95zm0.15 -1.67c0.4,0.35 0.66,0.84 0.81,1.42 0.66,2.47 0.85,4.92 0.59,7.31 -0.27,2.37 -0.99,4.7 -2.17,6.96l-0.02 0.04c-0.75,1.44 -1.67,2.75 -2.74,3.92 -1.06,1.17 -2.27,2.21 -3.61,3.13l-0.02 0.01c-0.1,0.07 -0.19,0.15 -0.27,0.23 -0.16,0.17 -0.24,0.35 -0.26,0.53 -0.01,0.18 0.05,0.38 0.19,0.57 0.06,0.09 0.13,0.18 0.22,0.26l0.02 0.02c0.39,0.35 0.69,0.75 0.9,1.19l0.02 0.04c0.21,0.46 0.32,0.96 0.32,1.52l0 2.76c0.01,1.83 0.01,3.67 -0.01,5.51 -0.01,1.11 -0.38,1.99 -1.02,2.61 -0.64,0.62 -1.56,0.96 -2.68,0.98 -1.97,0.02 -1.97,0.02 -2.02,1.99 -0.02,1.12 -0.38,2.07 -1.04,2.74 -0.66,0.66 -1.59,1.06 -2.74,1.11 -1.7,0.06 -3.4,0.09 -5.1,0 -1.2,-0.05 -2.13,-0.45 -2.78,-1.16 -0.64,-0.71 -0.99,-1.71 -1.02,-2.97 -0.03,-1.67 -0.03,-1.69 -1.73,-1.71l-0.04 0c-1.27,0 -2.23,-0.33 -2.9,-0.98 -0.67,-0.65 -1.02,-1.61 -1.06,-2.88 -0.02,-0.88 -0.01,-1.76 0,-2.64l0 -4.53c-0.01,-0.7 0.03,-1.38 0.24,-2.01 0.21,-0.66 0.6,-1.26 1.26,-1.77l0.11 -0.11c0.08,-0.11 0.11,-0.28 0.09,-0.46 -0.02,-0.2 -0.1,-0.41 -0.23,-0.57 -0.06,-0.08 -0.13,-0.15 -0.21,-0.21 -2.22,-1.52 -4.03,-3.32 -5.42,-5.39 -1.39,-2.08 -2.38,-4.43 -2.96,-7.06l-0.13 -0.69c-0.88,-4.91 0.38,-9.92 3.08,-13.95 2.7,-4.04 6.84,-7.11 11.73,-8.19l0.69 -0.14c3.29,-0.58 6.38,-0.46 9.27,0.37 2.86,0.82 5.52,2.34 7.96,4.58l0.03 0.02c0.57,0.54 0.88,1.14 0.94,1.74 0.06,0.62 -0.15,1.23 -0.62,1.75l-0.03 0.03c-0.47,0.49 -1.05,0.73 -1.67,0.73 -0.58,-0.01 -1.19,-0.24 -1.74,-0.7 -0.23,-0.19 -0.47,-0.4 -0.7,-0.57 -3.06,-2.59 -6.83,-3.76 -10.51,-3.54 -3.68,0.22 -7.28,1.82 -10,4.74 -0.59,0.64 -1.1,1.3 -1.55,1.99 -1.92,2.97 -2.65,6.45 -2.24,9.79 0.4,3.35 1.93,6.54 4.52,8.94 0.6,0.55 1.25,1.05 1.95,1.51 0.85,0.55 1.57,1.11 2.05,1.81 0.5,0.73 0.72,1.61 0.53,2.76l0 0.21c0.11,0.03 0.4,0 0.52,0 0.38,-0.01 0.77,0.03 1.16,0.07 0.65,0.06 1.28,0.13 1.57,-0.13 0.24,-0.24 0.17,-0.86 0.11,-1.48 -0.04,-0.39 -0.09,-0.79 -0.07,-1.17 0.02,-0.26 0.01,-0.51 0,-0.76 0,-0.29 -0.01,-0.57 0,-0.86l0.01 -0.02c0.06,-0.69 0.08,-1.33 -0.1,-1.87l0 -0.01c-0.18,-0.52 -0.55,-0.97 -1.27,-1.36 -0.69,-0.38 -1.19,-0.96 -1.52,-1.64 -0.36,-0.75 -0.52,-1.63 -0.54,-2.5 -0.02,-0.92 -0.02,-1.83 -0.01,-2.73l0.01 -1.35c0.01,-1.53 0.58,-2.91 1.5,-3.94l0.02 -0.03c0.95,-1.04 2.26,-1.72 3.75,-1.82 1.61,-0.1 3.09,0.39 4.21,1.29 1.11,0.9 1.87,2.21 2.04,3.78 0.09,0.87 0.13,1.76 0.13,2.64 -0.01,0.86 -0.05,1.72 -0.13,2.58l0 0.05c-0.08,0.96 -0.39,1.82 -0.89,2.56 -0.51,0.75 -1.22,1.37 -2.1,1.84l-0.01 0.01c-0.15,0.07 -0.27,0.14 -0.33,0.21 -0.04,0.06 -0.06,0.16 -0.06,0.32 0.05,2 0.02,4.01 -0.01,6.02l0.02 0.31 0.26 0c0.93,-0.04 1.82,-0.06 2.74,0 0.07,0.01 0.19,0 0.27,-0.01l-0.03 -0.28c-0.15,-1.04 0.03,-1.87 0.47,-2.58 0.42,-0.69 1.08,-1.24 1.9,-1.77 2.71,-1.68 4.69,-4.1 5.79,-6.88 1.11,-2.8 1.35,-5.98 0.57,-9.13 -0.08,-0.33 -0.15,-0.67 -0.17,-1.01 -0.02,-0.37 0.03,-0.75 0.2,-1.13l0 -0.02c0.21,-0.46 0.52,-0.8 0.9,-1.02 0.39,-0.23 0.85,-0.33 1.35,-0.32 0.59,0.02 1.06,0.21 1.42,0.52l0.04 0.03zm-20.12 7.63c0.04,-0.58 0.26,-1.05 0.62,-1.37l0.03 -0.03c0.36,-0.31 0.84,-0.48 1.41,-0.48 0.57,0 1.05,0.19 1.41,0.52 0.34,0.33 0.55,0.8 0.59,1.38 0.04,0.49 0.02,0.98 0.01,1.46l0 1.32c0.01,0.45 0.03,0.89 -0.02,1.35 -0.05,0.59 -0.25,1.04 -0.59,1.36 -0.35,0.33 -0.82,0.5 -1.43,0.5 -0.61,0 -1.08,-0.18 -1.43,-0.49l-0.02 -0.03c-0.35,-0.33 -0.54,-0.8 -0.58,-1.35l0 -0.04c-0.03,-0.7 -0.05,-1.38 -0.05,-2.03 0,-0.66 0.02,-1.35 0.05,-2.06l0 -0.01zm1.29 -0.63c-0.17,0.15 -0.27,0.39 -0.29,0.7 -0.03,0.63 -0.05,1.3 -0.05,2 0,0.69 0.02,1.35 0.05,1.98l0 0.02c0.02,0.3 0.11,0.54 0.26,0.7l0.02 0.01c0.16,0.15 0.41,0.23 0.75,0.23 0.34,0 0.59,-0.08 0.74,-0.22 0.16,-0.15 0.26,-0.4 0.29,-0.73 0.04,-0.39 0.03,-0.81 0.01,-1.23l-0.01 -0.68 0.01 -0.69c0.02,-0.44 0.03,-0.9 -0.01,-1.35 -0.02,-0.34 -0.12,-0.59 -0.29,-0.75 -0.15,-0.15 -0.4,-0.23 -0.71,-0.23 -0.32,0 -0.58,0.08 -0.75,0.22l-0.02 0.02zm1.46 34.04c-0.12,-0.02 -0.28,-0.01 -0.44,0 -0.39,0.02 -0.77,0.02 -1.17,0.02 -0.29,0 -0.55,-0.05 -0.77,-0.13 -0.33,-0.11 -0.6,-0.31 -0.78,-0.57 -0.17,-0.26 -0.27,-0.58 -0.27,-0.92 0,-0.25 0.05,-0.53 0.16,-0.82l0.01 -0.04c0.25,-0.61 0.63,-0.59 1,-0.57l1.11 0.01c0.61,0 1.22,0.01 1.84,-0.01 0.37,-0.02 0.65,0.03 0.87,0.22 0.23,0.18 0.34,0.46 0.39,0.86l0 0.03c0.04,0.63 -0.02,1.15 -0.31,1.51 -0.31,0.4 -0.82,0.56 -1.62,0.42l-0.02 -0.01zm-0.51 -1c0.23,-0.01 0.47,-0.03 0.72,0.03 0.37,0.06 0.57,0.04 0.64,-0.05 0.11,-0.13 0.13,-0.43 0.1,-0.83l-0.03 -0.2 -0.19 0.02c-0.63,0.02 -1.26,0.01 -1.89,0 -0.37,0 -0.79,0.02 -1.16,0 -0.01,0 0,-0.08 -0.01,-0.06 -0.06,0.18 -0.1,0.35 -0.1,0.49 0,0.15 0.04,0.27 0.09,0.35 0.06,0.09 0.16,0.16 0.29,0.2 0.12,0.04 0.26,0.07 0.44,0.07 0.36,0 0.75,0.01 1.1,-0.02zm6.68 -4.74l-8.54 -0.03c-1.68,-0.01 -3.37,-0.01 -5.07,0.03 -0.6,0.02 -0.99,-0.1 -1.26,-0.39 -0.26,-0.28 -0.34,-0.68 -0.32,-1.22 0.03,-0.82 0.04,-1.63 0.05,-2.44l-0.02 -2.45c-0.02,-0.44 0.02,-0.77 0.23,-1.03 0.22,-0.28 0.56,-0.41 1.09,-0.41l6.96 0.02 6.96 -0.02c0.5,0 0.83,0.1 1.07,0.35 0.24,0.25 0.31,0.58 0.29,1.06l-0.02 2.57 0.02 2.56c0.02,0.52 -0.08,0.86 -0.34,1.1l-0.03 0.03c-0.25,0.21 -0.58,0.27 -1.02,0.27l-0.05 0zm-3.39 -1.02l3.44 0.02c0.21,0 0.33,0 0.37,-0.03 0.03,-0.02 0.03,-0.13 0.02,-0.33l-0.02 -2.6 0.02 -2.62c0.01,-0.19 0.01,-0.3 -0.02,-0.33 -0.02,-0.02 -0.13,-0.03 -0.34,-0.03l-6.96 0.02 -6.96 -0.02c-0.2,0 -0.29,0.01 -0.31,0.03 -0.02,0.03 -0.02,0.16 -0.02,0.36l0.02 2.5c0,0.84 -0.02,1.66 -0.05,2.47 -0.01,0.28 0.01,0.45 0.07,0.52 0.05,0.05 0.21,0.08 0.49,0.07 1.7,-0.05 3.41,-0.04 5.1,-0.04l5.15 0.01zm-90.19 32.92c0.18,0.08 0.37,0.13 0.58,0.15 0.21,0.03 0.48,0.03 0.74,0.03l22.83 0c4.19,0 8.38,0 12.08,-0.03 0.39,0 0.72,-0.08 1,-0.2l0.02 -0.01c0.25,-0.12 0.45,-0.29 0.58,-0.49 0.14,-0.19 0.21,-0.42 0.21,-0.66 0,-0.2 -0.05,-0.41 -0.15,-0.62 -0.19,-0.37 -0.45,-0.57 -0.75,-0.66l-0.02 -0.01c-0.35,-0.11 -0.78,-0.11 -1.22,-0.11l-34.55 0c-0.37,0 -0.78,0 -1.11,0.07l-0.03 0.01c-0.28,0.05 -0.51,0.18 -0.66,0.35 -0.17,0.18 -0.27,0.44 -0.3,0.74l-0.01 0.02c-0.09,0.62 0.17,1.1 0.76,1.42zm0.46 1.15c-0.3,-0.04 -0.6,-0.11 -0.9,-0.26l-0.04 -0.02c-1,-0.53 -1.42,-1.35 -1.27,-2.43 0.06,-0.51 0.25,-0.95 0.55,-1.28 0.31,-0.34 0.72,-0.57 1.22,-0.67 0.45,-0.1 0.91,-0.1 1.33,-0.1l34.55 0c0.51,0 1.03,0.01 1.52,0.16l0.03 0.01c0.54,0.17 1,0.51 1.33,1.16l0.02 0.03c0.16,0.35 0.24,0.71 0.24,1.04 0,0.45 -0.14,0.87 -0.38,1.22 -0.23,0.34 -0.57,0.63 -0.98,0.83l-0.03 0.01c-0.41,0.19 -0.89,0.3 -1.42,0.3 -4.31,0.03 -8.2,0.03 -12.08,0.03l-22.83 0c-0.28,0 -0.56,0 -0.86,-0.03zm9.12 -47.6l8.87 0c3.22,0 6.43,0 9.24,-0.03 0.56,0 0.99,-0.13 1.26,-0.36 0.25,-0.21 0.39,-0.53 0.39,-0.95l0 -0.07c0,-0.41 -0.13,-0.74 -0.36,-0.95 -0.25,-0.23 -0.64,-0.36 -1.14,-0.37l-18.32 0c-0.55,0 -0.97,0.13 -1.25,0.36 -0.25,0.22 -0.39,0.55 -0.39,0.97l0 0.07c0,0.39 0.13,0.71 0.38,0.93 0.29,0.24 0.73,0.38 1.3,0.4l0.02 0zm8.87 1c-1.73,0 -7.65,0.25 -8.9,0 -0.81,-0.02 -1.48,-0.25 -1.94,-0.65 -0.47,-0.41 -0.73,-0.99 -0.73,-1.69l0 -0.06c0,-0.72 0.26,-1.31 0.74,-1.72 0.46,-0.39 1.11,-0.61 1.9,-0.61l18.35 0c0.75,0.02 1.36,0.24 1.79,0.63 0.44,0.42 0.68,0.99 0.68,1.69l0 0.07c0,0.72 -0.27,1.31 -0.75,1.71 -0.46,0.39 -1.1,0.6 -1.89,0.6 -3.31,0.03 -6.28,0.03 -9.25,0.03zm77.21 -35.03c0.29,0.17 0.59,0.24 0.85,0.22 0.23,-0.02 0.45,-0.14 0.63,-0.35 0.8,-0.92 1.21,-2.07 1.59,-3.16l0.21 -0.59c-0.03,-0.39 -0.12,-0.7 -0.28,-0.92 -0.16,-0.23 -0.4,-0.39 -0.74,-0.49l-0.02 -0.01c-0.32,-0.09 -0.6,-0.09 -0.84,-0.01 -0.23,0.09 -0.43,0.27 -0.57,0.52 -0.3,0.52 -0.57,1.06 -0.81,1.6l-0.02 0.03c-0.22,0.52 -0.44,1.06 -0.64,1.63 -0.11,0.31 -0.11,0.6 -0.02,0.84 0.1,0.25 0.32,0.49 0.63,0.67l0.03 0.02zm0.94 1.21c-0.47,0.05 -0.98,-0.08 -1.45,-0.35l-0.03 -0.02c-0.51,-0.3 -0.86,-0.7 -1.05,-1.17 -0.18,-0.47 -0.18,-0.99 0.01,-1.54 0.19,-0.54 0.42,-1.11 0.67,-1.69l0.02 -0.03c0.25,-0.57 0.54,-1.14 0.85,-1.69 0.26,-0.46 0.64,-0.8 1.1,-0.96 0.44,-0.16 0.94,-0.17 1.47,-0.01l0.03 0c0.55,0.18 0.97,0.46 1.26,0.87 0.27,0.4 0.43,0.9 0.46,1.51 0.01,0.08 0,0.15 -0.02,0.23l-0.25 0.69c-0.41,1.17 -0.85,2.41 -1.77,3.48 -0.36,0.41 -0.81,0.63 -1.3,0.68zm-36.03 23.4l0.81 -0.1c0.72,-0.08 1.5,-0.17 2.26,-0.32l0.03 -0.01c0.38,-0.08 0.64,-0.24 0.8,-0.47l0.01 -0.03c0.17,-0.26 0.22,-0.63 0.17,-1.06 -0.04,-0.34 -0.22,-0.63 -0.48,-0.82 -0.26,-0.21 -0.62,-0.32 -1.01,-0.3l-1.5 0.16c-0.49,0.07 -0.99,0.14 -1.47,0.23 -0.48,0.09 -0.82,0.25 -1.01,0.49 -0.2,0.24 -0.27,0.57 -0.24,1l0.01 0.04c0.04,0.36 0.2,0.66 0.46,0.86 0.27,0.21 0.67,0.33 1.16,0.33zm0.91 0.89l-0.85 0.1c-0.75,0.02 -1.38,-0.17 -1.83,-0.53 -0.48,-0.37 -0.77,-0.9 -0.84,-1.55l-0.01 -0.06c-0.06,-0.68 0.09,-1.26 0.45,-1.71 0.35,-0.43 0.89,-0.71 1.61,-0.84 0.5,-0.09 1.01,-0.17 1.53,-0.24l1.56 -0.16c0.64,-0.04 1.23,0.15 1.68,0.5 0.46,0.35 0.78,0.87 0.86,1.47l0 0.03c0.08,0.66 -0.03,1.25 -0.32,1.72l-0.02 0.03c-0.3,0.45 -0.77,0.76 -1.43,0.9l-0.03 0.01c-0.79,0.15 -1.59,0.25 -2.34,0.33l-0.02 0zm14.48 -25.93c0.17,0.28 0.4,0.48 0.64,0.58l0.02 0c0.25,0.09 0.54,0.08 0.84,-0.03l0.02 0c0.3,-0.1 0.54,-0.26 0.7,-0.49 0.16,-0.23 0.26,-0.55 0.29,-0.99 -0.15,-0.46 -0.35,-0.98 -0.59,-1.5 -0.25,-0.59 -0.55,-1.19 -0.87,-1.79 -0.18,-0.34 -0.41,-0.56 -0.68,-0.66 -0.27,-0.1 -0.59,-0.08 -0.96,0.07l-0.04 0.01c-0.34,0.12 -0.6,0.36 -0.74,0.64l-0.02 0.04c-0.13,0.27 -0.15,0.61 -0.02,0.96l0.01 0.03c0.17,0.53 0.39,1.05 0.63,1.57 0.23,0.51 0.5,1.04 0.77,1.56zm0.29 1.51c-0.46,-0.18 -0.86,-0.52 -1.14,-1l-0.03 -0.05c-0.28,-0.52 -0.55,-1.05 -0.8,-1.61 -0.25,-0.54 -0.47,-1.09 -0.66,-1.64l-0.02 -0.04c-0.21,-0.61 -0.17,-1.22 0.07,-1.73l0.02 -0.05c0.25,-0.5 0.71,-0.91 1.29,-1.12l0.02 -0.01c0.6,-0.24 1.17,-0.26 1.67,-0.08 0.51,0.19 0.93,0.58 1.22,1.14 0.33,0.62 0.64,1.24 0.91,1.85 0.25,0.57 0.48,1.14 0.65,1.66 0.02,0.06 0.03,0.13 0.03,0.2 -0.04,0.68 -0.2,1.2 -0.48,1.6 -0.29,0.42 -0.69,0.69 -1.2,0.87 -0.53,0.18 -1.05,0.19 -1.52,0.02l-0.03 -0.01zm-15.34 12.42c1,0.36 2,0.69 2.99,0.96 0.13,0.04 0.27,0.06 0.4,0.06 0.31,0 0.59,-0.1 0.81,-0.27 0.22,-0.17 0.39,-0.42 0.47,-0.71 0.03,-0.13 0.05,-0.26 0.05,-0.4l0 -0.06c0,-0.28 -0.07,-0.53 -0.19,-0.72 -0.14,-0.2 -0.35,-0.36 -0.62,-0.47l-0.02 0c-0.49,-0.21 -1,-0.4 -1.51,-0.56 -0.52,-0.17 -1.05,-0.33 -1.57,-0.46 -0.38,-0.1 -0.75,-0.05 -1.04,0.12 -0.3,0.17 -0.54,0.47 -0.65,0.86 -0.1,0.33 -0.06,0.68 0.09,0.97 0.16,0.3 0.43,0.54 0.79,0.68zm2.73 1.93c-1.03,-0.28 -2.05,-0.62 -3.07,-0.99 -0.61,-0.23 -1.07,-0.65 -1.33,-1.15 -0.27,-0.53 -0.35,-1.14 -0.17,-1.73 0.19,-0.64 0.6,-1.14 1.12,-1.44 0.51,-0.29 1.13,-0.39 1.78,-0.22 0.55,0.14 1.09,0.3 1.63,0.48 0.53,0.17 1.07,0.37 1.58,0.58 0.46,0.18 0.84,0.47 1.09,0.85 0.24,0.36 0.36,0.81 0.36,1.3l0 0.03c0,0.23 -0.03,0.45 -0.09,0.66 -0.13,0.5 -0.43,0.93 -0.82,1.24 -0.39,0.3 -0.88,0.48 -1.42,0.48 -0.21,0 -0.43,-0.03 -0.66,-0.09zm-0.65 17.21c-0.19,0.14 -0.34,0.31 -0.44,0.49 -0.12,0.22 -0.17,0.47 -0.15,0.71 0.02,0.25 0.1,0.49 0.25,0.7l0.01 0.01c0.12,0.17 0.28,0.32 0.49,0.43 0.09,0.04 0.2,0.06 0.34,0.07 0.63,0.02 1.54,-0.31 2.38,-0.79 0.83,-0.49 1.57,-1.11 1.86,-1.67 0.06,-0.13 0.1,-0.25 0.1,-0.35 0,-0.22 -0.04,-0.44 -0.13,-0.62 -0.11,-0.23 -0.29,-0.43 -0.49,-0.56 -0.21,-0.14 -0.45,-0.22 -0.71,-0.23 -0.2,0 -0.41,0.05 -0.62,0.14 -0.5,0.24 -0.99,0.51 -1.48,0.79 -0.49,0.28 -0.96,0.58 -1.41,0.88zm-1.32 0.02c0.17,-0.32 0.42,-0.6 0.74,-0.83 0.5,-0.34 1,-0.65 1.49,-0.94 0.51,-0.29 1.03,-0.57 1.54,-0.81l0.02 -0.01c0.35,-0.17 0.71,-0.24 1.06,-0.23 0.45,0.01 0.88,0.15 1.24,0.38 0.35,0.24 0.65,0.58 0.84,0.97 0.15,0.32 0.23,0.68 0.23,1.07l0 0.02c-0.01,0.25 -0.09,0.51 -0.22,0.76 -0.37,0.74 -1.26,1.51 -2.24,2.08 -0.98,0.57 -2.09,0.96 -2.92,0.92 -0.27,-0.01 -0.53,-0.06 -0.75,-0.17l-0.02 -0.01c-0.35,-0.19 -0.63,-0.44 -0.83,-0.72l-0.02 -0.03c-0.25,-0.35 -0.4,-0.77 -0.43,-1.19l0 -0.01c-0.03,-0.43 0.06,-0.86 0.27,-1.25zm6.7 -26.94c0.2,0.17 0.42,0.25 0.64,0.27 0.25,0.02 0.52,-0.05 0.77,-0.18 0.24,-0.12 0.43,-0.29 0.55,-0.5 0.14,-0.23 0.21,-0.52 0.22,-0.87l-0.01 -0.15c-0.03,-0.07 -0.06,-0.13 -0.11,-0.19l-0.03 -0.03c-0.43,-0.56 -0.91,-1.09 -1.43,-1.56l-0.02 -0.03c-0.51,-0.45 -1.06,-0.86 -1.66,-1.21l-0.02 -0.01c-0.24,-0.12 -0.49,-0.14 -0.72,-0.08l-0.02 0.01c-0.27,0.08 -0.53,0.28 -0.74,0.56 -0.23,0.3 -0.33,0.6 -0.32,0.88 0.01,0.28 0.14,0.57 0.37,0.83 0.39,0.4 0.8,0.78 1.22,1.15 0.44,0.39 0.88,0.75 1.31,1.11zm0.56 1.27c-0.42,-0.04 -0.83,-0.2 -1.2,-0.51l-1.32 -1.11c-0.44,-0.39 -0.88,-0.79 -1.29,-1.22l0 -0.01c-0.41,-0.44 -0.63,-0.95 -0.65,-1.47 -0.02,-0.51 0.15,-1.03 0.53,-1.52 0.34,-0.45 0.78,-0.78 1.25,-0.92l0.03 -0.01c0.47,-0.14 0.98,-0.09 1.47,0.17l0.03 0.02c0.66,0.37 1.27,0.82 1.83,1.33l0.04 0.03c0.55,0.5 1.07,1.07 1.54,1.69 0.13,0.15 0.23,0.32 0.29,0.49 0.06,0.19 0.09,0.38 0.07,0.55 -0.02,0.51 -0.15,0.95 -0.36,1.31 -0.22,0.38 -0.54,0.68 -0.95,0.89 -0.43,0.21 -0.87,0.32 -1.3,0.29l-0.01 0zm16.45 -10.19c0.02,0.4 0.17,0.73 0.4,0.96 0.22,0.22 0.53,0.35 0.88,0.35l0.05 0c0.35,0 0.68,-0.13 0.92,-0.35 0.24,-0.22 0.41,-0.54 0.43,-0.9l0 -0.01c0.02,-0.53 0.04,-1.09 0.04,-1.67 0,-0.58 -0.02,-1.15 -0.04,-1.68 -0.02,-0.36 -0.19,-0.67 -0.43,-0.88 -0.25,-0.21 -0.59,-0.33 -0.96,-0.31 -0.41,0.04 -0.73,0.16 -0.93,0.36 -0.2,0.19 -0.33,0.48 -0.36,0.87 -0.03,0.31 -0.03,0.63 -0.02,0.94l-0.01 1.15c-0.01,0.38 -0.01,0.76 0.03,1.15l0 0.02zm-0.31 1.66c-0.39,-0.39 -0.65,-0.95 -0.69,-1.59 -0.04,-0.43 -0.04,-0.84 -0.03,-1.25l0.01 -1.12c0,-0.35 -0.01,-0.7 0.03,-1.06 0.06,-0.63 0.28,-1.13 0.65,-1.49 0.38,-0.37 0.91,-0.58 1.54,-0.63l0.02 0c0.64,-0.04 1.24,0.17 1.68,0.55 0.44,0.37 0.73,0.93 0.77,1.57 0.04,0.59 0.05,1.18 0.05,1.74 0,0.56 -0.01,1.14 -0.05,1.73l0 0.01c-0.04,0.64 -0.32,1.19 -0.75,1.58 -0.43,0.39 -1,0.61 -1.6,0.61l-0.04 0c-0.63,0 -1.18,-0.24 -1.59,-0.65zm-24.46 62.87c0,-2.85 -1.19,-5.47 -3.1,-7.38 -1.9,-1.91 -4.51,-3.12 -7.36,-3.13 -2.91,0 -5.55,1.18 -7.47,3.09 -1.91,1.9 -3.1,4.53 -3.1,7.42 0,2.88 1.17,5.5 3.06,7.4 1.89,1.89 4.51,3.07 7.39,3.09l0.06 0c2.89,0 5.51,-1.18 7.41,-3.06 1.91,-1.9 3.09,-4.5 3.11,-7.37l0 -0.06zm-2.39 -8.08c2.08,2.09 3.39,4.96 3.39,8.08l0 0.06c-0.02,3.14 -1.32,6 -3.4,8.07 -2.09,2.07 -4.96,3.36 -8.12,3.36l-0.06 0c-3.16,-0.02 -6.03,-1.31 -8.1,-3.39 -2.07,-2.08 -3.35,-4.95 -3.35,-8.1 0,-3.16 1.3,-6.04 3.4,-8.13 2.1,-2.09 4.99,-3.38 8.17,-3.38 3.13,0.01 5.99,1.33 8.07,3.43zm-7.86 0.33c1.74,0.09 3.36,0.75 4.64,1.81l0.04 0.03c1.26,1.05 2.21,2.51 2.61,4.21l0 0.03c0.18,0.74 0.23,1.14 -0.06,1.47 -0.28,0.32 -0.69,0.34 -1.47,0.34l-0.06 -0.01c-1.69,-0.04 -3.34,-0.74 -4.64,-1.83 -1.3,-1.1 -2.27,-2.62 -2.58,-4.3 -0.1,-0.54 -0.09,-0.96 0.15,-1.29 0.25,-0.35 0.67,-0.5 1.35,-0.46l0.02 0zm4.01 2.58c-1.13,-0.93 -2.55,-1.5 -4.07,-1.58l-0.02 0c-0.3,-0.02 -0.45,0 -0.48,0.04 -0.05,0.07 -0.03,0.26 0.02,0.53 0.27,1.44 1.11,2.76 2.24,3.72 1.14,0.95 2.57,1.56 4.03,1.6l0.75 0c0.02,-0.02 -0.06,-0.18 -0.16,-0.58l-0.01 -0.03c-0.35,-1.48 -1.17,-2.76 -2.27,-3.68l-0.03 -0.02zm-11.67 7.44c-0.49,-1.52 -0.49,-3.04 -0.05,-4.45 0.44,-1.41 1.32,-2.71 2.6,-3.77 0.21,-0.18 0.52,-0.15 0.7,0.06 0.05,0.06 0.08,0.13 0.1,0.2 0.51,2.02 1.35,3.72 2.54,5.07 1.19,1.35 2.75,2.37 4.69,3.03l0.03 0.01c0.33,0.11 0.67,0.2 1.02,0.27l0.02 0c0.35,0.07 0.71,0.12 1.08,0.15l0.18 0c0.47,-0.02 0.96,-0.04 1.12,0.66l0.01 0.04c0.03,0.24 -0.05,0.48 -0.19,0.7 -0.09,0.15 -0.21,0.29 -0.31,0.41 -0.92,1.19 -2.01,2.06 -3.25,2.57l-0.03 0.01c-1.2,0.5 -2.53,0.65 -3.98,0.43l-0.03 -0.01c-1.54,-0.23 -2.86,-0.81 -3.91,-1.71 -1.06,-0.91 -1.85,-2.14 -2.34,-3.67zm0.9 -4.15c-0.37,1.21 -0.37,2.53 0.05,3.84 0.43,1.35 1.12,2.43 2.04,3.22 0.91,0.78 2.06,1.28 3.42,1.49l0.02 0c1.27,0.19 2.43,0.06 3.45,-0.36l0.03 -0.01c1.07,-0.44 2.02,-1.21 2.84,-2.26l0.17 -0.2 -0.27 0c-0.4,-0.03 -0.8,-0.09 -1.2,-0.17l-0.01 0c-0.38,-0.08 -0.76,-0.18 -1.14,-0.31l-0.04 -0.01c-2.12,-0.71 -3.81,-1.83 -5.12,-3.31 -1.14,-1.29 -1.97,-2.86 -2.54,-4.69 -0.81,0.82 -1.38,1.76 -1.7,2.77z"/>
   <path class="fil0" d="M181.68 44.03c0.28,0.83 0.92,1.23 1.9,1.29 1.22,-0.37 2.6,-0.64 3.82,-1.32 0.71,-0.4 1.01,-1.16 0.74,-2.02 -0.28,-0.88 -0.89,-1.43 -1.81,-1.34 -1.37,0.15 -2.69,0.61 -3.94,1.25 -0.83,0.43 -0.98,1.29 -0.71,2.14l0 0z"/>
   <path class="fil0" d="M185.17 62.64c-1.07,-0.68 -2.14,-1.38 -3.3,-1.9 -0.89,-0.4 -1.69,-0.03 -2.18,0.79 -0.49,0.8 -0.42,1.66 0.28,2.24 1.04,0.86 2.2,1.59 3.49,2.02 1.19,0.4 2.35,-0.55 2.35,-1.96 -0.03,-0.34 -0.18,-0.89 -0.64,-1.19l0 0z"/>
   <path class="fil0" d="M179.42 36.51c1.13,-0.71 2.17,-1.6 2.97,-2.7 0.85,-1.16 -0.07,-2.78 -1.63,-2.84 -0.09,0.03 -0.36,0 -0.58,0.12 -1.22,0.83 -2.35,1.74 -3.24,2.94 -0.49,0.67 -0.34,1.5 0.24,2.11 0.65,0.7 1.47,0.86 2.24,0.37l0 0z"/>
   <path class="fil0" d="M168.86 120.62c-2.75,-1.47 -5.51,-2.94 -8.2,-4.47 -2.08,-1.16 -4.25,-1.68 -6.61,-1.68 -9.91,0.03 -19.82,0 -29.74,0.06 -1.16,0 -1.47,-0.37 -1.38,-1.44 0.1,-1.07 0.07,-2.14 0,-3.21 -0.06,-0.89 0.13,-1.25 1.14,-1.16 1.16,0.09 2.35,-0.03 3.55,-0.19 10.15,-1.22 17.87,-6.27 23.31,-14.87 0.83,-1.31 0.92,-2.6 0.06,-3.94 -6.21,-9.92 -15.23,-14.97 -26.92,-15.21 -0.95,0 -1.14,-0.22 -1.14,-1.13 0.03,-7.04 0.03,-14.08 0,-21.12 0,-2.75 -1.04,-3.76 -3.79,-3.76 -8.97,0 -17.93,0 -26.93,0 -2.08,0 -4.19,-0.03 -6.27,0 -1.31,0.03 -2.17,1.01 -1.9,2.14 0.28,1.23 1.14,1.59 2.3,1.56 10.52,0 21.05,0.03 31.58,-0.03 1.13,0 1.31,0.31 1.31,1.35 -0.06,6.18 -0.03,12.36 -0.03,18.51 0,0.95 0.28,2.11 -0.15,2.75 -0.4,0.59 -1.65,0.49 -2.51,0.8 -0.86,0.28 -1.19,0.21 -1.19,-0.86 0.03,-2.23 -1.14,-3.49 -3.09,-3.49 -12.89,-0.03 -25.77,-0.03 -38.65,-0.03 -1.78,0 -3.06,1.23 -3.06,3 -0.03,8.63 -0.03,17.29 -0.03,25.92 0,1.19 0.55,2.05 1.53,2.66 0.73,0.43 1.56,0.43 2.39,0.43 10.43,0 20.83,0 31.24,0 0.55,0 1.1,-0.03 1.65,0.34 3.37,2.26 7.07,3.79 11.05,4.56 0.76,0.15 0.85,0.48 0.85,1.13 -0.06,1.34 -0.09,2.72 0,4.07 0.06,0.98 -0.24,1.22 -1.19,1.19 -6.79,-0.03 -13.59,0 -20.38,0 -1.32,0 -2.57,0.18 -3.46,1.25 -0.46,0.53 -0.92,0.68 -1.59,0.68 -4.8,-0.03 -9.61,-0.03 -14.41,-0.03 -1.13,0 -2.23,-0.03 -3.34,0.03 -1.13,0.06 -1.86,0.86 -1.83,1.93 0.03,0.98 0.73,1.68 1.8,1.77 0.37,0.03 0.74,0.03 1.14,0.03 5.29,0 10.61,0.03 15.91,-0.03 1.01,-0.03 1.28,0.28 1.19,1.22 -0.09,0.83 -0.09,1.66 0,2.48 0.09,1.07 -0.18,1.47 -1.38,1.44 -3.73,-0.09 -7.46,-0.03 -11.23,-0.03 -1.83,0 -3.7,-0.03 -5.53,0 -1.17,0.03 -1.9,0.77 -1.9,1.84 0,1.04 0.73,1.8 1.87,1.89 0.33,0 0.67,0 0.97,0 5.42,0 10.81,0 16.19,0 0.43,0 0.98,-0.24 1.19,0.49 0.65,2.21 2.3,2.94 4.44,2.94 6.79,0 13.56,0.03 20.35,-0.03 1.01,0 1.22,0.31 1.19,1.22 -0.09,1.59 -0.06,3.22 0,4.81 0.03,0.85 -0.24,1.01 -1.04,1.01 -16.86,-0.03 -33.72,-0.03 -50.61,0 -0.79,0 -0.98,-0.22 -0.98,-1.01 0,-28.4 0,-56.79 0,-85.16 0,-0.91 0.28,-1.07 1.1,-1.04 2.94,0.03 5.91,0 8.88,0 1.41,0 2.29,-0.73 2.29,-1.83 0.03,-1.17 -0.85,-1.87 -2.26,-1.87 -3.31,0 -6.58,0.06 -9.88,-0.03 -1.84,-0.06 -3.06,0.61 -3.83,2.26 0,30.11 0,60.22 0,90.36 0.95,1.71 2.45,2.14 4.28,2.14 17.17,-0.03 34.34,-0.03 51.47,-0.03 0.4,0 0.77,0.03 1.13,0 2.02,-0.18 3.12,-1.31 3.15,-3.36 0.03,-2.05 0.07,-4.1 0,-6.15 -0.06,-1.01 0.22,-1.32 1.26,-1.32 10.07,0.03 20.16,0.03 30.23,0.03 2.05,0 3.98,-0.46 5.78,-1.44 2.88,-1.56 5.75,-3.15 8.66,-4.68 1.13,-0.64 2.05,-1.47 2.05,-2.84 0,-1.38 -0.92,-2.21 -2.05,-2.82l0 0zm-64.9 7.99c-2.11,-0.03 -4.19,-0.03 -6.3,0 -0.64,0 -0.86,-0.22 -0.83,-0.86 0.03,-1.44 0,-2.88 0,-4.31 0,-1.41 0.03,-2.82 0,-4.2 -0.03,-0.67 0.13,-0.95 0.86,-0.95 2.11,0.07 4.19,0.04 6.3,0 0.65,0 0.83,0.22 0.83,0.86 -0.03,2.88 -0.03,5.75 0,8.63 0,0.67 -0.24,0.83 -0.86,0.83l0 0zm-20.07 -29.22c-2.91,0 -5.84,0 -8.75,0.03 -0.67,0 -0.92,-0.16 -0.92,-0.86 0.03,-7.62 0.03,-15.24 0.03,-22.83 -0.03,-0.67 0.16,-0.82 0.8,-0.82 11.9,0.03 23.77,0 35.68,0.03 0.3,0 0.88,-0.25 0.82,0.36 -0.12,0.8 0.58,1.78 -0.64,2.36 -3,1.38 -5.66,3.3 -8.05,5.6 -1.99,1.93 -3.67,4.1 -5.08,6.46 -0.79,1.28 -0.76,2.54 0,3.82 1.26,2.05 2.66,3.95 4.5,5.85 -6.3,0 -12.33,0 -18.39,0l0 0zm17.75 -6.77c-0.49,-0.73 -0.52,-1.22 -0.03,-1.96 4.83,-7.58 13.64,-12.39 24.72,-12.36 7.83,0.28 15.42,4.38 20.9,12.46 0.43,0.61 0.46,1.07 0,1.71 -6.06,8.78 -14.38,13.13 -25.09,12.33 -8.78,-0.64 -15.55,-4.93 -20.5,-12.18l0 0zm50.88 26.99c-0.12,1.96 -0.03,1.96 -2.05,1.96 -1.8,0 -3.61,0 -5.41,0.03 -1.23,0 -2.05,0.73 -2.08,1.8 -0.03,1.11 0.79,1.87 2.11,1.9 2.14,0 4.28,0.03 6.42,-0.03 0.68,0 0.98,0.12 0.98,0.92 0,2.39 0.06,2.39 -2.35,2.39 -13.47,0 -26.9,0 -40.36,0.03 -1.04,0 -1.29,-0.28 -1.23,-1.29 0.06,-2.02 0,-2.02 2.05,-2.02 8.42,0 16.8,0 25.19,0 1.56,0 2.47,-0.82 2.32,-2.05 -0.15,-1.04 -0.92,-1.65 -2.2,-1.68 -4.38,0 -8.72,0 -13.1,0 -4.4,0 -8.78,0 -13.19,0.03 -0.85,0 -1.1,-0.22 -1.07,-1.07 0.03,-2.2 0,-2.2 2.24,-2.2 6.61,0 13.18,0 19.76,0 6.86,0 13.74,0 20.6,-0.04 1.04,0 1.43,0.19 1.37,1.32l0 0zm7.19 7.34c-1.07,0.56 -2.08,1.29 -3.42,1.47 0,-3.27 0,-6.55 0,-9.91 1.34,0.09 2.35,0.89 3.48,1.47 0.31,0.12 0.4,0.33 0.4,0.67 -0.03,1.84 -0.03,3.7 0,5.54 0,0.37 -0.12,0.61 -0.46,0.76l0 0zm4.26 -2.32c0,-0.8 0,-1.5 0,-2.3 0.76,0.22 1.4,0.71 2.17,1.14 -0.8,0.42 -1.44,0.76 -2.17,1.16l0 0z"/>
   <path class="fil0" d="M179.42 45.1c-0.25,-0.91 -0.8,-1.56 -1.81,-1.59 -0.79,-0.03 -1.44,0.31 -1.77,1.04 -0.28,0.62 -0.15,1.23 0,1.84 1.59,6.49 -0.95,13.06 -6.58,16.55 -1.53,0.98 -2.42,2.02 -2.14,3.86 0.12,0.58 -0.09,0.92 -0.77,0.85 -0.91,-0.06 -1.8,-0.03 -2.72,0 -0.61,0.04 -0.76,-0.18 -0.76,-0.76 0.03,-2.02 0.06,-4.04 0,-6.06 0,-0.58 0.24,-0.76 0.67,-0.98 1.59,-0.85 2.57,-2.23 2.72,-4.01 0.15,-1.71 0.19,-3.45 0,-5.17 -0.31,-2.87 -2.78,-4.8 -5.72,-4.62 -2.69,0.19 -4.77,2.45 -4.8,5.3 0,1.34 -0.03,2.69 0,4.07 0.03,1.5 0.52,2.99 1.8,3.7 1.68,0.92 1.78,2.2 1.62,3.73 -0.03,0.55 0.03,1.07 0,1.62 -0.06,1.01 0.43,2.36 -0.18,2.97 -0.67,0.64 -2.02,0.15 -3.09,0.21 -0.09,0 -0.15,0 -0.25,0 -0.58,0.07 -0.85,-0.21 -0.76,-0.79 0.34,-2.02 -0.77,-3.03 -2.36,-4.07 -7.83,-5.08 -9.12,-16.13 -2.78,-22.98 5.63,-6.06 14.87,-6.61 21.2,-1.25 0.25,0.18 0.43,0.36 0.68,0.55 0.94,0.79 2.02,0.79 2.75,0.03 0.76,-0.83 0.7,-1.9 -0.28,-2.82 -4.8,-4.4 -10.43,-5.96 -16.82,-4.83 -10.1,1.8 -17.17,12.36 -14.97,22.36 1.13,5.15 3.83,9.18 8.17,12.15 0.71,0.49 0.92,1.65 0.28,2.14 -1.17,0.89 -1.35,2.09 -1.32,3.4 0,1.07 0,2.14 0,3.21 0,1.32 -0.03,2.63 0,3.95 0.06,2.26 1.2,3.37 3.46,3.37 2.23,0.03 2.23,0.03 2.26,2.2 0.07,2.26 1.2,3.55 3.34,3.64 1.68,0.09 3.37,0.06 5.05,0 2.05,-0.09 3.27,-1.38 3.3,-3.37 0.06,-2.44 0.06,-2.44 2.51,-2.47 1.96,-0.03 3.18,-1.14 3.21,-3.09 0.04,-2.76 0,-5.51 0,-8.27 0,-0.98 -0.36,-1.74 -1.07,-2.38 -0.85,-0.8 -0.76,-1.75 0.16,-2.39 2.63,-1.8 4.74,-4.07 6.21,-6.88 2.32,-4.44 2.84,-9.12 1.56,-13.96l0 0zm-19.95 6.12c0.06,-0.88 0.64,-1.4 1.56,-1.4 0.89,0 1.44,0.52 1.5,1.43 0.06,0.71 0,1.41 0,2.09 0,0.67 0.06,1.31 0,1.95 -0.09,0.92 -0.58,1.41 -1.53,1.41 -0.98,0 -1.47,-0.55 -1.53,-1.41 -0.06,-1.34 -0.06,-2.72 0,-4.07l0 0zm2.35 32.9c-0.27,-0.06 -0.58,0 -0.85,0 -0.28,0 -0.58,0 -0.86,0 -1.1,0 -1.56,-0.74 -1.19,-1.78 0.15,-0.4 0.46,-0.24 0.7,-0.27 0.95,0 1.87,0.03 2.82,0 0.49,-0.03 0.67,0.09 0.73,0.64 0.06,1.04 -0.15,1.62 -1.35,1.41l0 0zm6.12 -5.76c-2.29,-0.03 -4.59,-0.03 -6.91,-0.03 -2.24,0 -4.5,-0.03 -6.76,0.03 -0.89,0.03 -1.1,-0.27 -1.07,-1.1 0.06,-1.62 0.06,-3.27 0.03,-4.92 -0.03,-0.65 0.09,-0.92 0.82,-0.92 4.65,0.03 9.27,0.03 13.92,0 0.71,0 0.89,0.21 0.86,0.88 -0.03,1.75 -0.03,3.46 0,5.18 0.03,0.73 -0.21,0.88 -0.89,0.88l0 0z"/>
   <path class="fil0" d="M74.07 111.2c0.49,0.24 1.01,0.24 1.56,0.24 5.75,0 11.5,0 17.29,0 1.83,0 3.7,0 5.54,0 4.04,0 8.07,0 12.08,-0.03 1.75,0 2.76,-1.32 2.11,-2.69 -0.52,-1.04 -1.47,-1.07 -2.44,-1.07 -11.51,0 -23.01,0 -34.55,0 -0.4,0 -0.83,0 -1.22,0.09 -0.8,0.15 -1.29,0.7 -1.38,1.53 -0.12,0.86 0.21,1.5 1.01,1.93l0 0z"/>
   <path class="fil0" d="M83.89 64.81c2.97,0 5.94,0 8.87,0 3.1,0 6.18,0 9.25,-0.03 1.34,0 2.14,-0.67 2.14,-1.81 0.03,-1.19 -0.74,-1.89 -2.08,-1.89 -6.09,0 -12.15,0 -18.24,0 -1.35,0 -2.14,0.7 -2.14,1.83 -0.03,1.17 0.79,1.87 2.2,1.9l0 0z"/>
   <path class="fil0" d="M169.69 30.69c0.76,0.46 1.59,0.43 2.14,-0.21 1.04,-1.2 1.44,-2.69 1.93,-4.01 -0.06,-1.07 -0.49,-1.68 -1.38,-1.96 -0.89,-0.27 -1.62,0.03 -2.02,0.74 -0.61,1.07 -1.1,2.2 -1.5,3.33 -0.3,0.86 0,1.62 0.83,2.11l0 0z"/>
   <path class="fil0" d="M134.93 55.38c0.95,-0.12 2.05,-0.21 3.12,-0.42 1.1,-0.22 1.53,-1.01 1.41,-2.11 -0.12,-0.95 -0.98,-1.63 -2.02,-1.57 -1.01,0.1 -2.05,0.22 -3.03,0.4 -1.22,0.22 -1.75,0.92 -1.65,2.02 0.09,1.04 0.88,1.72 2.17,1.68l0 0z"/>
   <path class="fil0" d="M149.83 30.08c0.46,0.8 1.25,1.1 2.11,0.8 0.83,-0.28 1.29,-0.86 1.35,-2.02 -0.34,-1.04 -0.89,-2.27 -1.53,-3.46 -0.46,-0.89 -1.29,-1.23 -2.27,-0.83 -0.94,0.34 -1.47,1.29 -1.1,2.3 0.37,1.1 0.89,2.17 1.44,3.21l0 0z"/>
   <path class="fil0" d="M135.05 44.25c1.01,0.36 2.02,0.7 3.03,0.98 1.26,0.33 2.36,-0.55 2.36,-1.81 0.03,-0.83 -0.4,-1.44 -1.14,-1.71 -1.01,-0.43 -2.08,-0.77 -3.15,-1.04 -1.04,-0.28 -1.99,0.3 -2.29,1.31 -0.28,0.92 0.21,1.9 1.19,2.27l0 0z"/>
   <path class="fil0" d="M137.01 62.51c-1.16,0.83 -1.04,2.51 0.21,3.19 1.38,0.7 5.36,-1.59 5.42,-3.16 0.03,-1.37 -1.38,-2.35 -2.66,-1.74 -1.01,0.49 -2.02,1.07 -2.97,1.71l0 0z"/>
   <path class="fil0" d="M142.36 36.38c0.59,0.49 1.29,0.49 1.96,0.16 0.65,-0.34 1.01,-0.92 1.04,-1.81 0.03,-0.18 -0.06,-0.46 -0.24,-0.67 -0.92,-1.2 -1.99,-2.21 -3.28,-2.94 -0.76,-0.43 -1.59,-0.12 -2.14,0.61 -0.61,0.8 -0.55,1.66 0.09,2.36 0.8,0.82 1.69,1.56 2.57,2.29l0 0z"/>
   <path class="fil0" d="M159.19 27.11c0.06,1.04 0.8,1.78 1.78,1.78 0.98,0.03 1.83,-0.71 1.9,-1.72 0.06,-1.13 0.06,-2.29 0,-3.42 -0.07,-1.01 -0.92,-1.72 -1.93,-1.66 -1.04,0.1 -1.65,0.65 -1.75,1.69 -0.06,0.58 0,1.16 -0.03,1.71 0,0.55 -0.03,1.07 0.03,1.62l0 0z"/>
   <path class="fil0" d="M135.42 91.61c0,-5.96 -4.99,-10.98 -10.96,-11.01 -6.08,0 -11.07,4.95 -11.07,11.01 0,6.03 4.89,10.96 10.95,10.99 6.09,0.03 11.08,-4.93 11.08,-10.99l0 0zm-10.8 -7.25c3.27,0.15 6.09,2.45 6.85,5.66 0.28,1.2 0.22,1.23 -1.04,1.23 -3.18,-0.07 -6.21,-2.61 -6.79,-5.73 -0.16,-0.82 0,-1.22 0.98,-1.16l0 0zm-7.13 9.36c-0.92,-2.84 0,-5.69 2.38,-7.68 1.08,4.2 3.49,7.07 7.56,8.45 0.74,0.24 1.5,0.4 2.27,0.46 0.3,0.03 0.76,-0.12 0.85,0.27 0.03,0.22 -0.21,0.52 -0.39,0.74 -1.72,2.2 -4.01,3.24 -6.8,2.81 -2.93,-0.43 -4.95,-2.17 -5.87,-5.05l0 0z"/>
   <g>
    <path class="fil0" d="M108.97 194.51l32.06 0 5.45 19.3c0.5,1.71 1.24,5.01 1.88,6.36l-46.72 0c0.64,-1.35 1.38,-4.65 1.88,-6.36 0.6,-2.06 1.2,-4.23 1.84,-6.42 1.19,-4.1 2.61,-8.62 3.61,-12.88zm-72.38 -10.54l0 -18.32 176.82 0 0 18.32c0,1.49 -1.66,2.3 -3.2,2.3l-170.41 0c-1.55,0 -3.21,-0.81 -3.21,-2.3zm-8.25 -119.56l0 120.02c0,5.36 4.91,9.69 10.09,10.07 6.17,0.45 14.23,0.01 20.61,0.01 13.74,0 27.48,0 41.22,0l-3.66 13.29c-0.6,2.15 -1.23,4.25 -1.83,6.41 -2.16,7.71 1.05,5.96 -16.04,5.96l0 8.24 92.54 0 0 -8.24c-13.49,0 -14.09,1.29 -15.05,-2.36l-6.48 -23.3c13.59,0 27.18,0 40.77,0 6.66,0 14.05,0.31 20.62,0.01 5.42,-0.24 10.53,-4.66 10.53,-10.09l0 -120.02c0,-5.22 -5.32,-10.08 -10.54,-10.08l-17.86 0 0 8.25 16.95 0c1.54,0 3.2,0.81 3.2,2.29l0 92.54 -176.82 0 0 -92.54c0,-1.48 1.66,-2.29 3.21,-2.29l16.94 0 0 -8.25 -17.86 0c-5.22,0 -10.54,4.86 -10.54,10.08z"/>
   </g>
  </g>
 </g>
</svg>
