<?xml version="1.0" encoding="UTF-8"?>
<!DOCTYPE svg PUBLIC "-//W3C//DTD SVG 1.1//EN" "http://www.w3.org/Graphics/SVG/1.1/DTD/svg11.dtd">
<!-- Creator: CorelDRAW -->
<svg xmlns="http://www.w3.org/2000/svg" xml:space="preserve" width="250px" height="250px" version="1.1" style="shape-rendering:geometricPrecision; text-rendering:geometricPrecision; image-rendering:optimizeQuality; fill-rule:evenodd; clip-rule:evenodd"
viewBox="0 0 250 250"
 xmlns:xlink="http://www.w3.org/1999/xlink"
 xmlns:xodm="http://www.corel.com/coreldraw/odm/2003">
 <defs>
  <style type="text/css">
   <![CDATA[
    .fil0 {fill:gray}
   ]]>
  </style>
 </defs>
 <g id="Layer_x0020_1">
  <metadata id="CorelCorpID_0Corel-Layer"/>
  <g id="_3099262060416">
   <path class="fil0" d="M108.34 207.96l32.07 0 5.44 19.29c0.5,1.72 1.24,5.02 1.89,6.36l-46.73 0c0.65,-1.34 1.39,-4.64 1.89,-6.36 0.6,-2.05 1.19,-4.22 1.83,-6.41 1.2,-4.1 2.62,-8.62 3.61,-12.88zm-72.38 -10.54l0 -18.32 176.83 0 0 18.32c0,1.49 -1.67,2.29 -3.21,2.29l-170.41 0c-1.54,0 -3.21,-0.8 -3.21,-2.29zm-8.24 -119.56l0 120.02c0,5.36 4.91,9.69 10.09,10.07 6.17,0.45 14.22,0.01 20.6,0.01 13.74,0 27.48,0 41.23,0l-3.67 13.28c-0.6,2.16 -1.23,4.26 -1.83,6.42 -2.15,7.71 1.06,5.95 -16.03,5.95l0 8.25 92.53 0 0 -8.25c-13.48,0 -14.08,1.3 -15.05,-2.35l-6.48 -23.3c13.59,0 27.18,0 40.77,0 6.67,0 14.05,0.3 20.62,0.01 5.42,-0.24 10.53,-4.66 10.53,-10.09l0 -120.02c0,-5.22 -5.31,-10.08 -10.53,-10.08l-17.87 0 0 8.25 16.95 0c1.54,0 3.21,0.81 3.21,2.29l0 92.54 -176.83 0 0 -92.54c0,-1.48 1.67,-2.29 3.21,-2.29l16.95 0 0 -8.25 -17.87 0c-5.22,0 -10.53,4.86 -10.53,10.08z"/>
   <path class="fil0" d="M110.17 152.07c0,-9.28 -2.71,-7.33 25.2,-7.33 4.07,0 3.21,3.14 3.21,7.33 0,1.48 -1.67,2.29 -3.21,2.29l-21.99 0c-1.54,0 -3.21,-0.81 -3.21,-2.29zm-6.87 -18.78c0,-3.33 -0.82,-6.41 4.58,-6.41l32.99 0c5.4,0 4.58,3.08 4.58,6.41 0,2.14 -1.07,3.21 -3.21,3.21l-35.73 0c-2.14,0 -3.21,-1.07 -3.21,-3.21zm18.33 -48.56l5.95 0 0 33.9 -5.95 0 0 -33.9zm-18.33 -11.91c0,-1.32 0.48,-2.63 1.27,-3.31 2.32,-2.01 8.81,-2.14 8.81,4.23l0 2.75c-2.98,0 -10.08,0.92 -10.08,-3.67zm38.48 3.67l-5.95 0c0,-7.06 -0.32,-7.79 6.41,-7.79 4.88,0 4.77,7.79 -0.46,7.79zm-46.72 -4.13c0,6.93 5.59,12.37 11.45,12.37l6.87 0 0 33.9 -5.5 0c0,-6.87 -5.83,-17.09 -10.88,-22.1l-5.54 -5.45c-7.93,-8.72 -12.85,-18.99 -12.85,-31.08 0,-5.78 1.6,-12.86 3.81,-18.14 2.01,-4.8 5.47,-9.76 8.85,-13.13 17.73,-17.62 48.6,-17.6 65.98,-0.23 12.53,12.53 16.39,31.68 9.08,49.17 -5.5,13.16 -13,15.19 -19.33,24.65 -2.18,3.24 -6.13,11.32 -6.13,16.31l-5.04 0 0 -33.9c5.73,0 10.62,0.77 14.91,-3.87 11.45,-12.36 -7.58,-28.12 -18.93,-17.55 -4.84,4.5 -4.23,7.17 -4.23,13.18l-5.95 0c0,-4.81 -0.14,-9.14 -3.53,-12.51 -7.87,-7.81 -23.04,-3.49 -23.04,8.38zm-24.74 -12.36c0,12.11 4.81,24.53 12.01,33.33l8.22 8.27c4.23,3.51 9.05,13.38 9.55,19.32 -6.54,1.75 -8.08,20.49 2.29,22.91 -2.35,10.07 1.04,18.78 10.99,18.78l21.99 0c10.03,0 13.33,-8.76 10.99,-18.78 3.41,-0.29 7.33,-5.31 7.33,-9.17 0,-4.52 0.22,-12.33 -5.04,-13.74 0.5,-6.01 4.86,-14.7 9.06,-18.89 2.79,-2.78 4.23,-3.16 8.5,-8.45 18.26,-22.63 15.67,-53.4 -5.75,-73.33 -7.71,-7.17 -22.01,-12.94 -33.34,-12.94 -15.63,0 -26.34,2.81 -38.09,12.3 -1.24,1 -2.3,2.22 -3.48,3.39 -9.37,9.37 -15.23,22.75 -15.23,37z"/>
   <path class="fil0" d="M184.84 142.91c11.58,0 9.62,1.77 9.62,-7.33 0,-2.26 -3.61,-1.37 -9.62,-1.37l0 8.7z"/>
   <path class="fil0" d="M54.29 135.58c0,9.1 -1.96,7.33 9.62,7.33l0 -8.7c-6.01,0 -9.62,-0.89 -9.62,1.37z"/>
   <path class="fil0" d="M164.69 135.58c0,8.97 -1.71,7.33 8.24,7.33 2.08,0 1.38,-2.35 1.38,-7.33 0,-2.15 -2.82,-1.37 -8.25,-1.37 -1.05,0 -1.37,0.32 -1.37,1.37z"/>
   <path class="fil0" d="M74.44 135.58c0,8.97 -1.71,7.33 8.25,7.33 2.07,0 1.37,-2.35 1.37,-7.33 0,-2.15 -2.81,-1.37 -8.24,-1.37 -1.06,0 -1.38,0.32 -1.38,1.37z"/>
  </g>
 </g>
</svg>
