<?xml version="1.0" encoding="UTF-8"?>
<!DOCTYPE svg PUBLIC "-//W3C//DTD SVG 1.1//EN" "http://www.w3.org/Graphics/SVG/1.1/DTD/svg11.dtd">
<!-- Creator: CorelDRAW -->
<svg xmlns="http://www.w3.org/2000/svg" xml:space="preserve" width="250px" height="250px" version="1.1" style="shape-rendering:geometricPrecision; text-rendering:geometricPrecision; image-rendering:optimizeQuality; fill-rule:evenodd; clip-rule:evenodd"
viewBox="0 0 250 250"
 xmlns:xlink="http://www.w3.org/1999/xlink"
 xmlns:xodm="http://www.corel.com/coreldraw/odm/2003">
 <defs>
  <style type="text/css">
   <![CDATA[
    .str0 {stroke:gray;stroke-width:2.08;stroke-miterlimit:2.61313}
    .fil0 {fill:rgb(31 41 55)}
   ]]>
  </style>
 </defs>
 <g id="Layer_x0020_1">
  <metadata id="CorelCorpID_0Corel-Layer"/>
  <g id="_3097773114448">
   <path class="fil0 str0" d="M86.05 40.01l0 85.56c0,3.86 3.07,6.82 6,6.82l67.16 0c3.58,0 6.41,-3.24 6.41,-7.23l0 -38.24c0,-3.52 -2.89,-3.7 -4.1,-2.23 -0.62,0.76 -0.46,1.37 -0.45,2.65 0.03,4.36 0.3,38.02 -0.22,39.25 -0.28,0.67 -0.86,1.26 -1.84,1.26l-66.55 0c-1.11,0 -1.86,-1.03 -1.86,-2.07l0 -85.98c0,-2.52 2.6,-2.06 4.34,-2.06l38.44 0c2.99,0 4.55,-0.03 4.55,-2.48 0,-1.16 -0.91,-2.07 -2.07,-2.07l-43.81 0c-1.52,0 -3.56,1.27 -4.29,2.12 -0.94,1.1 -1.71,2.73 -1.71,4.7zm51.34 12.79c0.84,-0.07 1.87,-0.56 2.66,-0.86 1.44,-0.54 6.98,-2.4 7.51,-3.03 0.52,-0.62 3.59,-8.9 3.89,-10.16 0.64,0.47 0.52,0.97 1.09,2.42 0.36,0.9 0.65,1.73 0.95,2.56 0.37,1.03 1.48,4.37 2,5.02 0.69,0.87 3.73,1.75 4.87,2.17l5.35 2.29c-0.68,0.06 -1.96,0.63 -2.63,0.89l-5.14 1.89c-0.92,0.35 -1.81,0.55 -2.36,1.15 -0.58,0.66 -1.64,3.94 -2.04,4.99 -0.31,0.85 -1.44,4.65 -2.09,5.14 -0.3,-1.27 -3.37,-9.55 -3.89,-10.17 -0.53,-0.62 -3.85,-1.66 -4.94,-2.09 -0.88,-0.35 -1.79,-0.65 -2.57,-0.94 -0.79,-0.29 -1.82,-0.79 -2.66,-0.86l0 -0.41zm-9.09 0.21c0,1.91 2.21,2.33 3.1,2.68l12.63 4.74c0.39,0.35 4.03,10.62 4.79,12.56 0.79,2.02 0.78,3.16 3.04,3.16 1.68,0 1.99,-1.86 2.48,-3.1l4.78 -12.58 12.61 -4.75c4.28,-1.42 4.11,-4.07 0.15,-5.38l-12.65 -4.7c-0.53,-0.4 -0.63,-1.02 -0.94,-1.96 -0.26,-0.8 -0.48,-1.3 -0.77,-2.12 -0.53,-1.49 -1.02,-2.77 -1.56,-4.23 -0.49,-1.34 -0.99,-2.79 -1.56,-4.22 -0.79,-2.01 -0.81,-3.25 -2.95,-3.25 -1.83,0 -2.09,1.77 -2.63,3.16 -0.76,1.94 -4.4,12.21 -4.79,12.56 -0.47,0.42 -13.9,5.02 -14.7,5.56 -0.41,0.29 -1.03,1.22 -1.03,1.87zm43.19 14.26c0.16,1.91 1.1,3.24 2.75,3.87 0.37,0.14 0.38,0.14 0.75,0.28l0.84 0.39c-0.73,0.17 -2.59,0.87 -3.05,1.29 -0.56,0.51 -1.09,2.19 -1.29,3.05 -1.2,-1.38 0.09,-3.26 -4.54,-4.34l1.59 -0.67c0.64,-0.25 1.04,-0.38 1.47,-0.81 0.7,-0.7 0.65,-1.27 1.06,-2.25l0.42 -0.81zm-13.43 4.34c0,2.07 1.98,2.45 3.59,3.02 5.9,2.1 4.66,0.83 6.72,6.51 0.66,1.81 1.09,3.9 3.12,3.9 2.76,0 3.47,-7.24 4.73,-8.5 0.45,-0.46 6.27,-2.27 7.16,-2.76 1.88,-1.02 1.65,-3.28 -0.04,-4.1 -0.76,-0.37 -1.57,-0.59 -2.42,-0.89 -6.28,-2.18 -4.43,-1.13 -6.59,-6.63 -0.63,-1.6 -0.93,-3.63 -2.86,-3.72 -2.23,-0.1 -2.85,3.22 -3.87,5.96 -1.56,4.18 0.05,1.83 -8.02,5.22 -0.69,0.29 -1.52,1.2 -1.52,1.99zm-55.59 37.61c0,1.21 1.06,2.27 2.27,2.27l45.26 0c2.85,0 2.85,-4.54 0,-4.54l-45.26 0c-1.21,0 -2.27,1.06 -2.27,2.27zm0 -12.4c0,1.33 0.77,2.48 2.06,2.48l45.68 0c2.54,0 2.97,-4.55 -0.83,-4.55l-43.81 0c-1.61,0 -3.1,0.77 -3.1,2.07zm0.62 -33.07c0,1.43 0.69,2.48 2.06,2.48l7.86 0 0 22.32c0,2.54 4.54,2.98 4.54,-0.82l0 -21.5 7.86 0c2.54,0 2.97,-4.54 -0.83,-4.54l-18.81 0c-1.36,0 -2.68,0.72 -2.68,2.06zm22.52 22.32c0,1.21 1.07,2.28 2.28,2.28l22.11 0c2.85,0 2.85,-4.55 0,-4.55l-22.11 0c-1.21,0 -2.28,1.06 -2.28,2.27zm43.61 -50.84l0 2.27c-1.47,0 -4.46,-0.4 -4.46,2.28 0,2.67 2.99,2.27 4.46,2.27 0,2.09 -0.44,4.34 2.48,4.34 2.29,0 2.07,-2.93 2.07,-4.34 1.38,0 4.34,0.36 4.34,-2.27 0,-2.63 -2.96,-2.28 -4.34,-2.28 0,-2.04 0.23,-4.33 -2.48,-4.33 -1.12,0 -2.07,0.94 -2.07,2.06zm-34.72 42.16c2.05,0 8.25,0.33 9.47,-0.44 1.99,-1.26 0.91,-4.1 -1,-4.1l-9.3 0c-2.54,0 -2.97,4.54 0.83,4.54zm-0.83 -11.16l4.96 0c2.54,0 2.98,-4.54 -0.82,-4.54l-3.31 0c-3.8,0 -3.37,4.54 -0.83,4.54z"/>
   <g>
    <path class="fil0" d="M108.97 186.24l32.06 0 5.45 19.3c0.5,1.71 1.24,5.01 1.88,6.36l-46.72 0c0.64,-1.35 1.38,-4.65 1.88,-6.36 0.6,-2.05 1.2,-4.23 1.84,-6.42 1.19,-4.1 2.61,-8.62 3.61,-12.88zm-72.38 -10.53l0 -18.33 176.82 0 0 18.33c0,1.48 -1.66,2.29 -3.21,2.29l-170.4 0c-1.55,0 -3.21,-0.81 -3.21,-2.29zm-8.25 -119.57l0 120.02c0,5.37 4.91,9.69 10.09,10.07 6.17,0.45 14.23,0.01 20.6,0.01 13.75,0 27.49,0 41.23,0l-3.66 13.29c-0.6,2.15 -1.23,4.25 -1.83,6.41 -2.16,7.71 1.05,5.96 -16.04,5.96l0 8.24 92.54 0 0 -8.24c-13.49,0 -14.09,1.29 -15.05,-2.36l-6.48 -23.3c13.59,0 27.18,0 40.77,0 6.66,0 14.05,0.31 20.62,0.01 5.42,-0.24 10.53,-4.65 10.53,-10.09l0 -120.02c0,-5.21 -5.32,-10.07 -10.54,-10.07l-24.58 0 0 8.24 23.66 0c1.55,0 3.21,0.81 3.21,2.29l0 92.54 -176.82 0 0 -92.54c0,-1.48 1.66,-2.29 3.21,-2.29l33.74 0 0 -8.24 -34.66 0c-5.22,0 -10.54,4.86 -10.54,10.07z"/>
   </g>
  </g>
 </g>
</svg>
