<?xml version="1.0" encoding="UTF-8"?>
<!DOCTYPE svg PUBLIC "-//W3C//DTD SVG 1.1//EN" "http://www.w3.org/Graphics/SVG/1.1/DTD/svg11.dtd">
<!-- Creator: CorelDRAW -->
<svg xmlns="http://www.w3.org/2000/svg" xml:space="preserve" width="250px" height="250px" version="1.1" style="shape-rendering:geometricPrecision; text-rendering:geometricPrecision; image-rendering:optimizeQuality; fill-rule:evenodd; clip-rule:evenodd"
viewBox="0 0 250 250"
 xmlns:xlink="http://www.w3.org/1999/xlink"
 xmlns:xodm="http://www.corel.com/coreldraw/odm/2003">
 <defs>
  <style type="text/css">
   <![CDATA[
    .str0 {stroke:gray;stroke-width:4;stroke-miterlimit:2.61313}
    .fil0 {fill:gray}
   ]]>
  </style>
 </defs>
 <g id="Layer_x0020_1">
  <metadata id="CorelCorpID_0Corel-Layer"/>
  <g id="_3097549436880">
   <g>
    <path class="fil0 str0" d="M82.58 114.09c5.95,0 9.88,3.9 9.88,8.19 0,2.88 -0.23,5.34 -2.78,7.67 -5.71,5.23 -14.87,1.69 -15.5,-6.33 -0.2,-2.46 1.13,-5.18 2.39,-6.5 1.27,-1.31 3.59,-3.03 6.01,-3.03zm2.41 22.31l-2.66 0c-3.12,-0.31 -6.24,-1.71 -8.71,-4.31 -2.73,-2.88 -5.09,0.93 -10.37,-2.62 -1.8,-1.21 -2.84,-3.42 -2.98,-5.72l0 -1.1c0.09,-1.38 0.51,-2.74 1.29,-3.88 2.67,-3.93 6.83,-3.55 11.42,-3.55 0.89,-1.33 0.6,-1.03 1.88,-2.06 0.92,-0.74 1.3,-1.07 2.35,-1.61 10.37,-5.4 16.01,3.67 17.23,3.67l64.95 0 0 4.24 -63.26 0c0.75,3.21 0.79,4.27 0,7.62l71.73 0c2.45,0 15.7,0.37 17.41,-0.37 3.65,-1.58 2.95,-7.25 -1.6,-7.25l-17.22 0c0,-2.92 -0.41,-4.24 0.85,-4.24l15.53 0c5.29,0 8.75,3.01 8.75,8.48 0,4.15 -3.41,7.32 -7.61,7.35 -10.1,0.07 -88.55,-0.32 -89.67,0.13 -0.45,0.17 -1.62,1.5 -2.04,1.91 -1.96,1.91 -4.54,3.04 -7.27,3.31zm-14.83 -13.55c0,1.41 0.03,3.14 0.56,4.23 -1.9,0 -3.29,0.14 -4.52,-0.56 -2.39,-1.35 -2.7,-4.57 -0.21,-6.43 1.18,-0.88 2.8,-0.63 4.73,-0.63 -0.36,0.75 -0.56,2.22 -0.56,3.39z"/>
    <path class="fil0 str0" d="M109.69 97.12l0 -35.3c0,-5.57 -1.55,-6.38 9.37,0.23 1.47,0.89 2.8,1.55 4.31,2.47l19.31 11.19c3.67,2.13 1.29,2.53 -6.46,6.99l-21.85 12.6c-0.83,0.5 -1.36,0.84 -2.14,1.26 -1.13,0.61 -1.22,0.86 -2.54,0.56zm-4.24 -38.13l0 36.71c0,3.99 2.2,5.65 5.93,5.65 1.56,0 26.75,-15.1 29.28,-16.47 3.78,-2.07 8,-3.88 8,-7.53 0,-2.34 -1.37,-3.76 -2.94,-4.69l-29.06 -16.69c-2.47,-1.37 -6.53,-4.67 -9.88,-1.01 -0.84,0.92 -1.33,2.36 -1.33,4.03z"/>
   </g>
   <g>
    <path class="fil0" d="M108.97 178.14l32.06 0 5.45 19.29c0.5,1.72 1.24,5.02 1.88,6.36l-46.72 0c0.64,-1.34 1.38,-4.64 1.88,-6.36 0.6,-2.05 1.2,-4.23 1.84,-6.41 1.19,-4.1 2.61,-8.62 3.61,-12.88zm-72.38 -10.54l0 -18.32 176.82 0 0 18.32c0,1.48 -1.66,2.29 -3.21,2.29l-170.41 0c-1.54,0 -3.2,-0.81 -3.2,-2.29zm-8.25 -119.56l0 120.02c0,5.36 4.91,9.69 10.09,10.07 6.17,0.45 14.23,0.01 20.6,0.01 13.75,0 27.49,0 41.23,0l-3.66 13.28c-0.6,2.16 -1.23,4.26 -1.83,6.42 -2.16,7.71 1.05,5.95 -16.04,5.95l0 8.25 92.54 0 0 -8.25c-13.49,0 -14.09,1.29 -15.05,-2.35l-6.48 -23.3c13.59,0 27.18,0 40.77,0 6.66,0 14.05,0.3 20.62,0.01 5.42,-0.24 10.53,-4.66 10.53,-10.09l0 -120.02c0,-5.22 -5.32,-10.08 -10.54,-10.08l-80.78 0 0 8.25 79.86 0c1.55,0 3.21,0.81 3.21,2.29l0 92.53 -176.82 0 0 -92.53c0,-1.48 1.66,-2.29 3.2,-2.29l90.55 0 0 -8.25 -91.46 0c-5.22,0 -10.54,4.86 -10.54,10.08z"/>
   </g>
  </g>
 </g>
</svg>
