<?xml version="1.0" encoding="UTF-8"?>
<!DOCTYPE svg PUBLIC "-//W3C//DTD SVG 1.1//EN" "http://www.w3.org/Graphics/SVG/1.1/DTD/svg11.dtd">
<!-- Creator: CorelDRAW -->
<svg xmlns="http://www.w3.org/2000/svg" xml:space="preserve" width="250px" height="250px" version="1.1" style="shape-rendering:geometricPrecision; text-rendering:geometricPrecision; image-rendering:optimizeQuality; fill-rule:evenodd; clip-rule:evenodd"
viewBox="0 0 250 250"
 xmlns:xlink="http://www.w3.org/1999/xlink"
 xmlns:xodm="http://www.corel.com/coreldraw/odm/2003">
 <defs>
  <style type="text/css">
   <![CDATA[
    .fil0 {fill:rgb(31 41 55)}
   ]]>
  </style>
 </defs>
 <g id="Layer_x0020_1">
  <metadata id="CorelCorpID_0Corel-Layer"/>
  <g id="_3097565328704">
   <g>
    <path class="fil0" d="M108.97 178.6l32.06 0 5.45 19.29c0.5,1.72 1.24,5.01 1.88,6.36l-46.72 0c0.64,-1.35 1.38,-4.64 1.88,-6.36 0.6,-2.05 1.2,-4.23 1.84,-6.41 1.19,-4.1 2.61,-8.62 3.61,-12.88zm-72.38 -10.54l0 -18.32 176.82 0 0 18.32c0,1.48 -1.66,2.29 -3.2,2.29l-170.41 0c-1.55,0 -3.21,-0.81 -3.21,-2.29zm-8.25 -119.56l0 120.02c0,5.36 4.91,9.69 10.09,10.07 6.17,0.44 14.23,0.01 20.61,0.01 13.74,0 27.48,0 41.22,0l-3.66 13.28c-0.6,2.16 -1.23,4.26 -1.83,6.42 -2.16,7.7 1.05,5.95 -16.04,5.95l0 8.25 92.54 0 0 -8.25c-13.49,0 -14.09,1.29 -15.05,-2.36l-6.48 -23.29c13.59,0 27.18,0 40.77,0 6.66,0 14.05,0.3 20.62,0.01 5.42,-0.25 10.53,-4.66 10.53,-10.09l0 -120.02c0,-5.22 -5.32,-10.08 -10.54,-10.08l-7.17 0 0 8.25 6.26 0c1.54,0 3.2,0.81 3.2,2.29l0 92.53 -176.82 0 0 -92.53c0,-1.48 1.66,-2.29 3.21,-2.29l128.43 0 0 -8.25 -129.35 0c-5.22,0 -10.54,4.86 -10.54,10.08z"/>
   </g>
   <g>
    <path class="fil0" d="M183.72 40.02l-0.11 0.09c-0.67,0.47 -1.27,1.08 -1.9,1.33l-10.68 7.51c-2.39,1.76 -5.98,4.26 -8.45,5.95l0 0c-1.05,0.72 -1.89,1.29 -2.35,1.6l-10.94 7.65c-5.76,4.09 -10.94,6.29 -10.86,12.28 0.05,4.39 -1.04,2.27 -3.51,5.96 -3.67,-0.86 -1.7,-1.41 -8.07,-1.41 -6.36,0 -11.81,4.54 -14.08,8.71 -3.03,5.55 -4.97,16.58 -5.19,23.21 -0.1,2.85 -2.34,5.11 -4.3,6.92 -12.35,11.34 -30.76,10.27 -42.27,-0.35 -2.39,-2.21 -4.92,-5.65 -6.4,-8.67 -0.86,-1.76 -1.53,-3.66 -2.03,-5.69 -0.56,-2.3 -0.71,-4.39 -1.03,-6.7 -0.19,-1.35 0.31,-5.6 0.51,-6.66 2.73,-14.08 15.23,-25.14 28.51,-25.14 7.59,0 9.88,0.34 16.6,3.73 5.83,2.95 7.74,7.14 9.7,7.14 2.86,0 4.89,-3 1.14,-6.41 -0.67,-0.61 -0.72,-0.49 -1.39,-1.06 -3.02,-2.55 -3.31,-3.1 -7.7,-5.27 -2.61,-1.3 -4.15,-2.03 -7.34,-2.84 -9.88,-2.49 -21.86,-0.88 -29.85,5.16 -10.91,8.24 -15.88,17.38 -15.88,31.81 0,13.46 8.7,25.22 20.45,31.09 14.94,7.47 34.64,3.35 44.58,-9.9 0.9,-1.21 1.52,-2.15 2.3,-3.31 2.87,0 4.41,0.35 7.01,0.35 10.44,0 18.75,-1.26 23.26,-9.35 2.65,-4.75 2.43,-7.96 1.92,-13.08 1.58,-0.42 2.21,-1.42 3.46,-2.26 1.7,-1.15 0.45,0.15 5.02,0.15 4.05,0 6.18,-3.2 8.33,-5.35 2.42,-2.43 4.59,-4.59 7.01,-7.02 2.42,-2.42 4.59,-4.59 7.01,-7.01 1.52,-1.51 4.35,-4.64 6.24,-6.25l7.47 -7.18c0.99,-1.25 2.56,-2.52 4.15,-3.99l1.18 -1.13c2.23,-2.26 4.2,-4.99 4.2,-8.71 0,-4.17 -3.95,-8.42 -8.07,-8.42 -4.24,0 -4.02,0.03 -7.65,2.52zm-62.13 71.12l-4.91 0c-1.76,0 -1.57,-0.32 -3.15,-0.35 0.08,-3.73 1.73,-11.43 2.93,-14.95 1.31,-3.88 4.5,-8.9 9.34,-8.9 5.47,0 2.91,0.02 7.36,1.06 0,3.4 2.18,5.87 4.8,7.12 2.13,1.02 1.87,0.88 1.87,4.45 0,4.01 -2.74,8.06 -5.28,9.45 -2.66,1.47 -8.7,2.12 -12.96,2.12zm20.34 -21.04c-2.95,0 -4.2,-2.47 -2.21,-4.66l1.86 -1.65c1.16,0.77 2.75,2.73 3.5,3.86 -0.47,0.71 -2.12,2.45 -3.15,2.45zm2.1 -13.32c0,-1.73 0.72,-2.38 1.81,-3.1l41.26 -28.88c1.12,-0.78 1.82,-1.69 3.57,-1.69 1.7,0 3.16,1.77 2.99,3.41 -0.22,2.24 -7.68,8.82 -9.39,10.53l-26.65 26.65c-3.93,3.94 -4.26,4.52 -7.55,0.71 -0.87,-1 -6.04,-6.82 -6.04,-7.63z"/>
    <path class="fil0" d="M93.54 102.72c0,3.35 -0.38,7.73 0.35,10.87 -1.01,-0.48 -10.21,-3.7 -10.91,-3.74 -1.04,-0.06 -9.93,3.14 -11.18,3.74 0,-2.16 -0.19,-4.83 0.1,-6.91 0.77,-5.62 -0.35,-5.47 -5.21,-11.82 -0.77,-1.01 -1.26,-1.21 -1.55,-2.3 2,-0.47 10.19,-2.63 11.32,-3.76 1.32,-1.33 4.82,-7.71 6.56,-8.87l6.06 9.03c0.74,0.71 10.45,3.51 11.47,3.6 -0.52,0.77 -1.2,1.6 -1.8,2.4 -0.63,0.84 -1.12,1.55 -1.81,2.4 -0.92,1.11 -3.4,3.83 -3.4,5.36zm-27.35 1.41c0,5.82 -2.12,15.43 5.26,15.43 1.04,0 4.63,-1.37 5.66,-1.71 7.3,-2.42 3.55,-2.7 10.69,-0.27 1.1,0.37 4.94,1.98 5.74,1.98 7.27,0 5.96,-7.23 5.96,-12.63 0,-3.16 -1.61,-1.72 2.91,-7.25 1.8,-2.2 4.1,-4.64 4.1,-7.12 0,-3.41 -2.14,-4.86 -4.86,-5.66l-8.39 -2.49c-2.61,-1.55 -8.16,-17.49 -15.36,-7.84 -0.63,0.84 -0.99,1.53 -1.54,2.31 -0.56,0.79 -1,1.31 -1.62,2.24 -0.57,0.86 -1,1.64 -1.51,2.34 -1.19,1.62 -6.3,2.57 -8.4,3.17 -2.14,0.61 -3.78,1.04 -4.91,2.81 -3.85,6.03 6.27,11.83 6.27,14.69z"/>
   </g>
  </g>
 </g>
</svg>
