<?xml version="1.0" encoding="UTF-8"?>
<!DOCTYPE svg PUBLIC "-//W3C//DTD SVG 1.1//EN" "http://www.w3.org/Graphics/SVG/1.1/DTD/svg11.dtd">
<!-- Creator: CorelDRAW -->
<svg xmlns="http://www.w3.org/2000/svg" xml:space="preserve" width="250px" height="250px" version="1.1" style="shape-rendering:geometricPrecision; text-rendering:geometricPrecision; image-rendering:optimizeQuality; fill-rule:evenodd; clip-rule:evenodd"
viewBox="0 0 250 250"
 xmlns:xlink="http://www.w3.org/1999/xlink"
 xmlns:xodm="http://www.corel.com/coreldraw/odm/2003">
 <defs>
  <style type="text/css">
   <![CDATA[
    .fil0 {fill:gray}
   ]]>
  </style>
 </defs>
 <g id="Layer_x0020_1">
  <metadata id="CorelCorpID_0Corel-Layer"/>
  <g id="_3099116139952">
   <g>
    <path class="fil0" d="M108.97 189.87l32.06 0 5.45 19.29c0.5,1.72 1.24,5.02 1.88,6.36l-46.72 0c0.64,-1.34 1.38,-4.64 1.88,-6.36 0.6,-2.05 1.2,-4.22 1.84,-6.41 1.19,-4.1 2.61,-8.62 3.61,-12.88zm-72.38 -10.54l0 -18.32 176.82 0 0 18.32c0,1.49 -1.66,2.3 -3.21,2.3l-170.41 0c-1.54,0 -3.2,-0.81 -3.2,-2.3zm-8.25 -119.56l0 120.02c0,5.36 4.91,9.69 10.09,10.07 6.17,0.45 14.22,0.01 20.6,0.01 13.75,0 27.49,0 41.23,0l-3.66 13.29c-0.6,2.15 -1.23,4.25 -1.83,6.41 -2.16,7.71 1.05,5.95 -16.04,5.95l0 8.25 92.54 0 0 -8.25c-13.49,0 -14.09,1.3 -15.05,-2.35l-6.48 -23.3c13.59,0 27.18,0 40.77,0 6.66,0 14.05,0.3 20.62,0.01 5.42,-0.24 10.53,-4.66 10.53,-10.09l0 -120.02c0,-5.22 -5.32,-10.08 -10.54,-10.08l-19.39 0 0 8.25 18.47 0c1.55,0 3.21,0.81 3.21,2.29l0 92.54 -176.82 0 0 -92.54c0,-1.48 1.66,-2.29 3.2,-2.29l19.7 0 0 -8.25 -20.61 0c-5.22,0 -10.54,4.86 -10.54,10.08z"/>
   </g>
   <path class="fil0" d="M184.04 35.06c-0.96,-0.51 -1.97,-0.7 -3.12,-0.76 -1.78,0 -3.62,0 -5.46,0.06 -0.95,0 -1.33,-0.44 -1.27,-1.4 0,-1.01 0,-2.03 0,-3.05 -0.06,-2.73 -0.95,-3.68 -3.68,-3.68 -8.01,0 -16.07,0 -24.07,0 -1.53,0 -2.67,0.57 -3.56,1.78 -1.08,1.46 -2.29,2.86 -3.24,4.38 -0.95,1.53 -2.16,1.97 -3.94,1.97 -21.91,-0.06 -43.82,-0.06 -65.73,-0.06 -0.96,0 -1.97,0 -2.93,0.31 -1.96,0.64 -2.92,1.91 -2.92,4.01 0,9.65 0,19.37 0,29.08 0,0.83 0.07,1.66 0.64,2.23 0.89,0.95 1.01,2.09 1.01,3.3 0,17.59 0,35.19 0,52.72 0,0.82 -0.06,1.58 0.13,2.41 0.32,1.27 1.08,2.1 2.48,2.16 2.67,0.19 5.33,0.19 8.06,0 1.4,-0.06 2.16,-0.95 2.42,-2.35 0.06,-0.57 0.06,-1.14 0.06,-1.65 0,-4.96 0,-9.91 0,-14.86 0,-12.77 0,-25.54 0,-38.24 0,-1.65 0.06,-1.71 1.65,-1.71 2.67,0 5.27,0 7.94,0 1.65,0 1.72,0.06 1.72,1.65 0,5.52 0,11.05 0,16.51 0,6.73 0,13.4 0,20.07 0,1.46 -0.13,1.59 -1.59,1.59 -1.34,0 -2.67,-0.07 -4,0.06 -1.53,0.07 -2.35,0.89 -2.48,2.35 -0.19,3.05 0.13,6.04 1.4,8.83 1.65,3.75 4.51,5.72 8.51,5.72 19.88,0 39.69,0 59.51,0 1.08,0 2.1,-0.19 3.05,-0.58 3.49,-1.58 5.27,-4.31 5.27,-8.12 0,-10.8 0,-21.54 0,-32.33 0,-4.77 0,-9.47 0,-14.23 0,-1.4 0.13,-1.52 1.52,-1.52 2.54,0 5.09,0 7.63,0 2.15,0 2.22,0 2.22,2.22 0,16.38 0,32.77 0,49.16 0,1.46 -0.07,2.86 0,4.32 0.06,2.22 1.02,3.11 3.24,3.24 1.78,0 3.55,0 5.33,0 3.81,0 4.58,-0.77 4.58,-4.64 0,-16.83 0,-33.73 0,-50.56 0,-1.14 -0.07,-2.22 0,-3.36 0,-0.51 0,-1.02 0.38,-1.46 0.63,-0.58 0.82,-1.4 1.08,-2.16 0,-10.23 0,-20.45 0,-30.68 -0.19,-1.14 -0.77,-2.16 -1.84,-2.73l0 0zm-110.84 91.01c-2.79,-0.06 -2.79,0 -2.79,-2.79 0,-16.9 0,-33.73 -0.06,-50.62 0,-1.02 0.19,-1.4 1.33,-1.34 2.67,0.07 2.67,0 2.67,2.74 0,8.19 0,16.38 0,24.58 0,8.76 0,17.46 0,26.23 0,0.88 -0.19,1.2 -1.15,1.2l0 0zm3.18 -59.64c0,0.7 -0.19,0.89 -0.82,0.83 -2.1,0 -4.2,0 -6.29,0.06 -0.83,0 -1.02,-0.25 -1.02,-1.01 0.06,-4.39 0.06,-8.77 0.06,-13.15 0,-4.38 0,-8.83 -0.06,-13.21 0,-0.83 0.26,-1.02 1.08,-1.02 2.03,0.07 4.13,0.07 6.16,0 0.64,0 0.89,0.07 0.89,0.83 0,8.89 0,17.78 0,26.67l0 0zm69.61 -35.18c0.32,-0.38 0.64,-0.38 1.08,-0.38 7.24,0 14.48,0 21.72,0 0.57,0 0.89,0.06 0.89,0.82 0.07,3.11 0.13,3.11 -2.98,3.11 -7.24,0 -14.48,0 -21.73,0 -0.44,0 -0.88,0 -1.58,0 1.01,-1.33 1.84,-2.41 2.6,-3.55l0 0zm-60.08 30.23c-1.46,2.86 -1.46,2.92 -1.21,5.78 -1.21,0 -2.35,0 -3.56,0 -0.5,0.06 -0.69,-0.13 -0.69,-0.63 0.06,-3.63 0.06,-7.18 0,-10.8 0,-0.51 0.19,-0.76 0.69,-0.7 0.32,0.06 0.7,0 1.08,0 0.77,0 1.72,-0.25 2.29,0.13 0.63,0.38 -0.13,1.27 -0.06,2.03 0.12,1.21 0.5,2.35 1.2,3.36 0.13,0.26 0.45,0.39 0.26,0.83l0 0zm-4.39 -10.42c-0.88,0 -1.07,-0.25 -1.07,-1.08 0.06,-3.3 0.06,-6.6 0,-9.97 0,-0.89 0.25,-1.08 1.14,-1.08 9.08,0.07 18.23,0 27.31,0 9.02,0 18.04,0.07 27.06,0 1.08,0 1.27,0.32 1.27,1.27 -0.07,3.31 -0.07,6.61 0,9.91 0,0.76 -0.19,0.95 -1.02,0.95 -18.23,0 -36.46,0 -54.69,0l0 0zm7.82 15.69c-1.15,-0.89 -0.83,-2.73 0.44,-3.3 0.64,-0.25 0.89,-0.19 0.83,0.51 -0.07,0.44 0,0.89 0,1.33 0,0.26 0,0.57 0,0.89 -0.07,0.38 0.19,0.83 -0.13,1.02 -0.44,0.19 -0.83,-0.13 -1.14,-0.45l0 0zm52.01 57.29c-15.94,0 -31.88,0 -47.76,0.06 -4.38,0 -6.09,-1.52 -6.79,-6.22 -0.26,-1.91 -0.19,-1.91 1.77,-1.91 17.15,0 34.3,0 51.45,-0.06 1.08,0 1.33,0.32 1.27,1.33 -0.19,2.35 0.06,4.64 1.52,6.8 -0.63,0 -1.07,0 -1.46,0l0 0zm-35.18 -12.19c0.32,-0.51 0.63,-0.89 0.89,-1.27 3.74,-4.89 7.56,-9.85 11.3,-14.74 0.51,-0.7 0.7,-0.95 1.4,-0.13 4.19,5.21 8.45,10.36 12.7,15.5 0.13,0.13 0.26,0.32 0.45,0.64 -8.96,0 -17.79,0 -26.74,0l0 0zm49.28 -2.35c0,3.3 0,6.6 0,9.84 0,2.79 -1.46,4.51 -3.93,4.7 -3.18,0.25 -5.72,-1.52 -6.04,-4.19 -0.19,-1.78 -0.06,-3.49 -0.12,-5.27 0,-2.04 -0.64,-2.67 -2.67,-2.67 -0.45,0 -0.89,-0.06 -1.27,0 -2.29,0.38 -3.75,-0.51 -5.08,-2.35 -1.72,-2.41 -3.69,-4.64 -5.59,-6.86 -0.45,-0.57 -0.57,-0.89 -0.07,-1.52 4.01,-5.15 8.07,-10.36 12.01,-15.57 0.51,-0.69 0.76,-0.95 1.46,-0.12 3.56,4.13 7.18,8.25 10.73,12.32 0.45,0.51 0.64,0.95 0.64,1.59 -0.07,3.36 -0.07,6.73 -0.07,10.1l0 0zm0 -17.79c0,0.13 0,0.19 -0.06,0.45 -3.43,-3.94 -6.73,-7.69 -10.03,-11.5 -1.53,-1.71 -2.74,-1.71 -4.13,0.13 -4.38,5.65 -8.77,11.37 -13.09,17.02 -0.57,0.76 -0.82,0.76 -1.39,0 -1.91,-2.41 -3.94,-4.76 -5.91,-7.11 -1.27,-1.59 -2.54,-1.53 -3.75,0.06 -5.14,6.67 -10.29,13.4 -15.37,20.07 -0.57,0.83 -1.14,1.14 -2.16,1.08 -1.33,-0.06 -2.66,-0.06 -4,0 -0.63,0 -0.95,-0.13 -0.89,-0.83 0,-5.52 0,-11.11 -0.06,-16.64 0,-0.7 0.32,-0.82 0.89,-0.82 3.11,0.06 6.22,0.06 9.27,0 3.43,0 6.03,-2.61 6.1,-5.97 0.06,-3.37 -2.48,-6.16 -5.84,-6.1 -1.97,0 -3.43,-0.25 -4.51,-2.22 -1.02,-1.84 -2.93,-2.92 -5.02,-3.5 -0.64,-0.19 -0.89,-0.44 -0.89,-1.14 0.06,-3.49 0.06,-7.05 0.06,-10.54 0,-0.57 -0.06,-0.95 0.76,-0.95 5.85,0.06 11.69,0.06 17.53,0.06 0.07,0 0.19,0 0.32,0.06 -2.28,3.75 -3.11,7.69 -1.9,11.88 0.89,3.17 2.73,5.72 5.33,7.62 5.34,3.87 12.64,3.56 17.59,-0.64 4.58,-3.93 7.12,-11.43 2.61,-18.79 0.19,-0.26 0.51,-0.13 0.76,-0.13 5.59,0 11.24,0 16.83,-0.06 0.64,0 1.02,0.06 1.02,0.88 -0.07,9.21 -0.07,18.42 -0.07,27.63l0 0zm-60.78 -11.87c1.84,0.76 2.99,1.96 3.62,3.74 0.64,1.72 1.02,1.97 2.8,1.97 1.2,0 2.35,0 3.55,0 1.27,0.06 2.1,0.83 2.16,1.91 0,1.14 -0.76,2.09 -1.97,2.09 -3.23,0.07 -6.41,0 -9.65,0.07 -0.63,0 -0.51,-0.45 -0.51,-0.83 0,-2.92 0,-5.84 0,-8.95l0 0zm23.69 -16.07c0.45,-0.38 0.89,-0.57 1.46,-0.57 1.78,0.06 3.5,0.06 5.21,0.06 1.65,0 3.3,0 4.89,-0.06 0.89,-0.07 1.59,0.25 2.16,0.88 3.11,2.99 3.94,7.75 2.03,11.69 -1.97,4.07 -6.03,6.16 -10.73,5.53 -4,-0.51 -7.56,-4 -8.26,-8.07 -0.57,-3.68 0.45,-6.92 3.24,-9.46l0 0zm41.92 3.3c-0.44,0.25 -0.76,0.32 -0.76,-0.44 0.06,-1.08 0,-2.17 0,-3.37 1.21,0.19 1.9,0.76 1.97,1.84 0.06,0.95 -0.32,1.59 -1.21,1.97l0 0zm-0.51 -7.94c-0.38,0.06 -0.82,0.06 -1.2,0.06 -22.36,0 -44.65,0 -67.01,0 -0.51,0 -1.02,0 -1.52,-0.12 -1.02,-0.38 -1.47,-1.08 -1.4,-2.1 0.06,-1.08 0.76,-1.65 1.71,-1.78 0.38,-0.06 0.77,-0.06 1.08,-0.06 11.24,0 22.42,0 33.66,0 11.31,0 22.62,0 33.98,0 1.53,0 2.35,0.63 2.42,1.84 0.06,1.14 -0.57,1.97 -1.72,2.16l0 0zm-4.38 -8.07c-4.38,0 -8.76,0 -13.08,0 -0.77,0 -1.02,-0.12 -1.02,-0.95 0.06,-3.43 0.06,-6.79 0,-10.22 0,-0.83 0.32,-0.96 1.02,-0.96 8.76,0.07 17.59,0.07 26.36,0 0.69,0 1.01,0.13 1.01,0.96 -0.06,3.43 -0.06,6.79 0,10.22 0,0.83 -0.25,0.95 -1.01,0.95 -4.45,0 -8.9,0 -13.28,0l0 0zm14.29 15.25c0,0.82 -0.25,1.01 -1.01,0.95 -1.02,-0.06 -2.1,0 -3.31,0 0.32,-1.46 0.64,-2.99 -0.19,-4.19 -0.89,-1.34 -0.89,-2.35 0,-3.69 0.76,-1.27 0.64,-2.73 0.19,-4.12 0.07,-0.07 0.13,-0.07 0.19,-0.07 1.34,0 2.99,-0.44 3.88,0.19 0.76,0.51 0.19,2.35 0.25,3.62 0,2.42 -0.06,4.89 0,7.31l0 0zm8.77 59.76c-2.67,-0.12 -2.67,-0.06 -2.67,-2.73 0,-8.19 0,-16.38 0,-24.58 0,-8.76 0,-17.53 0,-26.23 0,-0.89 0.13,-1.27 1.14,-1.21 2.86,0.07 2.86,0 2.86,2.93 0,16.76 -0.06,33.59 0,50.43 0,1.01 -0.13,1.39 -1.33,1.39l0 0zm3.36 -72.91c0,4.38 0,8.76 0.07,13.15 0,0.76 -0.2,1.01 -1.02,1.01 -2.03,-0.06 -4.06,-0.06 -6.16,0 -0.76,0 -0.95,-0.19 -0.95,-1.01 0,-8.83 0,-17.6 0,-26.42 0,-0.77 0.12,-0.96 0.88,-0.96 2.1,0.07 4.13,0.07 6.17,0 0.82,0 1.08,0.19 1.08,1.02 -0.07,4.38 -0.07,8.83 -0.07,13.21l0 0z"/>
  </g>
 </g>
</svg>
