<?xml version="1.0" encoding="UTF-8"?>
<!DOCTYPE svg PUBLIC "-//W3C//DTD SVG 1.1//EN" "http://www.w3.org/Graphics/SVG/1.1/DTD/svg11.dtd">
<!-- Creator: CorelDRAW -->
<svg xmlns="http://www.w3.org/2000/svg" xml:space="preserve" width="250px" height="250px" version="1.1" style="shape-rendering:geometricPrecision; text-rendering:geometricPrecision; image-rendering:optimizeQuality; fill-rule:evenodd; clip-rule:evenodd"
viewBox="0 0 250 250"
 xmlns:xlink="http://www.w3.org/1999/xlink"
 xmlns:xodm="http://www.corel.com/coreldraw/odm/2003">
 <defs>
  <style type="text/css">
   <![CDATA[
    .fil0 {fill:gray}
    .fil1 {fill:gray;fill-rule:nonzero}
   ]]>
  </style>
 </defs>
 <g id="Layer_x0020_1">
  <metadata id="CorelCorpID_0Corel-Layer"/>
  <g id="_3097575784880">
   <path class="fil0" d="M122.21 83.18c1.39,-0.37 3.02,-1.94 4.33,-2.29 0.23,0.86 8.41,11.56 9.33,12.78 0.6,0.8 1.07,1.4 1.64,2.18 0.48,0.66 1.3,1.64 1.48,2.33 -0.02,0.03 -2.7,2.79 -3.3,2.79 -0.65,0 -1.45,-1.42 -1.85,-1.96l-11.63 -15.83zm-20.59 -9.16c0,-7.09 4.28,-8.63 8.44,-11.13 0.86,-0.52 3.49,-2.13 4.27,-2.34l9.92 17.29c-4.44,2.35 -8.48,5.91 -13.01,5.64 -5.72,-0.34 -9.62,-4.71 -9.62,-9.46zm16.53 -14.74l4.52 -3.62c0.63,-0.54 0.89,-0.65 1.52,-1.27l6.86 -6.61c0.58,-0.62 0.66,-0.91 1.27,-1.53 1.57,-1.62 6.49,-7.96 6.93,-9.6 1.09,0.8 13.6,23.32 15.96,27.26 0.81,1.34 1.63,2.66 2.34,4.01 -5.41,0 -12.08,1.14 -16.47,2.34l-10.55 3.44c-1.09,0.42 -2.44,1.1 -3.48,1.34l-8.9 -15.76zm40.93 -18.3c5.78,-2.78 8.55,6.49 4.32,7.62 -1.38,-2.61 -2.95,-5.03 -4.32,-7.62zm-19.07 -11.44l0 -1.27c0,-1.44 1.87,-3.06 3.31,-3.06 2.82,0 3.69,2.25 4.75,4.15 1.12,2.01 2.28,3.88 3.37,5.78l16.71 29.05c1.04,1.87 2.93,4.06 0.92,6.35 -1.6,1.83 -4.47,1.81 -5.82,-0.17l-21.79 -37.71c-0.61,-1.08 -1.45,-2.16 -1.45,-3.12zm-3.81 -0.77c0,3.19 1.01,3.07 1.01,4.07 0,0.72 -3.57,5.87 -4.21,6.72 -1.39,1.85 -6.1,7.54 -7.81,8.97 -0.66,0.55 -0.87,0.63 -1.52,1.28 -1.06,1.06 -7.15,6.42 -7.56,6.42 -1.37,0 -0.24,-0.49 -1.6,-0.09l-10.2 5.83c-2.86,1.86 -4.79,4.35 -5.83,7.63 -2.67,8.39 3.34,17.64 13.82,17.64 2.76,0 4.79,-1.07 6.61,-2.03 0.55,0.81 1.21,1.61 1.85,2.47l9.55 12.82c3.23,4.3 4.8,6.21 9.51,2.06 4.69,-4.13 2.71,-6.02 -0.36,-10.19l-10.38 -14.02c6.16,-3.26 20.23,-6.61 26.95,-6.61 5.92,0 2.35,-0.45 5.91,2.47 2.5,2.06 7.01,1.77 9.54,-0.75 1.94,-1.92 2.09,-3.65 2.09,-6.04 0,-2.08 -2.72,-5.86 -3.82,-7.89 -1.39,-2.58 -2.93,-4.99 -4.32,-7.62 5.81,-3.07 5.41,-15 -5.34,-15 -1.21,0 -1.97,0.51 -3.05,0.76l-3.92 -7.01c-0.89,-1.52 -3.3,-5.89 -4.27,-6.92 -4.32,-4.6 -12.65,-1.64 -12.65,5.03zm16.27 113.89l-27.71 0c-0.59,0 -0.77,-0.17 -0.77,-0.76l0 -20.59c0,-1.14 1.59,-0.78 2.8,-0.77l26.44 0.01c0.61,2.62 0.25,17.28 0.25,21.1 0,0.59 -0.42,1.01 -1.01,1.01zm-72.96 -2.79l0 0zm0 0c0.03,-1.45 0.91,-4.66 1.26,-6.11 0.51,-2.07 0.93,-3.99 1.43,-6.2 1.3,-5.73 1.66,-3.74 -5.35,-7.92 -2.75,-1.64 -3.25,-2.4 -5.19,-3.96 -0.49,-0.39 -0.62,-0.4 -1.13,-0.91l-3.37 -4.25c-0.51,-0.77 -1.03,-1.65 -1.38,-2.43 -3.88,-8.72 -1.69,-15.66 3.89,-22.3 4.61,-5.48 14.84,-10.28 22.2,-11.86 2.09,-0.45 1.25,-0.25 2.64,-1.18l0 -1.78c-1.76,-1.17 -0.79,-1.33 -4.89,-0.3 -1.99,0.5 -3.43,0.99 -5.25,1.6 -8.7,2.91 -18.95,10.05 -22.44,18.75 -5.31,13.19 2.07,24.96 12.7,31.61 1.46,0.91 3.02,1.59 4.37,2.49l-3.46 14.85c-0.48,1.9 -0.86,3.21 -0.86,5.49 2.31,1.55 2.4,0.67 5.18,-1.17l18.7 -13.08c0.99,-0.66 1.83,-0.64 3.46,-0.39 6.32,0.98 16.55,-1.38 18.42,-1.38 0,3.99 0.02,7.98 -0.01,11.96 -0.02,2.29 0.34,3.17 1.72,4.12 1.48,1.03 3.07,0.7 5.4,0.7 7.97,0 15.94,-0.03 23.9,0 5.06,0.03 5.6,-1.58 5.59,-6.35l0.01 -17.8c0.05,-6.71 -4.88,-5.34 -12.97,-5.34 0.51,-0.75 1.29,-1.58 1.92,-2.39 2.06,-2.63 3.67,-5.78 4.54,-9.19 2.5,-9.82 -2.52,-19.56 -9.66,-25.13 -0.8,-0.63 -1.59,-1.75 -3.05,-1.34 -1.22,0.34 -2.31,1.85 0.29,3.84 1.94,1.48 4.02,3.7 5.45,5.74 5.35,7.58 5.25,16.06 -0.32,23.57 -4.92,6.63 -5.44,4.9 -13.15,4.9 -3.14,0 -6.32,-0.42 -8.19,0.97 -2.07,1.54 -1.47,4.25 -1.47,7.68 -3.03,1.45 -14.82,2.12 -19.06,1.76 -4.38,-0.36 -3.22,-0.04 -9.37,4.13l-10.32 7.22c-0.69,0.46 -1.5,1.19 -2.18,1.38zm-11.7 -109.83l1.84 -1.72c4.2,2.77 8.6,1.25 9.86,-4.12l2.54 0c0.34,4.08 4.93,7.4 9.91,4.07l1.58 1.72c-0.26,0.99 -3.02,4.51 0.38,8.01 0.98,1 2.16,1.82 3.89,1.96l0 2.54c-3.07,0.26 -5.59,2.95 -5.59,6.1 0,1.6 0.97,2.54 1.27,3.82l-1.47 1.58c-0.91,-0.26 -2.61,-1.33 -3.62,-1.33 -3.2,0 -6.28,2.5 -6.35,5.59l-2.54 0c-0.15,-1.72 -0.96,-2.91 -1.96,-3.89 -2.55,-2.47 -5.36,-1.91 -7.96,-0.17l-1.72 -1.84c3.22,-4.9 -0.01,-9.52 -4.13,-9.86l0 -2.54c5.4,-1.26 6.88,-5.72 4.07,-9.92zm5.85 -4.06c-2.43,0 -1.06,-1.53 -4.32,-1.53 -1.39,0 -5.34,3.96 -5.34,5.34 0,3.26 1.52,1.9 1.52,4.32 0,3.08 -5.33,1.27 -5.33,4.83 0,4 -0.72,6.49 2.51,7.15 5.49,1.12 1.3,4.23 1.3,5.82 0,2.31 0.65,2.3 2.35,4 1.05,1.05 1.56,2.1 3.5,2.1 1.53,0 3.47,-2.85 5.38,-0.8 0.84,0.9 0.28,4.61 3.51,4.61 3.28,0 6.08,0.63 6.85,-2.3 0.5,-1.91 0.31,-3.04 2.56,-3.04 2.63,0 2.52,3.97 7.18,-0.7 4.67,-4.66 0.7,-4.41 0.7,-7.43 0,-2.76 2.96,-1.52 4.51,-3.12 1.21,-1.26 0.83,-3.72 0.83,-6.03 0,-1.51 -1.11,-2.55 -2.48,-2.86 -0.59,-0.14 -1.47,-0.15 -2,-0.54 -2.28,-1.68 0.67,-4.13 0.67,-5.5 0,-1.93 -1.05,-2.45 -2.1,-3.5 -1.7,-1.69 -1.69,-2.35 -4.01,-2.35 -1.29,0 -4.77,4.11 -5.77,-1.08 -0.67,-3.45 -2.69,-2.73 -7.19,-2.73 -1.45,0 -2.31,1.2 -2.6,2.48 -0.09,0.38 -0.32,2.86 -2.23,2.86zm100.16 59.48c0,-0.95 2.24,-4.87 3.31,-5.59 1.33,0.31 2.95,1.62 3.67,2.68 2.56,3.77 0.99,9.78 -0.55,13.41 -2.36,5.56 -9.06,16.45 -15.33,16.45 -1.69,0 -5.59,-0.41 -5.59,-1.78 0,-0.94 1.52,-3.32 2.17,-4.44 1.66,-2.87 1.95,0.38 5.71,0.38 3.61,0 7.13,-6.64 8.56,-9.5 0.79,-1.57 2.43,-4.71 2.23,-6.66 -0.38,-3.62 -4.18,-3.96 -4.18,-4.95zm-3.81 0c0,1.97 1.39,3.22 2.81,4.06 0.72,0.42 0.9,0.62 1.51,1.03 -0.19,2.32 -5.55,12.2 -7.12,12.2 -1.96,0 -5.67,-4.45 -9.06,1.87 -1.37,2.53 -5.12,6.83 -0.08,9.82 8.42,4.99 16.4,-1.66 20.74,-8.23 4.07,-6.16 6.96,-11.46 6.96,-19.47 0,-6.88 -8.5,-15.01 -12.92,-7.59 -0.61,1.03 -1.04,1.85 -1.68,2.9 -0.62,1 -1.16,1.9 -1.16,3.41zm-96.35 -43.98c0,-9.99 14.24,-9.83 14.24,0.26 0,5.18 -7.36,9.31 -12.15,4.52 -1.19,-1.19 -2.09,-2.49 -2.09,-4.78zm-3.81 -0.5c0,4.76 2.59,8.39 6.42,10.1 11.18,5.01 20.52,-9.23 12.21,-17.55 -7.18,-7.17 -18.63,-1.4 -18.63,7.45zm12.45 65.33c0,1.52 1.03,2.03 2.54,2.03l41.95 0c2.98,0 3,-3.81 0.26,-3.81l-42.71 0c-1.09,0 -2.04,0.78 -2.04,1.78zm0 -13.22c0,1.23 0.81,2.04 2.04,2.04l31.01 0c2.75,0 2.75,-3.82 0,-3.82l-31.01 0c-1.09,0 -2.04,0.79 -2.04,1.78zm53.14 41.19l0 -5.34c1.09,0.57 3.97,1.97 4.57,2.79 -0.9,0.21 -3.77,2 -4.57,2.55zm-3.56 -8.65l0 12.2c0,0.58 0.81,2.22 3.32,0.79l9.03 -5.21c4.09,-2.41 -1.54,-4.59 -4.11,-6.11 -2.5,-1.47 -8.24,-5.76 -8.24,-1.67zm41.94 -75.5c0,1.03 0.2,2.29 2.04,2.29l7.88 0c2.75,0 2.75,-3.82 0,-3.82l-7.88 0c-0.93,0 -2.04,0.7 -2.04,1.53zm-10.17 -18.56c1.42,0 2.34,-2.41 3.23,-3.89 1.03,-1.73 5.05,-7.04 0.59,-7.04 -0.95,0 -1.73,1.64 -2.18,2.4 -0.67,1.11 -1.12,1.93 -1.78,3.04 -0.35,0.58 -0.5,0.93 -0.83,1.47 -1.63,2.66 -0.52,4.02 0.97,4.02zm8.65 6.1c0,1.1 1.06,1.53 2.03,1.53 1.03,0 4.34,-2.26 5.34,-2.8 1.21,-0.65 4.9,-2.36 2.53,-4.32 -1.37,-1.13 -2.94,0.32 -5.41,1.7 -2.26,1.26 -4.49,2.19 -4.49,3.89z"/>
   <path class="fil1" d="M121.95 82.17c0.54,-0.14 1.24,-0.59 1.92,-1.04 0.81,-0.52 1.6,-1.03 2.4,-1.25l1 -0.27 0.27 1.01c0.15,0.55 6.18,8.5 8.41,11.44l2.67 3.54c0.53,0.7 1.18,1.56 1.38,2.31l0.12 0.47 -0.28 0.4c-0.02,0.03 -1.32,1.38 -2.34,2.25 -0.66,0.56 -1.32,0.98 -1.81,0.98 -1.07,0 -1.87,-1.18 -2.43,-2.01 -4.07,-5.85 -8.55,-11.67 -12.78,-17.43l1.47 -0.4zm3.05 0.7c-0.39,0.26 -0.78,0.51 -1.18,0.74l10.85 14.78 0.31 0.45c0.31,0.45 0.68,1.09 0.71,1.09 0.08,0 0.14,-0.21 0.47,-0.49 0.57,-0.48 1.2,-1.09 1.6,-1.48 -0.21,-0.34 -0.53,-0.75 -0.8,-1.11l-2.67 -3.54c-1.91,-2.52 -6.52,-8.61 -8.17,-11.12 -0.35,0.19 -0.73,0.43 -1.12,0.68zm-24.42 -8.85c0,-6.89 3.62,-8.96 7.55,-11.21l1.65 -0.97c1.07,-0.65 3.42,-2.06 4.29,-2.29l0.77 -0.21 10.85 18.91 -0.96 0.51c-1.1,0.58 -2.23,1.27 -3.34,1.96 -3.31,2.04 -6.53,4.02 -10.21,3.8 -3.05,-0.19 -5.64,-1.42 -7.49,-3.24 -1.97,-1.94 -3.11,-4.54 -3.11,-7.26zm8.58 -9.41c-3.38,1.95 -6.49,3.73 -6.49,9.41 0,2.16 0.91,4.23 2.48,5.78 1.51,1.48 3.63,2.49 6.15,2.64 3.02,0.18 5.97,-1.63 9,-3.49 0.82,-0.51 1.66,-1.02 2.52,-1.51l-8.93 -15.57c-0.9,0.47 -2.29,1.31 -3.04,1.76l-1.69 0.98zm8.34 -6.14l4.48 -3.59c0.28,-0.24 0.49,-0.4 0.69,-0.55 0.24,-0.19 0.46,-0.36 0.79,-0.68l6.85 -6.6c0.22,-0.24 0.36,-0.43 0.5,-0.61 0.19,-0.27 0.39,-0.53 0.76,-0.92 0.87,-0.89 2.81,-3.29 4.4,-5.49 1.16,-1.61 2.12,-3.07 2.27,-3.64l0.39 -1.47 1.23 0.9c0.94,0.68 7.26,11.81 11.86,19.9 2,3.52 3.67,6.46 4.39,7.65l0.43 0.73c0.67,1.1 1.32,2.18 1.93,3.34l0.81 1.52 -1.73 0c-2.48,0 -5.22,0.25 -7.88,0.62 -3.05,0.44 -5.98,1.05 -8.27,1.67l-10.54 3.43 -1.02 0.43c-0.86,0.37 -1.76,0.76 -2.56,0.94l-0.75 0.18 -9.72 -17.21 0.69 -0.55zm5.81 -2l-3.82 3.07 8.05 14.26c0.46,-0.17 0.98,-0.39 1.48,-0.6 3.54,-1.47 8.18,-2.97 11.79,-3.94 2.39,-0.65 5.43,-1.29 8.57,-1.74 2.14,-0.3 4.34,-0.52 6.42,-0.6l-1.48 -2.48c-0.73,-1.22 -2.4,-4.17 -4.41,-7.7 -3.71,-6.53 -8.57,-15.08 -10.49,-18.12 -0.47,0.77 -1.09,1.68 -1.76,2.62 -1.65,2.28 -3.68,4.78 -4.6,5.73 -0.27,0.28 -0.43,0.5 -0.59,0.71 -0.17,0.23 -0.35,0.48 -0.66,0.81l-6.9 6.65c-0.41,0.41 -0.68,0.61 -0.98,0.84 -0.16,0.12 -0.35,0.26 -0.58,0.47l-0.04 0.02zm35.32 -16.43c2.46,-1.18 4.51,-0.57 5.91,0.79 0.66,0.64 1.17,1.45 1.49,2.3 0.33,0.85 0.48,1.76 0.45,2.62 -0.08,1.79 -0.96,3.36 -2.81,3.86l-0.8 0.21 -0.39 -0.73c-0.7,-1.33 -1.43,-2.57 -2.15,-3.8 -0.75,-1.28 -1.5,-2.56 -2.17,-3.83l-0.51 -0.95 0.98 -0.47zm4.47 2.28c-0.63,-0.6 -1.48,-0.95 -2.52,-0.76 0.51,0.92 1.02,1.8 1.54,2.69 0.58,0.98 1.16,1.97 1.7,2.95 0.37,-0.37 0.55,-0.92 0.58,-1.53 0.03,-0.58 -0.08,-1.21 -0.31,-1.8 -0.22,-0.59 -0.56,-1.13 -0.99,-1.55zm-24.13 -12.78l0 -1.27c0,-1.01 0.59,-2.04 1.41,-2.8 0.83,-0.76 1.94,-1.3 2.94,-1.3 3.14,0 4.25,2.07 5.32,4.07l0.34 0.62c0.59,1.06 1.26,2.19 1.92,3.3l1.44 2.46c5.71,9.93 11.33,20.02 17.18,29.85 1.2,1.98 2.55,4.22 0.33,6.76 -0.28,0.32 -0.6,0.6 -0.94,0.83 -0.88,0.61 -1.91,0.89 -2.92,0.86 -1.03,-0.04 -2.04,-0.41 -2.84,-1.11 -0.28,-0.24 -0.54,-0.53 -0.76,-0.86 -7.71,-12.47 -14.77,-25.83 -22.27,-38.51 -0.58,-0.94 -1.15,-1.88 -1.15,-2.9zm2.08 -1.27l0 1.27c0,0.45 0.42,1.13 0.84,1.82l22.23 38.44c0.12,0.17 0.25,0.32 0.4,0.44 0.43,0.38 0.98,0.58 1.54,0.6 0.58,0.02 1.17,-0.15 1.68,-0.49 0.2,-0.14 0.38,-0.3 0.55,-0.49 1.22,-1.4 0.29,-2.95 -0.55,-4.32l-17.2 -29.88 -1.43 -2.44c-0.63,-1.05 -1.26,-2.12 -1.95,-3.36l-0.34 -0.63c-0.79,-1.46 -1.6,-2.97 -3.5,-2.97 -0.47,0 -1.05,0.3 -1.53,0.74 -0.43,0.4 -0.74,0.87 -0.74,1.27zm-3.81 0.5c0,1.76 0.33,2.29 0.56,2.68 0.26,0.41 0.46,0.74 0.46,1.39 0,0.49 -0.58,1.57 -1.33,2.77 -1.14,1.81 -2.7,4.05 -3.1,4.58 -0.82,1.09 -2.79,3.51 -4.61,5.6 -1.32,1.52 -2.6,2.9 -3.36,3.54l-0.61 0.47c-0.26,0.21 -0.47,0.37 -0.84,0.74 -0.63,0.63 -2.98,2.73 -4.91,4.37 -1.54,1.31 -2.94,2.36 -3.39,2.36 -0.55,0 -0.91,-0.08 -1.14,-0.19l-10.14 5.79c-1.31,0.86 -2.41,1.86 -3.29,3.01 -0.9,1.18 -1.59,2.52 -2.08,4.04 -0.39,1.22 -0.57,2.48 -0.57,3.73 0,2.61 0.83,5.13 2.35,7.23 1.52,2.1 3.74,3.77 6.5,4.64 1.37,0.44 2.9,0.68 4.56,0.68 1.25,0 2.34,-0.24 3.31,-0.59 0.99,-0.36 1.93,-0.85 2.82,-1.32l0.82 -0.44 0.52 0.78c0.34,0.5 0.74,1.03 1.16,1.56l0.66 0.87 9.56 12.82c1.5,2.01 2.61,3.45 3.71,3.84 0.99,0.36 2.25,-0.16 4.27,-1.94 3.65,-3.22 2.43,-4.85 0.12,-7.96l-11.72 -15.83 1.07 -0.56c3.1,-1.65 8.14,-3.31 13.27,-4.56 5.28,-1.3 10.68,-2.17 14.16,-2.17l2.01 -0.02c1.18,-0.01 1.67,-0.02 2.1,0.16 0.49,0.2 0.63,0.44 0.85,0.83 0.18,0.29 0.48,0.81 1.61,1.74 1.04,0.86 2.54,1.22 4.06,1.1 1.51,-0.12 3.02,-0.72 4.09,-1.78 0.82,-0.82 1.27,-1.59 1.5,-2.4 0.24,-0.85 0.28,-1.8 0.28,-2.91 0,-1.28 -1.46,-3.66 -2.61,-5.57 -0.42,-0.68 -0.8,-1.31 -1.08,-1.82 -0.63,-1.16 -1.32,-2.35 -2.01,-3.53 -0.79,-1.35 -1.58,-2.71 -2.32,-4.11l-0.48 -0.92 0.92 -0.48c1.45,-0.77 2.44,-2.22 2.9,-3.87 0.32,-1.21 0.36,-2.53 0.08,-3.77 -0.29,-1.22 -0.89,-2.39 -1.83,-3.31 -1.3,-1.25 -3.27,-2.09 -6.01,-2.09 -0.6,0 -1.11,0.18 -1.63,0.37 -0.37,0.13 -0.75,0.26 -1.18,0.36l-0.76 0.18 -4.3 -7.7 -0.69 -1.18c-1.09,-1.89 -2.75,-4.8 -3.43,-5.53 -1.22,-1.3 -2.83,-1.89 -4.43,-1.89 -0.84,0 -1.68,0.16 -2.45,0.46 -0.78,0.31 -1.5,0.75 -2.11,1.32 -1.13,1.07 -1.87,2.58 -1.87,4.43zm-1.21 3.76c-0.37,-0.6 -0.87,-1.43 -0.87,-3.76 0,-2.47 1,-4.5 2.53,-5.94 0.8,-0.75 1.75,-1.34 2.77,-1.74 1.02,-0.4 2.11,-0.61 3.21,-0.61 2.14,0 4.29,0.8 5.94,2.55 0.86,0.92 2.6,3.94 3.72,5.91 1.43,2.49 2.81,4.99 4.21,7.5l0.22 -0.08c0.7,-0.25 1.38,-0.49 2.33,-0.49 3.34,0 5.79,1.07 7.45,2.68 1.26,1.22 2.04,2.74 2.41,4.34 0.37,1.58 0.32,3.25 -0.09,4.77 -0.5,1.84 -1.55,3.5 -3.05,4.61 0.6,1.09 1.21,2.14 1.82,3.18 0.68,1.17 1.36,2.33 2.04,3.59 0.26,0.48 0.63,1.08 1.02,1.73 1.3,2.13 2.92,4.8 2.92,6.65 0,1.28 -0.04,2.39 -0.36,3.48 -0.32,1.14 -0.93,2.2 -2.04,3.3 -1.43,1.43 -3.42,2.23 -5.39,2.39 -2.02,0.16 -4.06,-0.36 -5.54,-1.58 -1.38,-1.13 -1.81,-1.84 -2.06,-2.26l-3.19 0.03c-3.34,0 -8.55,0.85 -13.67,2.1 -4.4,1.08 -8.72,2.46 -11.71,3.85l10.26 13.85c3.07,4.12 4.68,6.28 -0.4,10.76 -2.69,2.37 -4.58,2.97 -6.35,2.34 -1.66,-0.6 -2.95,-2.26 -4.68,-4.56l-9.55 -12.82 -1.34 -1.75c-0.7,0.36 -1.44,0.71 -2.28,1.01 -1.19,0.43 -2.5,0.73 -4.01,0.73 -1.86,0 -3.6,-0.29 -5.19,-0.79 -3.2,-1.02 -5.78,-2.96 -7.55,-5.4 -1.78,-2.45 -2.76,-5.4 -2.76,-8.45 0,-1.44 0.23,-2.91 0.69,-4.36 0.56,-1.76 1.36,-3.31 2.39,-4.67 1.05,-1.36 2.34,-2.53 3.87,-3.52l10.24 -5.86 0.23 -0.1c1.36,-0.39 1.53,-0.2 1.89,0.24 -0.03,-0.07 -0.1,-0.19 0,-0.19 0.11,0 0.83,-0.83 2.05,-1.86 1.89,-1.61 4.18,-3.65 4.78,-4.26 0.46,-0.47 0.72,-0.67 1.05,-0.91l0.54 -0.43c0.65,-0.55 1.85,-1.85 3.12,-3.31 1.8,-2.07 3.72,-4.43 4.52,-5.49 0.4,-0.53 1.93,-2.71 3,-4.42 0.57,-0.9 1,-1.62 1,-1.67 0,-0.07 -0.06,-0.18 -0.14,-0.31zm-21.29 24.41c-0.11,-0.08 -0.18,-0.17 -0.24,-0.24 -0.2,-0.25 0.2,0.24 0.28,0.39l-0.04 -0.15zm1.39 -1.54c0.02,0.03 0,0.01 -0.02,-0.02l0.02 0.02zm43.22 17.36l-0.02 -0.01c0.06,0.03 0.1,0.04 0.02,0.01zm-6.88 70.95l-27.71 0c-0.58,0 -1,-0.13 -1.34,-0.47 -0.34,-0.34 -0.47,-0.76 -0.47,-1.34l0 -20.59c0,-1.56 1.05,-1.87 2.36,-1.87l1.49 0.07 27.26 0 0.18 0.8c0.51,2.17 0.39,11.76 0.32,17.64l-0.03 3.7c0,0.58 -0.22,1.09 -0.59,1.46 -0.38,0.38 -0.89,0.6 -1.47,0.6zm-27.43 -2.09l27.4 0 0.04 -3.69c0.07,-5.2 0.17,-13.34 -0.14,-16.34l-25.55 -0.01 -1.48 -0.06c-0.15,0 -0.27,-0.39 -0.27,-0.21l0 20.31zm-0.15 0.15c0.04,0.03 0.03,0.02 0,0 -0.02,-0.03 -0.03,-0.04 0,0zm-46.42 -1.92c0.03,-1.33 0.66,-3.82 1.08,-5.48l0.22 -0.86c0.37,-1.52 0.71,-3.02 1.07,-4.63l0.69 -2.99c0.33,-1.36 0.48,-1.97 0.34,-2.17 -0.17,-0.26 -0.78,-0.58 -1.88,-1.15 -0.91,-0.48 -2.12,-1.11 -3.67,-2.04 -2.01,-1.19 -2.87,-1.94 -3.89,-2.84 -0.41,-0.36 -0.85,-0.74 -1.42,-1.2l-0.37 -0.27c-0.26,-0.19 -0.47,-0.34 -0.84,-0.71 -1.07,-1.25 -2.58,-3.08 -3.5,-4.41 -0.29,-0.44 -0.58,-0.9 -0.83,-1.35 -0.24,-0.4 -0.45,-0.83 -0.64,-1.24 -2.03,-4.57 -2.47,-8.7 -1.67,-12.56 0.79,-3.83 2.82,-7.38 5.71,-10.82 2.26,-2.68 5.77,-5.19 9.63,-7.26 4.34,-2.32 9.16,-4.1 13.15,-4.96l0.22 -0.05c0.7,-0.15 0.98,-0.21 1.09,-0.26l0.5 -0.38 0 -0.71 -0.32 -0.25c-0.19,-0.15 -0.3,-0.23 -0.33,-0.23 -0.29,-0.02 -0.93,0.14 -2.35,0.5l-0.58 0.15c-1.79,0.44 -3.11,0.89 -4.68,1.41l-0.5 0.17c-4.53,1.51 -9.5,4.21 -13.67,7.69 -3.6,3 -6.58,6.58 -8.14,10.45 -2.36,5.86 -2.1,11.43 -0.12,16.34 2.29,5.7 6.89,10.56 12.41,14.01 0.68,0.42 1.34,0.78 1.99,1.12 0.82,0.44 1.64,0.88 2.41,1.39l0.59 0.4c-1.22,5.3 -2.38,10.71 -3.72,15.97 -0.38,1.45 -0.67,2.59 -0.72,4.26 0.87,0.47 1.22,0.21 2.14,-0.46 0.39,-0.29 0.85,-0.63 1.42,-1l18.7 -13.09c0.65,-0.43 1.26,-0.64 1.98,-0.7 0.63,-0.05 1.32,0.02 2.21,0.15 4.41,0.68 10.91,-0.33 14.86,-0.95 1.61,-0.25 2.83,-0.44 3.4,-0.44l1.03 0 0.01 4.63c0,2.79 0.01,5.58 -0.01,8.37 -0.01,1.01 0.06,1.68 0.26,2.16 0.17,0.42 0.49,0.75 1.01,1.11 0.9,0.62 2,0.59 3.43,0.54l1.38 -0.03 7.88 0c5.34,-0.01 10.69,-0.02 16.03,0.01 2.17,0 3.32,-0.27 3.86,-0.98 0.59,-0.75 0.69,-2.18 0.69,-4.34l0 -17.8c0.03,-3.76 -1.95,-4.38 -5.42,-4.41 -0.88,-0.01 -1.88,0.02 -2.94,0.05 -1.16,0.03 -2.41,0.07 -3.57,0.07l-1.95 0 1.09 -1.62c0.35,-0.53 0.78,-1.04 1.21,-1.55l0.76 -0.91c1,-1.28 1.89,-2.69 2.63,-4.2 0.72,-1.45 1.3,-3 1.71,-4.61 1.12,-4.41 0.65,-8.81 -0.88,-12.79 -1.72,-4.48 -4.78,-8.43 -8.4,-11.27 -0.18,-0.13 -0.36,-0.29 -0.53,-0.44 -0.46,-0.42 -0.98,-0.89 -1.61,-0.71 -0.18,0.05 -0.36,0.15 -0.46,0.29 -0.04,0.05 -0.07,0.1 -0.08,0.15 -0.01,0.05 0,0.13 0.02,0.23 0.1,0.35 0.45,0.8 1.16,1.35 1,0.76 2.03,1.7 2.99,2.72 1,1.04 1.93,2.17 2.68,3.24 2.81,3.97 4.18,8.2 4.12,12.43 -0.05,4.22 -1.54,8.43 -4.46,12.36 -4.27,5.77 -5.5,5.7 -10.21,5.45 -1.03,-0.06 -2.24,-0.12 -3.77,-0.12l-1.83 -0.04c-2.33,-0.06 -4.52,-0.12 -5.74,0.79 -1.24,0.93 -1.17,2.7 -1.1,4.93 0.02,0.65 0.05,1.32 0.05,1.92l0 0.65 -0.6 0.28c-1.47,0.71 -4.7,1.23 -8.2,1.56 -4.27,0.39 -9,0.51 -11.38,0.31 -2.92,-0.24 -3.06,-0.14 -5.27,1.5 -0.81,0.6 -1.89,1.4 -3.44,2.45 -3.63,2.54 -7.29,5.07 -10.9,7.64 -0.61,0.45 -1.24,0.92 -1.92,1.1l-1.33 0.36 0.03 -1.38zm3.1 -4.97c-0.22,0.85 -0.5,1.94 -0.71,2.92 3.54,-2.43 7.05,-4.92 10.57,-7.39 1.47,-1 2.55,-1.79 3.37,-2.4 2.81,-2.09 2.98,-2.21 6.67,-1.9 2.3,0.19 6.89,0.07 11.03,-0.31 2.83,-0.26 5.44,-0.64 6.89,-1.12l-0.03 -1.15c-0.1,-2.84 -0.18,-5.09 1.93,-6.67 1.79,-1.33 4.34,-1.27 7.03,-1.2l1.78 0.03c1.51,0 2.8,0.07 3.88,0.13 3.82,0.21 4.83,0.26 8.43,-4.6 2.65,-3.58 4.01,-7.37 4.06,-11.15 0.05,-3.79 -1.2,-7.6 -3.75,-11.21 -0.7,-1 -1.56,-2.04 -2.48,-3.01 -0.89,-0.94 -1.84,-1.81 -2.75,-2.5 -1.11,-0.85 -1.69,-1.69 -1.9,-2.44 -0.12,-0.42 -0.12,-0.83 -0.05,-1.2 0.08,-0.38 0.24,-0.72 0.46,-1 0.39,-0.51 0.97,-0.87 1.55,-1.03 1.73,-0.49 2.7,0.38 3.57,1.16l0.41 0.36c3.9,3.05 7.2,7.31 9.06,12.16 1.68,4.36 2.19,9.19 0.96,14.04 -0.45,1.75 -1.08,3.43 -1.86,5.02 -0.81,1.63 -1.78,3.17 -2.87,4.56l-0.56 0.69 1.33 -0.04c1.08,-0.03 2.08,-0.06 3.01,-0.05 4.8,0.04 7.53,0.96 7.49,6.5l-0.01 17.79c0.01,2.61 -0.16,4.38 -1.11,5.61 -0.99,1.28 -2.63,1.79 -5.52,1.78 -5.34,-0.02 -10.68,-0.01 -16.02,-0.01l-7.88 0.01 -1.32 0.03c-1.82,0.05 -3.21,0.1 -4.67,-0.91 -0.86,-0.59 -1.41,-1.19 -1.75,-2.02 -0.32,-0.76 -0.43,-1.68 -0.42,-2.96 0.02,-2.79 0.02,-5.58 0.01,-8.37l0 -2.44 -2.04 0.3c-4.09,0.64 -10.79,1.69 -15.49,0.96 -0.74,-0.11 -1.3,-0.17 -1.73,-0.14 -0.36,0.03 -0.68,0.14 -1.02,0.37l-18.68 13.08c-0.54,0.36 -0.98,0.68 -1.34,0.95 -1.98,1.45 -2.54,1.86 -5,0.21l-0.47 -0.31 0 -0.55c0,-2.24 0.35,-3.58 0.8,-5.35l3.39 -14.51c-0.52,-0.31 -1.07,-0.6 -1.63,-0.9 -0.72,-0.38 -1.45,-0.77 -2.11,-1.19 -5.87,-3.66 -10.78,-8.86 -13.24,-15 -2.17,-5.38 -2.45,-11.48 0.12,-17.88 1.7,-4.22 4.9,-8.07 8.73,-11.27 4.37,-3.65 9.59,-6.48 14.35,-8.07l0.51 -0.17c1.62,-0.54 2.99,-1 4.82,-1.46l0.58 -0.15c1.65,-0.41 2.38,-0.6 2.98,-0.56 0.68,0.04 0.97,0.27 1.49,0.68 0.18,0.13 0.39,0.3 0.66,0.48l0.47 0.31 0 2.89 -0.47 0.31c-0.33,0.22 -0.53,0.38 -0.67,0.49 -0.22,0.17 -0.35,0.28 -0.61,0.39 -0.3,0.14 -0.64,0.21 -1.49,0.39l-0.23 0.05c-3.82,0.82 -8.43,2.54 -12.6,4.76 -3.65,1.96 -6.95,4.3 -9.02,6.76 -2.68,3.19 -4.55,6.44 -5.27,9.91 -0.71,3.44 -0.31,7.15 1.54,11.3 0.14,0.32 0.33,0.68 0.54,1.06 0.23,0.4 0.48,0.79 0.72,1.16l3.31 4.17c0.25,0.25 0.38,0.34 0.53,0.45l0.48 0.36c0.59,0.47 1.06,0.88 1.49,1.26 0.95,0.83 1.74,1.52 3.58,2.62 1.53,0.91 2.69,1.52 3.57,1.98 1.4,0.73 2.18,1.14 2.64,1.83 0.65,0.95 0.44,1.84 -0.04,3.82l-0.68 2.95c-0.36,1.58 -0.69,3.06 -1.09,4.68l-0.21 0.87zm-14.47 -105.59l2.44 -2.28 0.68 0.45c0.79,0.51 1.57,0.86 2.34,1.04 0.98,0.22 1.91,0.17 2.74,-0.15 0.83,-0.33 1.57,-0.94 2.14,-1.82 0.45,-0.68 0.81,-1.54 1.05,-2.57l0.19 -0.8 4.33 0 0.08 0.95c0.07,0.85 0.36,1.66 0.82,2.35 0.45,0.68 1.08,1.25 1.83,1.63 0.74,0.37 1.6,0.56 2.54,0.48 0.97,-0.08 2.02,-0.44 3.11,-1.17l0.74 -0.5 2.56 2.81 -0.14 0.55c-0.07,0.26 -0.21,0.54 -0.38,0.9 -0.61,1.25 -1.82,3.74 0.5,6.12 0.42,0.43 0.88,0.82 1.41,1.11 0.51,0.28 1.1,0.47 1.81,0.53l0.96 0.08 0 4.46 -0.96 0.08c-1.27,0.1 -2.43,0.73 -3.28,1.65 -0.83,0.91 -1.35,2.11 -1.35,3.41 0,0.74 0.3,1.35 0.6,1.95 0.25,0.51 0.5,1.01 0.64,1.63l0.12 0.54 -2.27 2.45 -0.61 -0.17c-0.43,-0.12 -0.91,-0.35 -1.43,-0.59 -0.71,-0.33 -1.5,-0.7 -1.91,-0.7 -1.37,0 -2.72,0.55 -3.73,1.43 -0.93,0.83 -1.56,1.94 -1.58,3.14l-0.03 1.02 -4.51 0 -0.08 -0.96c-0.06,-0.7 -0.25,-1.3 -0.53,-1.81 -0.29,-0.53 -0.68,-0.99 -1.12,-1.41 -1.04,-1.02 -2.13,-1.42 -3.2,-1.38 -1.13,0.04 -2.3,0.55 -3.45,1.32l-0.73 0.49 -2.88 -3.08 0.44 -0.68c0.69,-1.05 1.04,-2.08 1.12,-3.03 0.08,-0.94 -0.11,-1.82 -0.49,-2.57 -0.39,-0.76 -0.97,-1.4 -1.66,-1.85 -0.68,-0.45 -1.47,-0.73 -2.31,-0.8l-0.96 -0.08 0 -4.33 0.81 -0.18c1.04,-0.25 1.9,-0.61 2.59,-1.07 0.86,-0.58 1.46,-1.32 1.78,-2.14 0.32,-0.82 0.37,-1.76 0.14,-2.73 -0.18,-0.78 -0.53,-1.59 -1.07,-2.39l-0.49 -0.73 0.64 -0.6zm2.69 0.33l-0.65 0.6c0.43,0.78 0.73,1.56 0.91,2.32 0.28,1.19 0.26,2.36 -0.06,3.44 0.57,-1.14 1.33,-2.17 2.23,-3.06 1.12,-1.14 2.48,-2.05 3.97,-2.68 1.48,-0.63 3.09,-0.98 4.73,-0.98 1.28,0 2.57,0.21 3.83,0.66 -1.04,-0.54 -1.92,-1.34 -2.57,-2.31 -0.48,-0.72 -0.83,-1.52 -1.02,-2.37l-0.86 0c-0.28,0.92 -0.67,1.73 -1.12,2.43 -0.83,1.25 -1.9,2.13 -3.12,2.61 -1.22,0.48 -2.58,0.57 -3.97,0.24 -0.76,-0.17 -1.54,-0.48 -2.3,-0.9zm18.66 1.03c-0.95,0.08 -1.84,-0.03 -2.66,-0.3 1.2,0.57 2.35,1.38 3.42,2.45 0.89,0.88 1.59,1.83 2.13,2.82 -0.57,-2.24 0.39,-4.2 0.96,-5.37l0.02 -0.05 -0.55 -0.6c-1.14,0.63 -2.26,0.96 -3.32,1.05zm4.73 8.07c-0.44,-0.44 -0.79,-0.89 -1.07,-1.33 0.55,1.62 0.7,3.3 0.52,4.92 -0.23,2.02 -0.98,3.96 -2.12,5.63 -1.14,1.66 -2.69,3.06 -4.5,3.99 -2.79,1.43 -6.21,1.75 -9.81,0.25 0.71,0.32 1.4,0.8 2.07,1.45 0.57,0.55 1.09,1.17 1.49,1.91 0.28,0.51 0.5,1.06 0.64,1.68l0.72 0c0.29,-1.42 1.08,-2.68 2.18,-3.64 1.37,-1.2 3.22,-1.95 5.1,-1.95 0.87,0 1.88,0.47 2.79,0.89l0.55 0.26 0.57 -0.62c-0.09,-0.23 -0.2,-0.46 -0.32,-0.7 -0.4,-0.81 -0.81,-1.65 -0.81,-2.86 0,-1.84 0.73,-3.54 1.9,-4.82 0.98,-1.06 2.26,-1.84 3.69,-2.17l0 -0.76c-0.62,-0.14 -1.17,-0.36 -1.68,-0.64 -0.74,-0.4 -1.36,-0.92 -1.91,-1.49zm-19.62 12.95c0.81,-0.03 1.61,0.09 2.4,0.41l-0.12 -0.05c-2.14,-0.96 -3.94,-2.48 -5.18,-4.43 -0.32,-0.5 -0.6,-1.02 -0.84,-1.57 0.32,0.88 0.47,1.87 0.38,2.9 -0.09,1.05 -0.42,2.17 -1.04,3.29l0.61 0.64c1.22,-0.7 2.49,-1.15 3.79,-1.19zm-4.08 -6.43l0.13 0.27c-0.52,-1.38 -0.81,-2.9 -0.81,-4.53 0,-1.29 0.22,-2.52 0.62,-3.66 -0.5,0.87 -1.22,1.65 -2.17,2.28 -0.7,0.47 -1.52,0.86 -2.46,1.16l0 0.85c0.83,0.19 1.61,0.53 2.31,0.99 1.01,0.66 1.84,1.57 2.38,2.64zm4.18 -18.22c-1.57,0 -2.03,-0.49 -2.52,-1.01 -0.24,-0.25 -0.5,-0.52 -1.8,-0.52 -0.41,0 -1.46,0.85 -2.45,1.85 -1,0.99 -1.85,2.05 -1.85,2.45 0,1.31 0.27,1.56 0.52,1.8 0.52,0.5 1.01,0.96 1.01,2.52 0,2.27 -1.62,2.73 -3.29,3.2 -1.01,0.28 -2.05,0.58 -2.05,1.63 0,0.57 -0.02,1.24 -0.04,1.87 -0.08,2.39 -0.12,3.89 1.71,4.26 3.31,0.68 3.92,2.09 3.6,3.67 -0.15,0.75 -0.55,1.44 -0.92,2.08 -0.28,0.48 -0.54,0.92 -0.54,1.09 0,1.38 0.32,1.66 1.08,2.36 0.3,0.26 0.63,0.57 0.97,0.9l0.56 0.61c0.58,0.64 1.07,1.19 2.2,1.19 0.25,0 0.72,-0.28 1.2,-0.57 1.49,-0.88 3.12,-1.84 4.94,0.1 0.45,0.48 0.6,1.15 0.78,1.9 0.24,1.05 0.56,2.38 1.97,2.38l1.52 0.03c2.16,0.07 3.89,0.12 4.33,-1.56l0.19 -0.82c0.41,-1.9 0.65,-2.99 3.37,-2.99 1.21,0 1.93,0.54 2.61,1.06 0.71,0.55 1.35,1.03 3.83,-1.45 2.46,-2.45 2.02,-3.07 1.48,-3.82 -0.51,-0.72 -1.08,-1.52 -1.08,-2.88 0,-2.49 1.44,-2.79 3.05,-3.14 0.64,-0.13 1.34,-0.28 1.75,-0.7 0.67,-0.7 0.62,-2.28 0.57,-3.92l-0.03 -1.39c0,-0.46 -0.16,-0.84 -0.41,-1.14 -0.31,-0.35 -0.76,-0.59 -1.26,-0.71l-0.47 -0.08c-0.63,-0.1 -1.33,-0.21 -1.91,-0.64 -2.28,-1.66 -1.21,-3.57 -0.3,-5.2 0.28,-0.5 0.53,-0.95 0.53,-1.13 0,-1.12 -0.54,-1.61 -1.18,-2.19l-0.61 -0.57c-0.34,-0.34 -0.64,-0.67 -0.9,-0.96 -0.7,-0.77 -0.99,-1.09 -2.37,-1.09 -0.06,0 -0.45,0.23 -0.88,0.48 -0.69,0.39 -1.46,0.84 -2.29,1 -1.58,0.31 -3.02,-0.28 -3.63,-3.41 -0.39,-2.02 -1.61,-1.99 -4.15,-1.92 -0.66,0.02 -1.39,0.04 -2.01,0.04 -0.38,0 -0.68,0.14 -0.91,0.37 -0.33,0.31 -0.56,0.78 -0.68,1.28l-0.02 0.13c-0.15,0.88 -0.61,3.56 -3.22,3.56zm-1.02 -2.44c0.18,0.18 0.34,0.36 1.02,0.36 0.85,0 1.09,-1.38 1.17,-1.83l0.04 -0.22c0.2,-0.87 0.63,-1.73 1.27,-2.35 0.61,-0.57 1.39,-0.94 2.35,-0.94 0.83,0 1.42,-0.02 1.96,-0.03 3.72,-0.11 5.52,-0.16 6.25,3.6 0.29,1.51 0.74,1.85 1.19,1.76 0.49,-0.09 1.1,-0.45 1.64,-0.76 0.69,-0.4 1.3,-0.76 1.92,-0.76 2.3,0 2.76,0.51 3.91,1.77 0.22,0.25 0.48,0.53 0.84,0.89l0.53 0.5c1.01,0.92 1.87,1.7 1.87,3.73 0,0.72 -0.39,1.4 -0.8,2.14 -0.5,0.9 -1.08,1.94 -0.3,2.52 0.18,0.13 0.61,0.19 0.99,0.25 0.22,0.03 0.43,0.06 0.64,0.11 0.92,0.22 1.76,0.7 2.36,1.39 0.57,0.66 0.92,1.5 0.92,2.49l0.03 1.32c0.06,2.09 0.13,4.1 -1.15,5.43 -0.85,0.88 -1.87,1.1 -2.82,1.3 -0.74,0.15 -1.4,0.3 -1.4,1.1 0,0.7 0.36,1.21 0.69,1.67 1.1,1.54 2,2.81 -1.69,6.5 -3.76,3.76 -5.09,2.76 -6.57,1.63 -0.4,-0.3 -0.83,-0.63 -1.35,-0.63 -1.04,0 -1.15,0.5 -1.34,1.35l-0.21 0.91c-0.86,3.28 -3.33,3.2 -6.4,3.11l-1.46 -0.03c-3.06,0 -3.59,-2.24 -4,-3.98 -0.11,-0.48 -0.21,-0.9 -0.27,-0.97 -0.67,-0.71 -1.55,-0.19 -2.36,0.28 -0.74,0.44 -1.45,0.86 -2.26,0.86 -2.04,0 -2.81,-0.86 -3.73,-1.87l-0.51 -0.53c-0.36,-0.37 -0.64,-0.62 -0.88,-0.84 -1.26,-1.15 -1.77,-1.61 -1.77,-3.9 0,-0.72 0.39,-1.4 0.82,-2.13 0.29,-0.5 0.6,-1.04 0.69,-1.46 0.09,-0.43 -0.29,-0.87 -1.98,-1.21 -3.55,-0.73 -3.49,-2.9 -3.38,-6.35 0.02,-0.52 0.03,-1.08 0.03,-1.82 0,-2.63 1.83,-3.14 3.58,-3.64 0.9,-0.25 1.76,-0.49 1.76,-1.19 0,-0.68 -0.17,-0.84 -0.35,-1.01 -0.56,-0.54 -1.17,-1.12 -1.17,-3.31 0,-0.98 1.13,-2.6 2.45,-3.93 1.33,-1.32 2.95,-2.45 3.93,-2.45 2.19,0 2.77,0.61 3.3,1.17zm100.14 60.88c0,-0.67 0.67,-2.17 1.47,-3.53 0.74,-1.26 1.65,-2.49 2.3,-2.92l0.38 -0.25 0.43 0.1c0.77,0.18 1.6,0.62 2.34,1.15 0.8,0.59 1.52,1.31 1.96,1.96 1.23,1.81 1.61,4.03 1.52,6.29 -0.11,2.92 -1.05,5.93 -1.97,8.11 -1.42,3.34 -4.37,8.56 -7.86,12.31 -2.58,2.77 -5.5,4.77 -8.43,4.77 -1.07,0 -2.99,-0.16 -4.4,-0.6 -1.29,-0.41 -2.23,-1.11 -2.23,-2.22 0,-1.08 1.17,-3.03 1.95,-4.35l0.36 -0.62c1.47,-2.54 2.3,-2.02 3.82,-1.05 0.61,0.39 1.44,0.91 2.79,0.91 1.41,0 2.93,-1.47 4.27,-3.25 1.45,-1.94 2.66,-4.26 3.36,-5.66l0.14 -0.28c0.78,-1.54 2.15,-4.27 1.99,-5.81 -0.19,-1.82 -1.61,-2.63 -2.58,-3.19 -0.92,-0.52 -1.61,-0.92 -1.61,-1.87zm3.26 -2.48c-0.64,1.1 -1.18,2.17 -1.18,2.48 0,0.26 0.25,-0.12 0.57,0.07 1.34,0.76 3.3,1.89 3.6,4.78 0.23,2.14 -1.32,5.21 -2.19,6.95l-0.14 0.28c-0.72,1.45 -1.99,3.88 -3.56,5.97 -1.68,2.25 -3.73,4.1 -5.93,4.1 -1.94,0 -3.07,-0.72 -3.91,-1.25 -0.33,-0.21 -0.51,-0.32 -0.9,0.35l-0.37 0.62c-0.67,1.13 -1.66,2.79 -1.66,3.3l0.78 0.24c1.16,0.37 2.83,0.5 3.77,0.5 2.27,0 4.69,-1.72 6.91,-4.11 3.31,-3.56 6.12,-8.52 7.47,-11.7 0.84,-2 1.7,-4.75 1.81,-7.38 0.07,-1.86 -0.22,-3.65 -1.17,-5.05 -0.31,-0.46 -0.85,-0.99 -1.46,-1.44 -0.36,-0.26 -0.74,-0.49 -1.11,-0.64 -0.38,0.42 -0.87,1.16 -1.33,1.93zm-4.99 2.48c0,0.72 0.26,1.32 0.65,1.81 0.43,0.54 1.03,0.99 1.65,1.35 0.48,0.29 0.75,0.48 1.03,0.69l1.04 0.72 -0.05 0.6c-0.12,1.39 -1.77,5 -3.53,8.01 -1.63,2.79 -3.48,5.15 -4.63,5.15 -0.73,0 -1.44,-0.33 -2.25,-0.71 -1.64,-0.78 -3.84,-1.81 -5.9,2.03 -0.2,0.38 -0.45,0.79 -0.72,1.22 -1.33,2.18 -3.16,5.19 0.26,7.21 3.36,2 6.65,1.96 9.61,0.79 3.96,-1.57 7.39,-5.14 9.73,-8.69 2,-3.04 3.71,-5.85 4.91,-8.86 1.18,-2.97 1.88,-6.18 1.88,-10.04 0,-2.43 -1.19,-5.05 -2.88,-6.94 -0.86,-0.97 -1.84,-1.73 -2.85,-2.17 -0.93,-0.4 -1.87,-0.51 -2.74,-0.23 -0.9,0.3 -1.76,1.02 -2.52,2.28l-0.71 1.23c-0.3,0.53 -0.59,1.06 -0.98,1.68 -0.28,0.46 -0.55,0.9 -0.72,1.36 -0.17,0.42 -0.28,0.9 -0.28,1.51zm-0.98 3.1c-0.66,-0.83 -1.1,-1.85 -1.1,-3.1 0,-0.9 0.16,-1.62 0.42,-2.27 0.24,-0.63 0.56,-1.15 0.89,-1.69 0.35,-0.57 0.65,-1.09 0.95,-1.61l0.73 -1.27c1.04,-1.74 2.3,-2.75 3.66,-3.19 1.39,-0.46 2.83,-0.3 4.2,0.29 1.29,0.55 2.53,1.51 3.59,2.69 2,2.24 3.4,5.38 3.4,8.33 0,4.14 -0.75,7.59 -2.03,10.81 -1.27,3.19 -3.04,6.11 -5.11,9.23 -2.54,3.85 -6.3,7.73 -10.7,9.48 -3.52,1.39 -7.43,1.44 -11.43,-0.93 -5.23,-3.1 -2.76,-7.15 -0.97,-10.08 0.24,-0.4 0.48,-0.78 0.66,-1.12 2.99,-5.58 6.21,-4.07 8.62,-2.93 0.58,0.27 1.09,0.51 1.36,0.51 0.31,0 1.54,-1.89 2.83,-4.11 1.42,-2.43 2.75,-5.18 3.14,-6.59l-0.02 -0.02c-0.25,-0.17 -0.47,-0.34 -0.87,-0.58 -0.79,-0.47 -1.6,-1.07 -2.22,-1.85zm-97.45 -47.08c0,-4.04 2.08,-6.63 4.76,-7.78 1.05,-0.44 2.18,-0.66 3.32,-0.66 1.14,0.01 2.28,0.24 3.33,0.69 2.74,1.18 4.91,3.86 4.91,8.01 0,1.95 -0.88,3.76 -2.25,5.13 -0.77,0.78 -1.71,1.41 -2.73,1.85 -1.03,0.44 -2.14,0.7 -3.29,0.7 -1.95,0 -3.95,-0.72 -5.66,-2.43 -0.66,-0.66 -1.25,-1.37 -1.68,-2.25 -0.44,-0.89 -0.71,-1.94 -0.71,-3.26zm5.58 -5.86c-1.97,0.84 -3.5,2.79 -3.5,5.86 0,0.97 0.19,1.72 0.49,2.34 0.32,0.64 0.78,1.18 1.3,1.7 1.27,1.28 2.75,1.81 4.18,1.81 0.85,0 1.7,-0.19 2.47,-0.52 0.78,-0.33 1.49,-0.82 2.08,-1.41 1,-0.99 1.63,-2.29 1.63,-3.66 0,-3.19 -1.6,-5.22 -3.65,-6.1 -0.79,-0.34 -1.65,-0.52 -2.51,-0.52 -0.85,0 -1.71,0.16 -2.49,0.5zm-7.31 5.36c0,2.11 0.56,3.98 1.53,5.5 1.02,1.61 2.5,2.86 4.27,3.65 3.09,1.39 6.02,1.16 8.37,-0.05 1.5,-0.76 2.78,-1.93 3.73,-3.31 0.95,-1.4 1.58,-3.01 1.77,-4.69 0.3,-2.66 -0.5,-5.49 -2.82,-7.81 -2.05,-2.04 -4.47,-2.93 -6.82,-2.93 -1.36,0 -2.69,0.29 -3.92,0.81 -1.23,0.52 -2.36,1.29 -3.31,2.24 -1.71,1.7 -2.8,4 -2.8,6.59zm12.45 65.33c0,0.38 0.1,0.62 0.27,0.74 0.25,0.18 0.69,0.25 1.23,0.25l41.95 0c0.63,0 1.01,-0.25 1.15,-0.56 0.06,-0.12 0.09,-0.24 0.09,-0.36 0,-0.12 -0.03,-0.24 -0.07,-0.35 -0.12,-0.25 -0.42,-0.46 -0.91,-0.46l-42.71 0c-0.3,0 -0.57,0.11 -0.76,0.27 -0.14,0.13 -0.24,0.3 -0.24,0.47zm-0.94 2.43c-0.72,-0.52 -1.14,-1.3 -1.14,-2.43 0,-0.81 0.37,-1.52 0.96,-2.03 0.55,-0.49 1.31,-0.79 2.12,-0.79l42.71 0c1.43,0 2.38,0.74 2.8,1.7 0.17,0.38 0.26,0.79 0.25,1.21 0,0.41 -0.09,0.82 -0.27,1.21 -0.46,0.99 -1.47,1.78 -3.04,1.78l-41.95 0c-0.96,0 -1.8,-0.19 -2.44,-0.65zm0.94 -15.65c0,0.33 0.09,0.59 0.25,0.74 0.16,0.16 0.42,0.25 0.75,0.25l31.01 0c0.51,0 0.83,-0.22 0.95,-0.5 0.05,-0.1 0.07,-0.23 0.07,-0.36 0,-0.13 -0.02,-0.26 -0.07,-0.37 -0.12,-0.28 -0.43,-0.5 -0.95,-0.5l-31.01 0c-0.3,0 -0.57,0.11 -0.76,0.27 -0.14,0.13 -0.24,0.3 -0.24,0.47zm-1.21 2.22c-0.56,-0.56 -0.87,-1.32 -0.87,-2.22 0,-0.81 0.37,-1.52 0.96,-2.03 0.55,-0.49 1.31,-0.79 2.12,-0.79l31.01 0c1.47,0 2.42,0.77 2.86,1.75 0.16,0.39 0.25,0.8 0.25,1.2 0,0.4 -0.09,0.81 -0.25,1.19 -0.44,0.99 -1.39,1.76 -2.86,1.76l-31.01 0c-0.9,0 -1.66,-0.31 -2.21,-0.86zm52.26 38.97l0 -7.06 2.1 1.1c1.39,0.71 3.7,1.9 4.36,2.8l0.93 1.27 -1.54 0.36c-0.24,0.05 -0.8,0.34 -1.44,0.69 -1.08,0.6 -2.31,1.38 -2.79,1.7l-1.62 1.08 0 -1.94zm2.09 -3.63l0 1.74 1.54 -0.89c-0.47,-0.28 -1.02,-0.58 -1.54,-0.85zm-3.56 -5.02l0 12.2 0.04 0.09c0.03,0.06 0.09,0.12 0.15,0.16 0.07,0.04 0.17,0.07 0.31,0.07 0.31,0 0.72,-0.12 1.26,-0.43l9.02 -5.2c0.82,-0.49 1.01,-0.83 0.85,-1.09 -0.47,-0.81 -2.15,-1.71 -3.58,-2.47 -0.52,-0.28 -1.02,-0.55 -1.38,-0.76l-1.21 -0.75c-1.68,-1.06 -3.94,-2.5 -5.14,-2.5 -0.19,0 -0.32,0.19 -0.32,0.68zm-2.09 12.2l0 -12.2c0,-2.01 0.96,-2.76 2.41,-2.76 1.79,0 4.35,1.62 6.25,2.82l1.16 0.72c0.42,0.25 0.85,0.48 1.3,0.72 1.67,0.89 3.62,1.93 4.39,3.24 0.79,1.33 0.57,2.67 -1.58,3.94l-9.05 5.21c-0.9,0.52 -1.66,0.71 -2.29,0.71 -0.57,0 -1.04,-0.16 -1.42,-0.4 -0.38,-0.24 -0.66,-0.56 -0.84,-0.88 -0.23,-0.39 -0.33,-0.82 -0.33,-1.12zm44.03 -87.7c0,0.36 0.03,0.75 0.17,0.98 0.1,0.15 0.34,0.26 0.83,0.26l7.88 0c0.51,0 0.82,-0.22 0.95,-0.5 0.04,-0.1 0.07,-0.23 0.07,-0.36 0,-0.13 -0.03,-0.26 -0.07,-0.37 -0.13,-0.28 -0.44,-0.5 -0.95,-0.5l-7.88 0c-0.27,0 -0.57,0.11 -0.8,0.28 -0.11,0.09 -0.2,0.17 -0.2,0.21zm-1.59 2.08c-0.41,-0.66 -0.49,-1.41 -0.49,-2.08 0,-0.75 0.43,-1.41 1.04,-1.87 0.57,-0.43 1.34,-0.7 2.04,-0.7l7.88 0c1.46,0 2.42,0.77 2.85,1.75 0.17,0.39 0.25,0.8 0.25,1.2 0,0.4 -0.08,0.81 -0.25,1.19 -0.43,0.99 -1.39,1.76 -2.85,1.76l-7.88 0c-1.35,0 -2.13,-0.52 -2.59,-1.25zm-9.62 -21.68c0.51,0 1.16,-1.22 1.75,-2.32 0.2,-0.39 0.41,-0.77 0.59,-1.07l0.48 -0.76c0.79,-1.22 2.02,-3.13 2.02,-4.23 0,-0.28 -0.27,-0.47 -1.02,-0.47 -0.22,0 -0.73,0.91 -1.08,1.52 -0.79,1.36 -1.59,2.71 -2.37,4.09 -0.13,0.25 -0.26,0.49 -0.45,0.8 -0.46,0.75 -0.65,1.34 -0.65,1.78 0,0.16 0.03,0.29 0.08,0.37 0.03,0.07 0.09,0.13 0.16,0.17 0.12,0.08 0.29,0.12 0.49,0.12zm3.58 -1.35c-0.87,1.63 -1.83,3.43 -3.58,3.43 -0.57,0 -1.12,-0.14 -1.58,-0.42 -0.37,-0.23 -0.69,-0.56 -0.91,-0.96 -0.2,-0.39 -0.32,-0.85 -0.32,-1.36 0,-0.79 0.28,-1.75 0.96,-2.86 0.91,-1.62 1.85,-3.22 2.79,-4.84 0.58,-1.03 1.46,-2.57 2.88,-2.57 2.3,0 3.1,1.05 3.1,2.55 0,1.7 -1.43,3.93 -2.35,5.35l-0.45 0.71c-0.19,0.31 -0.36,0.64 -0.54,0.97zm6.11 8.49c0,0.13 0.05,0.21 0.12,0.27 0.2,0.15 0.53,0.21 0.87,0.21 0.47,0 2.35,-1.15 3.65,-1.95 0.5,-0.31 0.93,-0.57 1.2,-0.71l0.28 -0.16c0.67,-0.35 1.76,-0.92 2.27,-1.54 0.2,-0.25 0.23,-0.55 -0.2,-0.91 -0.52,-0.43 -1.47,0.15 -2.79,0.96 -0.45,0.27 -0.94,0.57 -1.44,0.85l-0.93 0.5c-1.62,0.88 -3.03,1.63 -3.03,2.48zm-1.12 1.93c-0.58,-0.43 -0.96,-1.06 -0.96,-1.93 0,-2.09 1.92,-3.12 4.12,-4.31l0.92 -0.49c0.5,-0.28 0.94,-0.55 1.36,-0.81 2.06,-1.25 3.54,-2.16 5.2,-0.78 1.66,1.37 1.42,2.69 0.47,3.84 -0.77,0.93 -2.09,1.63 -2.9,2.05l-0.28 0.15c-0.24,0.13 -0.63,0.37 -1.08,0.65 -1.5,0.93 -3.68,2.27 -4.74,2.27 -0.73,0 -1.52,-0.19 -2.11,-0.64z"/>
   <path class="fil0" d="M108.97 196.57l32.06 0 5.45 19.29c0.5,1.72 1.24,5.02 1.88,6.36l-46.72 0c0.64,-1.34 1.38,-4.64 1.88,-6.36 0.6,-2.05 1.2,-4.23 1.84,-6.41 1.19,-4.1 2.61,-8.62 3.61,-12.88zm-72.38 -10.54l0 -18.32 176.82 0 0 18.32c0,1.48 -1.66,2.29 -3.2,2.29l-170.41 0c-1.55,0 -3.21,-0.81 -3.21,-2.29zm-8.25 -119.56l0 120.02c0,5.36 4.91,9.69 10.09,10.07 6.17,0.45 14.23,0.01 20.6,0.01 13.75,0 27.49,0 41.23,0l-3.66 13.28c-0.6,2.16 -1.23,4.26 -1.83,6.42 -2.16,7.71 1.05,5.95 -16.04,5.95l0 8.25 92.54 0 0 -8.25c-13.49,0 -14.09,1.29 -15.05,-2.36l-6.48 -23.29c13.59,0 27.18,0 40.77,0 6.66,0 14.05,0.3 20.62,0.01 5.42,-0.25 10.53,-4.66 10.53,-10.09l0 -120.02c0,-5.22 -5.32,-10.08 -10.54,-10.08l-17.86 0 0 8.25 16.95 0c1.54,0 3.2,0.81 3.2,2.29l0 92.53 -176.82 0 0 -92.53c0,-1.48 1.66,-2.29 3.21,-2.29l16.94 0 0 -8.25 -17.86 0c-5.22,0 -10.54,4.86 -10.54,10.08z"/>
   <path class="fil0" d="M185.47 131.52c11.58,0 9.62,1.77 9.62,-7.33 0,-2.26 -3.61,-1.38 -9.62,-1.38l0 8.71z"/>
   <path class="fil0" d="M54.91 124.19c0,9.1 -1.96,7.33 9.62,7.33l0 -8.71c-6.01,0 -9.62,-0.88 -9.62,1.38z"/>
   <path class="fil0" d="M165.31 124.19c0,8.97 -1.71,7.33 8.25,7.33 2.07,0 1.37,-2.35 1.37,-7.33 0,-2.15 -2.81,-1.38 -8.24,-1.38 -1.06,0 -1.38,0.32 -1.38,1.38z"/>
  </g>
 </g>
</svg>
