<?xml version="1.0" encoding="UTF-8"?>
<!DOCTYPE svg PUBLIC "-//W3C//DTD SVG 1.1//EN" "http://www.w3.org/Graphics/SVG/1.1/DTD/svg11.dtd">
<!-- Creator: CorelDRAW 2020 (64-Bit) -->
<svg xmlns="http://www.w3.org/2000/svg" xml:space="preserve" width="378px" height="378px" version="1.1" style="shape-rendering:geometricPrecision; text-rendering:geometricPrecision; image-rendering:optimizeQuality; fill-rule:evenodd; clip-rule:evenodd"
viewBox="0 0 3.72 3.72"
 xmlns:xlink="http://www.w3.org/1999/xlink"
 xmlns:xodm="http://www.corel.com/coreldraw/odm/2003">
 <defs>
  <style type="text/css">
   <![CDATA[
    .fil0 {fill:black}
   ]]>
  </style>
 </defs>
 <g id="Layer_x0020_1">
  <metadata id="CorelCorpID_0Corel-Layer"/>
  <g id="_2543623841728">
   <path class="fil0" d="M0.18 3.39l0.15 0.15c-0.08,0.01 -0.16,0.08 -0.2,0.05 -0.03,-0.04 0.04,-0.13 0.05,-0.2zm1.47 0.09l0.42 0c-0.11,0.16 -0.31,0.16 -0.42,0zm-0.15 -0.18c0,-0.03 0.03,-0.06 0.07,-0.06l0.58 0c0.09,0 0.09,0.12 0,0.12l-0.58 0c-0.04,0 -0.07,-0.03 -0.07,-0.06zm-1.12 -0.43l0.47 0.47c-0.06,0.01 -0.35,0.13 -0.4,0.15l-0.22 -0.22c0.01,-0.04 0.03,-0.07 0.04,-0.1l0.07 -0.19c0.02,-0.04 0.04,-0.08 0.04,-0.11zm1.12 0.19c0,-0.03 0.03,-0.06 0.07,-0.06l0.58 0c0.09,0 0.09,0.12 0,0.12l-0.58 0c-0.04,0 -0.07,-0.03 -0.07,-0.06zm-0.54 0.21l-0.21 -0.21 0.43 -0.44c0.04,0.03 0.18,0.19 0.19,0.24l-0.41 0.41zm1.62 -0.63c0,-0.05 0.01,-0.08 0.04,-0.1 0.06,-0.07 0.09,-0.09 0.14,-0.16 0.02,-0.02 0.02,-0.02 0.05,-0.03 0.3,-0.07 0.49,0.3 0.28,0.5 -0.15,0.15 -0.4,0.1 -0.48,-0.09 -0.02,-0.03 -0.03,-0.08 -0.03,-0.12zm-1.92 0.33l-0.21 -0.21 0.45 -0.45 0.09 0.12c0.04,0.04 0.08,0.07 0.1,0.11l-0.43 0.43zm2.7 -0.64c0,0.08 0.02,0.13 0.07,0.18 0.04,0.05 0.09,0.07 0.17,0.07l0 0.12c-0.08,0 -0.12,0.02 -0.18,0.07 -0.05,0.06 -0.06,0.11 -0.06,0.19 0,0.07 0.04,0.11 0.07,0.14l-0.08 0.09c-0.09,-0.07 -0.17,-0.09 -0.28,-0.05 -0.08,0.04 -0.13,0.12 -0.13,0.22l-0.12 0c0,-0.14 -0.11,-0.24 -0.23,-0.24 -0.08,0 -0.11,0.01 -0.18,0.07 -0.02,-0.02 -0.03,-0.03 -0.04,-0.05 -0.03,-0.03 -0.04,-0.01 -0.03,-0.05 0.01,-0.13 -0.04,-0.11 -0.03,-0.15 0.01,-0.08 0.14,-0.22 0.14,-0.24 0.04,0.03 0,0.11 0.14,0.25 0.25,0.24 0.71,0.06 0.71,-0.29 0,-0.14 -0.04,-0.23 -0.13,-0.33 -0.08,-0.08 -0.18,-0.11 -0.31,-0.11 0.03,-0.05 0.07,-0.17 0.07,-0.25 0.03,0.03 0.02,0.06 0.08,0.12 0.06,0.06 0.12,0.07 0.19,0.07 0.06,0 0.11,-0.04 0.14,-0.07l0.09 0.08c-0.04,0.05 -0.07,0.09 -0.07,0.16zm-2.46 -0.47c0,-0.05 0.01,-0.14 0.02,-0.18l0.64 0c0,0.16 -0.03,0.27 0.09,0.34 0.09,0.05 0.45,0.01 0.57,0.02 0.03,0 0.06,0.03 0.06,0.06 0,0.08 -0.12,0.06 -0.2,0.06 -0.09,0 -0.47,-0.01 -0.53,0.01 -0.16,0.07 -0.14,0.3 0.02,0.35 0.09,0.02 0.23,-0.04 0.23,0.07l0 0.29 -0.28 0c-0.04,-0.18 -0.33,-0.4 -0.41,-0.51 -0.08,-0.11 -0.14,-0.14 -0.19,-0.32 -0.01,-0.05 -0.02,-0.14 -0.02,-0.19zm1.94 -0.46c-0.06,-0.1 -0.06,-0.11 -0.13,-0.2 -0.01,-0.02 -0.03,-0.03 -0.04,-0.06l0.27 -0.27 0.21 0.21 -0.31 0.32zm-0.87 -0.49c0.06,0.01 0.12,0.02 0.18,0.04 0.13,0.04 0.32,0.15 0.41,0.26 0.15,0.18 0.26,0.4 0.26,0.64 0,0.13 -0.03,0.26 -0.08,0.34 -0.05,0.09 -0.07,0.11 -0.13,0.17 -0.02,0.03 -0.03,0.04 -0.05,0.06l-0.2 0.21c-0.05,0.05 -0.15,0.17 -0.16,0.25l-0.28 0 0 -0.31c0,-0.08 -0.07,-0.15 -0.13,-0.17 -0.04,-0.01 -0.1,0 -0.14,0 -0.05,0 -0.09,-0.02 -0.09,-0.06 0,-0.08 0.12,-0.06 0.2,-0.06 0.09,0 0.47,0.01 0.52,-0.01 0.15,-0.06 0.16,-0.25 0.03,-0.33 -0.07,-0.04 -0.36,-0.02 -0.46,-0.02 -0.2,0 -0.17,0.01 -0.17,-0.24l0.32 0c0.14,0 0.28,-0.14 0.28,-0.28l0 -0.04c0,-0.14 -0.13,-0.28 -0.3,-0.28l-0.01 -0.17zm0.61 0.14c-0.02,0 -0.09,-0.06 -0.12,-0.09 -0.05,-0.03 -0.09,-0.05 -0.14,-0.07l0.32 -0.32 0.21 0.21 -0.27 0.27zm-1.74 0.15l0.12 0c0.01,-0.07 0.04,-0.12 0.12,-0.12 0.03,0 0.07,0.02 0.08,0.04 0.02,0.02 0.03,0.05 0.04,0.08l0.12 0c0,-0.07 -0.02,-0.11 -0.05,-0.15 -0.05,-0.06 -0.07,-0.06 -0.12,-0.08 0,-0.08 0.06,-0.17 0.11,-0.21 0.25,-0.22 0.6,-0.03 0.6,0.26 0,0.03 -0.01,0.08 -0.03,0.1 -0.05,0.05 -0.15,0.08 -0.15,0.26l0.12 0c0.01,-0.18 0.2,-0.23 0.3,-0.13 0.08,0.08 0.07,0.19 0,0.26 -0.03,0.03 -0.08,0.05 -0.14,0.05l-1.57 0c-0.35,0 -0.33,-0.41 -0.09,-0.47 0.05,-0.01 0.1,-0.01 0.15,0.01 0.09,0.04 0.14,0.11 0.15,0.22l0.12 0c0,-0.09 -0.04,-0.2 -0.11,-0.26l-0.1 -0.07c-0.04,-0.01 -0.08,-0.03 -0.14,-0.03 0,-0.07 -0.04,-0.16 0.03,-0.31 0.03,-0.06 0.05,-0.1 0.1,-0.15 0.05,-0.04 0.09,-0.07 0.14,-0.09 0.28,-0.14 0.58,0.07 0.61,0.2 -0.1,0.07 -0.18,0.15 -0.22,0.28 0,0.02 0,0.04 -0.01,0.05 -0.01,0.06 -0.03,0.02 -0.1,0.08 -0.05,0.04 -0.08,0.1 -0.08,0.18zm1.89 -0.72l0.09 -0.09 0.51 0.51 -0.09 0.09 -0.51 -0.51zm0.18 -0.18c0.14,-0.21 0.47,-0.25 0.63,-0.01 0.11,0.17 0.05,0.41 -0.12,0.52l-0.51 -0.51zm-0.71 0.53c-0.03,0 -0.04,-0.01 -0.07,-0.02 -0.06,-0.01 -0.15,-0.03 -0.22,-0.03 -0.01,-0.03 -0.04,-0.07 -0.06,-0.09 -0.12,-0.12 -0.21,-0.15 -0.38,-0.15 -0.05,0 -0.07,0.01 -0.11,0.02 -0.01,-0.07 -0.12,-0.17 -0.19,-0.22 -0.41,-0.27 -0.93,0.05 -0.93,0.47 0,0.05 0,0.13 0.01,0.17 -0.13,0.03 -0.25,0.18 -0.25,0.31 0,0.11 0,0.16 0.08,0.26 0.12,0.15 0.25,0.13 0.43,0.13 0.09,0 0.19,0 0.28,0 -0.02,0.12 -0.01,0.26 0.01,0.38 0.01,0.03 0.01,0.04 0.02,0.06 0,0.03 0.01,0.05 0.02,0.07 -0.05,0.07 -0.52,0.5 -0.54,0.55 -0.05,0.13 -0.3,0.77 -0.3,0.81 0,0.11 0.06,0.17 0.17,0.17 0.04,0 0.3,-0.1 0.35,-0.12l0.42 -0.17c0.05,-0.02 0.04,-0.01 0.08,-0.04 0.04,-0.04 0.08,-0.08 0.12,-0.12l0.24 -0.24c0,0.03 0,0.06 0.01,0.08 0,0.03 0.03,0.06 0.03,0.07 0,0 -0.13,0.19 0.07,0.29 0.06,0.02 0.01,-0.02 0.04,0.06 0.05,0.09 0.18,0.19 0.3,0.19 0.15,0 0.24,-0.04 0.33,-0.16 0.04,-0.05 0.03,-0.05 0.04,-0.07 0.02,-0.03 -0.01,-0.01 0.03,-0.02 0.02,-0.01 0.02,-0.01 0.04,-0.02 0.02,-0.02 0.03,-0.04 0.05,-0.07 0.02,-0.03 0.02,-0.04 0.02,-0.09l0.07 0.07c0.06,-0.04 0.08,-0.1 0.15,-0.12 0.07,-0.01 0.14,0.05 0.14,0.13l0 0.11 0.36 0 0 -0.11c0,-0.08 0.06,-0.14 0.13,-0.13 0.08,0.02 0.1,0.08 0.15,0.12l0.26 -0.25c-0.04,-0.06 -0.1,-0.08 -0.12,-0.15 -0.01,-0.07 0.05,-0.14 0.13,-0.14l0.11 0 0 -0.36 -0.11 0c-0.08,0 -0.14,-0.06 -0.13,-0.13 0.02,-0.08 0.08,-0.1 0.12,-0.15l-0.25 -0.26c-0.06,0.03 -0.08,0.1 -0.15,0.12 -0.08,0.01 -0.14,-0.05 -0.14,-0.13l0 -0.11 -0.12 0c0,-0.04 -0.01,-0.11 -0.02,-0.15 -0.01,-0.05 -0.02,-0.08 -0.03,-0.13 0.02,-0.03 0.07,-0.08 0.11,-0.11l0.57 -0.57c0.2,-0.2 0.2,-0.51 0.01,-0.7 -0.19,-0.19 -0.5,-0.19 -0.69,0.01l-0.69 0.68z"/>
   <path class="fil0" d="M2.82 2.64c0,-0.08 0.12,-0.08 0.12,0 0,0.08 -0.12,0.08 -0.12,0zm-0.12 -0.01c0,0.26 0.36,0.26 0.36,0 0,-0.1 -0.08,-0.17 -0.2,-0.17 -0.08,0 -0.16,0.08 -0.16,0.17z"/>
  </g>
 </g>
</svg>
