<?xml version="1.0" encoding="UTF-8"?>
<!DOCTYPE svg PUBLIC "-//W3C//DTD SVG 1.1//EN" "http://www.w3.org/Graphics/SVG/1.1/DTD/svg11.dtd">
<!-- Creator: CorelDRAW 2020 (64-Bit) -->
<svg xmlns="http://www.w3.org/2000/svg" xml:space="preserve" width="415px" height="378px" version="1.1" style="shape-rendering:geometricPrecision; text-rendering:geometricPrecision; image-rendering:optimizeQuality; fill-rule:evenodd; clip-rule:evenodd"
viewBox="0 0 4.36 3.97"
 xmlns:xlink="http://www.w3.org/1999/xlink"
 xmlns:xodm="http://www.corel.com/coreldraw/odm/2003">
 <defs>
  <style type="text/css">
   <![CDATA[
    .fil0 {fill:black}
   ]]>
  </style>
 </defs>
 <g id="Layer_x0020_1">
  <metadata id="CorelCorpID_0Corel-Layer"/>
  <g id="_2542965115824">
   <path class="fil0" d="M1.96 3.47c-0.08,0 -0.22,0.01 -0.3,-0.01 -0.02,-0.09 -0.01,-1.01 -0.01,-1.19 0.09,0 0.21,-0.02 0.29,-0.04 0.03,-0.01 0.05,-0.02 0.08,-0.03l0 1.16c0,0.06 0.01,0.11 -0.06,0.11zm-1.64 -0.71c-0.22,0 -0.3,-0.26 -0.14,-0.39 0.02,-0.02 0.03,-0.03 0.05,-0.04 0.03,-0.03 0.06,-0.05 0.09,-0.08 0.13,-0.1 0.36,-0.26 0.51,-0.34l0.11 0.11c-0.11,0.2 -0.27,0.42 -0.42,0.6 -0.04,0.06 -0.1,0.14 -0.2,0.14zm0.34 -1.52c0,-0.25 0.04,-0.42 0.18,-0.61l0.1 -0.12c0.14,-0.15 0.37,-0.27 0.57,-0.29 0.04,0 0.08,0 0.11,-0.01 0.11,0 0.3,0.04 0.4,0.09 0.16,0.07 0.3,0.17 0.4,0.31 0.1,0.13 0.19,0.34 0.19,0.52 0,0.23 0,0.28 -0.09,0.49 -0.06,0.15 -0.2,0.3 -0.33,0.38 -0.39,0.27 -0.92,0.22 -1.24,-0.1 -0.14,-0.14 -0.29,-0.38 -0.29,-0.66zm3.07 -1.11c0.05,0 0.11,-0.01 0.16,-0.02l-0.11 0.1c-0.01,0.02 -0.02,0.02 -0.04,0.03 -0.03,0.03 -0.04,0.04 -0.07,0.07l-0.84 0.76c-0.04,0.04 -0.09,0.08 -0.12,0.1 0,-0.29 -0.12,-0.54 -0.32,-0.74 -0.51,-0.51 -1.39,-0.37 -1.72,0.29 -0.15,0.3 -0.14,0.69 0.02,0.98 0.02,0.05 0.05,0.09 0.08,0.13l-0.23 0.14c-0.08,0.06 -0.32,0.24 -0.41,0.32 -0.25,0.22 -0.11,0.56 0.19,0.56 0.17,0 0.24,-0.13 0.32,-0.22l0.38 -0.55c0.03,0.01 0.23,0.16 0.48,0.18 0.07,0.01 0.06,0.01 0.06,0.09l0 1.09c0.01,0.16 0.22,0.12 0.41,0.12 0.16,0 0.15,-0.15 0.15,-0.23l0 -1.17c0.26,-0.14 0.45,-0.36 0.55,-0.64 0.02,-0.08 0.03,-0.19 0.04,-0.21 0.01,-0.03 0.03,-0.03 0.05,-0.05l0.32 -0.29c0.03,-0.02 0.03,-0.03 0.06,-0.06l0.19 -0.16c0.02,-0.03 0.04,-0.03 0.06,-0.06l0.45 -0.4c0.02,-0.02 0.11,-0.11 0.13,-0.11 0,0.07 -0.05,0.21 0.03,0.21 0.06,0 0.06,-0.11 0.06,-0.15 0.04,-0.28 0.06,-0.25 -0.21,-0.22 -0.03,0 -0.11,0.01 -0.13,0.02 -0.05,0.02 -0.02,0.09 0.01,0.09z"/>
   <path class="fil0" d="M1.65 1.92l0 -0.59c0,-0.02 0.02,-0.03 0.04,-0.03l0.3 0c0.03,0 0.03,0.02 0.03,0.05l0 0.44c0,0.03 -0.03,0.04 -0.06,0.06 -0.1,0.04 -0.21,0.07 -0.31,0.07zm-0.5 -0.67c0.01,0.03 0.01,0.03 0.03,0.05 0.06,-0.01 0.17,-0.11 0.21,-0.15 0.02,-0.02 0.03,-0.02 0.05,-0.04 0.02,-0.02 0.05,-0.04 0.07,-0.07l0.32 -0.27 0.51 0.58c-0.01,0.08 -0.04,0.16 -0.08,0.22 -0.03,0.05 -0.09,0.13 -0.14,0.16 0,-0.08 0.02,-0.41 -0.02,-0.46 -0.02,-0.03 -0.06,-0.07 -0.1,-0.07l-0.31 0c-0.04,0 -0.07,0.02 -0.09,0.04 -0.02,0.01 -0.04,0.06 -0.04,0.09l0 0.59c-0.31,-0.01 -0.65,-0.34 -0.65,-0.71 0,-0.23 0.08,-0.39 0.21,-0.52 0.12,-0.12 0.29,-0.22 0.47,-0.22 0.17,0 0.22,0 0.38,0.08 0.09,0.04 0.13,0.09 0.2,0.15 0.02,0.03 0.06,0.07 0.08,0.1 0.08,0.13 0.11,0.25 0.11,0.42l-0.34 -0.39c-0.19,-0.2 -0.13,-0.22 -0.27,-0.11l-0.53 0.45c-0.04,0.03 -0.04,0.02 -0.07,0.08zm-0.33 -0.08c0,0.21 0.04,0.35 0.15,0.51 0.05,0.07 0.13,0.14 0.2,0.19 0.55,0.38 1.29,-0.03 1.29,-0.65 0,-0.24 -0.06,-0.39 -0.2,-0.56 -0.14,-0.18 -0.41,-0.3 -0.63,-0.29l-0.17 0.02c-0.16,0.04 -0.28,0.11 -0.4,0.22 -0.13,0.12 -0.24,0.36 -0.24,0.56z"/>
   <path class="fil0" d="M0.7 3.82c0,-0.02 0.02,-0.06 0.05,-0.06l3.47 0c0.05,0 0.07,0.12 -0.02,0.12l-3.43 0c-0.03,0 -0.07,-0.02 -0.07,-0.06zm-0.09 0c0,0.09 0.07,0.15 0.16,0.15l3.43 0c0.07,0 0.16,-0.06 0.16,-0.13l0 -0.04c0,-0.06 -0.07,-0.13 -0.13,-0.13l-3.49 0c-0.07,0 -0.13,0.07 -0.13,0.15z"/>
   <path class="fil0" d="M3.59 3.43l0 -2.58c0,-0.03 0.02,-0.04 0.05,-0.04l0.26 0c0.03,0 0.05,0.01 0.05,0.04l0 2.58c0,0.03 -0.02,0.04 -0.05,0.04l-0.26 0c-0.03,0 -0.05,-0.01 -0.05,-0.04zm-0.11 -2.51l0 2.45c0,0.24 0.17,0.19 0.43,0.19 0.07,0 0.14,-0.05 0.14,-0.12l0 -2.59c0,-0.08 -0.07,-0.13 -0.14,-0.13 -0.09,0 -0.29,-0.02 -0.35,0.01 -0.07,0.04 -0.08,0.11 -0.08,0.19z"/>
   <path class="fil0" d="M2.94 3.41l0 -1.89c0,-0.02 0,-0.02 0,-0.04 0.08,-0.02 0.24,-0.01 0.33,-0.01 0.02,0 0.04,0.02 0.04,0.04l0 1.91c0,0.02 -0.01,0.02 -0.01,0.04 -0.08,0.02 -0.22,0.01 -0.3,0.01 -0.04,0 -0.06,-0.02 -0.06,-0.06zm-0.1 -1.89l0 1.9c0,0.19 0.23,0.14 0.41,0.14 0.09,0 0.15,-0.05 0.15,-0.12l0 -1.94c0,-0.06 -0.06,-0.12 -0.12,-0.12l-0.32 0c-0.07,0 -0.12,0.07 -0.12,0.14z"/>
   <path class="fil0" d="M2.29 3.43l0 -1.11c0,-0.02 0.03,-0.04 0.06,-0.04l0.26 0c0.02,0 0.06,0.02 0.06,0.04l0 1.11c0,0.02 -0.03,0.04 -0.05,0.04l-0.28 0c-0.02,0 -0.05,-0.02 -0.05,-0.04zm-0.09 -1.1l0 1.1c0,0.07 0.06,0.13 0.14,0.13 0.18,0 0.42,0.05 0.42,-0.13l0 -1.12c0,-0.07 -0.07,-0.13 -0.16,-0.13 -0.18,0 -0.4,-0.03 -0.4,0.15z"/>
   <path class="fil0" d="M1.36 3.46c-0.08,0.02 -0.21,0.01 -0.3,0.01 -0.03,0 -0.05,-0.01 -0.05,-0.04l0 -0.72c0,-0.02 0.01,-0.03 0.03,-0.03l0.3 0c0.03,0 0.04,0.04 0.04,0.08l0 0.63c0,0.03 -0.01,0.05 -0.02,0.07zm-0.45 -0.75l0 0.73c0,0.07 0.07,0.12 0.14,0.12 0.22,0 0.43,0.05 0.43,-0.16l0 -0.65c0,-0.09 -0.06,-0.17 -0.13,-0.17l-0.32 0c-0.05,0 -0.12,0.07 -0.12,0.13z"/>
  </g>
 </g>
</svg>
