<?xml version="1.0" encoding="UTF-8"?>
<!DOCTYPE svg PUBLIC "-//W3C//DTD SVG 1.1//EN" "http://www.w3.org/Graphics/SVG/1.1/DTD/svg11.dtd">
<!-- Creator: CorelDRAW 2020 (64-Bit) -->
<svg xmlns="http://www.w3.org/2000/svg" xml:space="preserve" width="400px" height="397px" version="1.1" style="shape-rendering:geometricPrecision; text-rendering:geometricPrecision; image-rendering:optimizeQuality; fill-rule:evenodd; clip-rule:evenodd"
viewBox="0 0 4.37 4.33"
 xmlns:xlink="http://www.w3.org/1999/xlink"
 xmlns:xodm="http://www.corel.com/coreldraw/odm/2003">
 <defs>
  <style type="text/css">
   <![CDATA[
    .fil0 {fill:#434242}
   ]]>
  </style>
 </defs>
 <g id="Layer_x0020_1">
  <metadata id="CorelCorpID_0Corel-Layer"/>
  <g id="_2542603022064">
   <path class="fil0" d="M3.22 3.01l-0.01 0 0 0.01 -0.01 0 0 0.01 -0.01 0 0 0.01 -0.01 0 0 0.01 -0.01 0 0 0 0 0 0 0.01 -0.01 0 0 0.01 -0.01 0 0 0.01 -0.01 0 0 0.01 -0.01 0 0 0.01 -0.01 0 0 0.01 -0.01 0 0 0 0 0 0 0.01 -0.01 0 0 0.01 -0.01 0 0 0.01 -0.01 0 0 0.01 -0.01 0 0 0.01 -0.01 0 0 0.01 -0.01 0 0 0 0 0 0 0.01 -0.01 0 0 0.01 -0.01 0 0 -0.01 -0.01 0 0 -0.01 -0.01 0 0 0 -0.01 0 0 -0.01 -0.01 0 0 -0.01 0 0 0 -0.01 -0.01 0 0 -0.01 -0.01 0 0 -0.01 -0.01 0 0 -0.01 0.01 0 0 0 0.02 0 0 -0.01 0 0 0 -0.01 0.01 0 0 -0.01 0.01 0 0 -0.01 0.01 0 0 -0.01 0.01 0 0 -0.01 0.01 0 0 0 0.01 0 0 -0.01 0 0 0 -0.01 0.01 0 0 -0.01 0.01 0 0 -0.01 0.01 0 0 -0.01 0.01 0 0 -0.01 0.01 0 0 0 0.01 0 0 -0.01 0 0 0 -0.01 0.01 0 0 -0.01 0.01 0 0 -0.01 0.01 0 0 -0.02 0.01 0 0 0 0.01 0 0 0 0.01 0 0 0.01 0 0 0 0.01 0.01 0 0 0.01 0.01 0 0 0.01 0.01 0 0 0.01 0.01 0 0 0.01 0.01 0 0 0 0 0 0 0.01 0 0 0 0.01zm-2.41 -1.07l0.01 0 0 -0.07 0.01 0 0 -0.05 0.01 0 0 -0.05 0 0 0 -0.03 0.01 0 0 -0.03 0.01 0 0 -0.03 0.01 0 0 -0.03 0.01 0 0 -0.03 0.01 0 0 -0.02 0.01 0 0 -0.02 0 0 0 -0.02 0.01 0 0 -0.02 0.01 0 0 -0.02 0.01 0 0 -0.02 0.01 0 0 -0.02 0.01 0 0 -0.01 0.01 0 0 -0.02 0 0 0 -0.02 0.01 0 0 -0.01 0.01 0 0 -0.02 0.01 0 0 -0.01 0.01 0 0 -0.02 0.01 0 0 -0.01 0.01 0 0 -0.01 0 0 0 -0.02 0.01 0 0 -0.01 0.01 0 0 -0.01 0.01 0 0 -0.01 0.01 0 0 -0.01 0.01 0 0 -0.02 0 0 0 -0.01 0.01 0 0 -0.01 0.01 0 0 -0.01 0.01 0 0 -0.01 0.01 0 0 -0.01 0.01 0 0 -0.01 0.01 0 0 -0.01 0 0 0 -0.01 0.01 0 0 -0.01 0.01 0 0 -0.01 0.01 0 0 -0.01 0.01 0 0 -0.01 0.01 0 0 -0.01 0.01 0 0 -0.01 0 0 0 0 0.01 0 0 -0.01 0.01 0 0 -0.01 0.01 0 0 -0.01 0.01 0 0 -0.01 0.02 0 0 -0.01 0 0 0 -0.01 0.01 0 0 0 0.01 0 0 -0.01 0.01 0 0 -0.01 0.02 0 0 -0.01 0.01 0 0 -0.01 0 0 0 -0.01 0.01 0 0 0 0.02 0 0 -0.01 0.01 0 0 -0.01 0.01 0 0 -0.01 0.01 0 0 -0.01 0.02 0 0 -0.01 0.01 0 0 -0.01 0.02 0 0 0 0 0 0 -0.01 0.02 0 0 -0.01 0.02 0 0 -0.01 0.02 0 0 -0.01 0.01 0 0 -0.01 0.02 0 0 -0.01 0.02 0 0 0 0.01 0 0 -0.01 0.02 0 0 -0.01 0.02 0 0 -0.01 0.02 0 0 -0.01 0.02 0 0 -0.01 0.03 0 0 -0.01 0.02 0 0 0 0.03 0 0 -0.01 0.03 0 0 -0.01 0.03 0 0 -0.01 0.04 0 0 -0.01 0.04 0 0 -0.01 0.05 0 0 -0.01 0.09 0 0 0 0.19 0 0 0 0.07 0 0 0.01 0.06 0 0 0.01 0.05 0 0 0.01 0.03 0 0 0.01 0.03 0 0 0.01 0.03 0 0 0.01 0.03 0 0 0 0.02 0 0 0.01 0.03 0 0 0.01 0.02 0 0 0.01 0.02 0 0 0.01 0.02 0 0 0.01 0.02 0 0 0.01 0.02 0 0 0 0.02 0 0 0.01 0.01 0 0 0.01 0.02 0 0 0.01 0.02 0 0 0.01 0.01 0 0 0.01 0.01 0 0 0.01 0.02 0 0 0 0.02 0 0 0.01 0.01 0 0 0.01 0.01 0 0 0.01 0.01 0 0 0.01 0.02 0 0 0.01 0.01 0 0 0.01 0.01 0 0 0 0.01 0 0 0.01 0.01 0 0 0.01 0.01 0 0 0.01 0.02 0 0 0.01 0 0 0 0.01 0.01 0 0 0 0.01 0 0 0.01 0.02 0 0 0.01 0.01 0 0 0.01 0.01 0 0 0.01 0 0 0 0.01 0.01 0 0 0.01 0.01 0 0 0 0.01 0 0 0.01 0.01 0 0 0.01 0.01 0 0 0.01 0.01 0 0 0.01 0 0 0 0.01 0.01 0 0 0.01 0.01 0 0 0 0.01 0 0 0.01 0.01 0 0 0.02 0.01 0 0 0.01 0.01 0 0 0.01 0 0 0 0.01 0.01 0 0 0 0.01 0 0 0.02 0.01 0 0 0.01 0.01 0 0 0.01 0.01 0 0 0.02 0.01 0 0 0 0 0 0 0.02 0.01 0 0 0.01 0.01 0 0 0.02 0.01 0 0 0 0.01 0 0 0.02 0.01 0 0 0.01 0.01 0 0 0.02 0 0 0 0.01 0.01 0 0 0.02 0.01 0 0 0.02 0.01 0 0 0.01 0.01 0 0 0.01 0.01 0 0 0.03 0 0 0 0.02 0.01 0 0 0.01 0.01 0 0 0.03 0.01 0 0 0.02 0.01 0 0 0.02 0.01 0 0 0.03 0.01 0 0 0.02 0 0 0 0.03 0.01 0 0 0.03 0.01 0 0 0.04 0.01 0 0 0.03 0.01 0 0 0.05 0.01 0 0 0.07 0.01 0 0 0.26 -0.01 0 0 0.07 -0.01 0 0 0.05 -0.01 0 0 0.04 -0.01 0 0 0.03 -0.01 0 0 0.03 -0.01 0 0 0.03 0 0 0 0.03 -0.01 0 0 0.02 -0.01 0 0 0.02 -0.01 0 0 0.03 -0.01 0 0 0.01 -0.01 0 0 0.03 -0.01 0 0 0.02 0 0 0 0.01 -0.01 0 0 0.02 -0.01 0 0 0.02 -0.01 0 0 0.01 -0.01 0 0 0.01 -0.01 0 0 0.02 0 0 0 0.02 -0.01 0 0 0.01 -0.01 0 0 0.01 -0.01 0 0 0.02 -0.01 0 0 0.01 -0.01 0 0 0.02 -0.01 0 0 0 0 0 0 0.02 -0.01 0 0 0.01 -0.01 0 0 0.01 -0.01 0 0 0.02 -0.01 0 0 0 -0.01 0 0 0.01 -0.01 0 0 0.01 0 0 0 0.02 -0.01 0 0 0.01 -0.01 0 0 0 -0.01 0 0 0.01 -0.01 0 0 0.01 -0.01 0 0 0.01 -0.01 0 0 0.01 0 0 0 0.01 -0.01 0 0 0.01 -0.01 0 0 0 -0.01 0 0 0.01 -0.01 0 0 0.01 -0.01 0 0 0.01 -0.01 0 0 0.01 0 0 0 0.01 -0.01 0 0 0.01 -0.01 0 0 0 -0.01 0 0 0.01 -0.01 0 0 0.01 -0.02 0 0 0.01 0 0 0 0.01 -0.01 0 0 0.01 -0.01 0 0 0.01 -0.02 0 0 0 -0.01 0 0 0.01 0 0 0 0.01 -0.02 0 0 0.01 -0.01 0 0 0.01 -0.02 0 0 0.01 -0.01 0 0 0.01 -0.01 0 0 0 -0.01 0 0 0.01 -0.02 0 0 0.01 -0.02 0 0 0.01 -0.01 0 0 0.01 -0.01 0 0 0.01 -0.02 0 0 0.01 -0.02 0 0 0 -0.01 0 0 0.01 -0.02 0 0 0.01 -0.03 0 0 0.01 -0.01 0 0 0.01 -0.02 0 0 0.01 -0.02 0 0 0 -0.03 0 0 0.01 -0.03 0 0 0.01 -0.02 0 0 0.01 -0.03 0 0 0.01 -0.03 0 0 0.01 -0.04 0 0 0.01 -0.04 0 0 0 -0.05 0 0 0.01 -0.07 0 0 0.01 -0.24 0 0 -0.01 -0.06 0 0 -0.01 -0.06 0 0 0 -0.04 0 0 -0.01 -0.03 0 0 -0.01 -0.04 0 0 -0.01 -0.02 0 0 -0.01 -0.03 0 0 -0.01 -0.02 0 0 -0.01 -0.03 0 0 0 -0.02 0 0 -0.01 -0.02 0 0 -0.01 -0.02 0 0 -0.01 -0.02 0 0 -0.01 -0.01 0 0 -0.01 -0.02 0 0 0 -0.02 0 0 -0.01 -0.01 0 0 -0.01 -0.02 0 0 -0.01 -0.02 0 0 -0.01 -0.01 0 0 -0.01 -0.01 0 0 -0.01 -0.02 0 0 0 -0.01 0 0 -0.01 -0.02 0 0 -0.01 -0.01 0 0 -0.01 -0.01 0 0 -0.01 -0.01 0 0 -0.01 -0.02 0 0 -0.01 -0.01 0 0 0 0 0 0 -0.01 -0.01 0 0 -0.01 -0.02 0 0 -0.01 -0.01 0 0 -0.01 -0.01 0 0 -0.01 -0.01 0 0 -0.01 0 0 0 0 -0.02 0 0 -0.01 -0.01 0 0 -0.01 -0.01 0 0 -0.01 -0.01 0 0 -0.01 -0.01 0 0 -0.01 0 0 0 -0.01 -0.01 0 0 0 -0.01 0 0 -0.01 -0.01 0 0 -0.01 -0.01 0 0 -0.01 -0.01 0 0 -0.01 -0.01 0 0 -0.01 0 0 0 -0.01 -0.01 0 0 -0.01 -0.01 0 0 -0.01 -0.01 0 0 -0.01 -0.01 0 0 -0.01 -0.01 0 0 -0.01 -0.01 0 0 -0.01 0 0 0 -0.01 -0.01 0 0 -0.01 -0.01 0 0 -0.02 -0.01 0 0 -0.01 -0.01 0 0 0 -0.01 0 0 -0.02 0 0 0 -0.01 -0.01 0 0 -0.02 -0.01 0 0 -0.01 -0.01 0 0 -0.01 -0.01 0 0 -0.02 -0.01 0 0 -0.01 -0.01 0 0 -0.02 0 0 0 -0.01 -0.01 0 0 -0.02 -0.01 0 0 -0.02 -0.01 0 0 -0.01 -0.01 0 0 -0.02 -0.01 0 0 -0.03 -0.01 0 0 -0.01 0 0 0 -0.02 -0.01 0 0 -0.03 -0.01 0 0 -0.02 -0.01 0 0 -0.03 -0.01 0 0 -0.02 -0.01 0 0 -0.04 -0.01 0 0 -0.03 0 0 0 -0.04 -0.01 0 0 -0.05 -0.01 0 0 -0.07 -0.01 0 0 -0.23zm-0.64 -1.93l-0.02 0 0 0.01 -0.02 0 0 0.01 -0.02 0 0 0 -0.02 0 0 0.01 0 0 0 0.01 -0.01 0 0 0.01 -0.01 0 0 0.01 -0.01 0 0 0.01 -0.01 0 0 0.01 -0.01 0 0 0 -0.01 0 0 0.02 0 0 0 0.02 -0.01 0 0 0.02 -0.01 0 0 0.02 -0.01 0 0 2.67 0.01 0 0 0.01 0.01 0 0 0.01 0.01 0 0 0.01 0.01 0 0 0 0.05 0 0 0 0.01 0 0 -0.01 0.01 0 0 -0.01 0.01 0 0 -0.01 0.01 0 0 -2.63 0.01 0 0 -0.02 0.01 0 0 -0.02 0 0 0 -0.01 0.01 0 0 -0.01 0.01 0 0 0 0.02 0 0 -0.01 0.02 0 0 -0.01 2.78 0 0 0.01 0.04 0 0 0.01 0.01 0 0 0 0.01 0 0 0.01 0.01 0 0 0.02 0.01 0 0 0.02 0.01 0 0 0.87 -0.01 0 0 -0.01 -0.01 0 0 -0.01 -0.01 0 0 -0.01 0 0 0 -0.01 -0.01 0 0 -0.01 -0.01 0 0 0 -0.01 0 0 -0.01 -0.01 0 0 -0.01 -0.01 0 0 -0.01 -0.01 0 0 -0.01 -0.01 0 0 -0.01 -0.01 0 0 -0.01 -0.01 0 0 0 -0.01 0 0 -0.01 -0.02 0 0 -0.01 0 0 0 -0.01 -0.01 0 0 -0.01 -0.02 0 0 -0.01 -0.01 0 0 -0.01 -0.01 0 0 0 -0.01 0 0 -0.01 -0.01 0 0 -0.01 -0.02 0 0 -0.01 -0.01 0 0 -0.01 -0.01 0 0 -0.01 -0.01 0 0 -0.01 -0.02 0 0 0 -0.02 0 0 -0.01 -0.01 0 0 -0.01 -0.01 0 0 -0.01 -0.02 0 0 -0.01 -0.02 0 0 -0.01 -0.01 0 0 -0.01 -0.02 0 0 0 -0.02 0 0 -0.01 -0.02 0 0 -0.01 -0.02 0 0 -0.01 -0.02 0 0 -0.01 -0.02 0 0 -0.01 -0.02 0 0 0 -0.03 0 0 -0.01 -0.02 0 0 -0.01 -0.03 0 0 -0.01 -0.03 0 0 -0.01 -0.03 0 0 -0.01 -0.03 0 0 -0.01 -0.04 0 0 0 -0.06 0 0 -0.01 -0.05 0 0 -0.01 -0.13 0 0 -0.01 -0.07 0 0 0.01 -0.12 0 0 0.01 -0.07 0 0 0.01 -0.04 0 0 0 -0.04 0 0 0.01 -0.04 0 0 0.01 -0.03 0 0 0.01 -0.03 0 0 0.01 -0.03 0 0 0.01 -0.02 0 0 0.01 -0.02 0 0 0 -0.03 0 0 0.01 -0.02 0 0 0.01 -0.02 0 0 0.01 -0.02 0 0 0.01 -0.02 0 0 0.01 -0.02 0 0 0 -0.02 0 0 0.01 -0.02 0 0 0.01 -0.01 0 0 0.01 -0.01 0 0 0.01 -0.02 0 0 0.01 -0.02 0 0 0.01 -0.01 0 0 0 -0.01 0 0 0.01 -0.02 0 0 0.01 -0.01 0 0 0.01 -0.01 0 0 0.01 -0.01 0 0 0.01 -0.02 0 0 0.01 -0.01 0 0 0 -0.02 0 0 0.01 0 0 0 0.01 -0.01 0 0 0.01 -0.02 0 0 0.01 -0.01 0 0 0.01 -0.01 0 0 0.01 -0.01 0 0 0 -0.01 0 0 0.01 -0.01 0 0 0.01 -0.01 0 0 0.01 -0.01 0 0 0.01 -0.01 0 0 0.01 -0.01 0 0 0.01 0 0 0 0 -0.02 0 0 0.01 -0.01 0 0 0.01 -0.01 0 0 0.01 -0.01 0 0 0.01 -0.01 0 0 0.01 0 0 0 0 -0.01 0 0 0.02 -0.01 0 0 0.01 -0.01 0 0 0.01 -0.01 0 0 0.01 -0.01 0 0 0.01 0 0 0 0 -0.01 0 0 0.01 -0.01 0 0 0.02 -0.01 0 0 0.01 -0.01 0 0 0.01 -0.01 0 0 0.01 -0.01 0 0 0.01 0 0 0 0.01 -0.01 0 0 0.01 -0.01 0 0 0.02 -0.01 0 0 0.01 -0.01 0 0 0.01 -0.01 0 0 0.01 -0.01 0 0 0.02 0 0 0 0.01 -0.01 0 0 0.01 -0.01 0 0 0.01 -0.01 0 0 0.02 -0.01 0 0 0.02 -0.01 0 0 0.01 -0.01 0 0 0.02 0 0 0 0.01 -0.01 0 0 0.02 -0.01 0 0 0.01 -0.01 0 0 0.03 -0.01 0 0 0.02 -0.01 0 0 0.01 -0.01 0 0 0.02 0 0 0 0.03 -0.01 0 0 0.02 -0.01 0 0 0.02 -0.01 0 0 0.02 -0.01 0 0 0.04 -0.01 0 0 0.02 0 0 0 0.04 -0.01 0 0 0.03 -0.01 0 0 0.04 -0.01 0 0 0.05 -0.01 0 0 0.07 -0.01 0 0 0.13 -0.01 0 0 0.04 0.01 0 0 0.13 0.01 0 0 0.07 0.01 0 0 0.05 0.01 0 0 0.04 0.01 0 0 0.04 0.01 0 0 0.02 0 0 0 0.04 0.01 0 0 0.02 0.01 0 0 0.03 0.01 0 0 0.03 0.01 0 0 0.01 0.01 0 0 0.03 0 0 0 0.01 0.01 0 0 0.02 0.01 0 0 0.03 0.01 0 0 0.01 0.01 0 0 0.02 0.01 0 0 0.02 0.01 0 0 0.02 0 0 0 0.01 0.01 0 0 0.01 0.01 0 0 0.02 0.01 0 0 0.02 0.01 0 0 0 0.01 0 0 0.02 0.01 0 0 0.02 0 0 0 0.01 0.01 0 0 0.01 0.01 0 0 0.01 0.01 0 0 0.02 0.01 0 0 0.01 0.01 0 0 0.01 0.01 0 0 0.01 0 0 0 0.01 0.01 0 0 0.01 0.01 0 0 0.02 0.01 0 0 0.01 0.01 0 0 0 0.01 0 0 0.01 0.01 0 0 0.01 0 0 0 0.01 0.01 0 0 0.02 0.01 0 0 0.01 0.01 0 0 0 0.01 0 0 0.01 0.01 0 0 0.01 0 0 0 0.01 0.01 0 0 0.01 0.01 0 0 0.01 0.01 0 0 0.01 0.01 0 0 0 0.01 0 0 0.01 0.01 0 0 0.01 0 0 0 0.01 0.01 0 0 0.01 0.02 0 0 0.01 0.01 0 0 0.01 0.01 0 0 0 0.01 0 0 0.01 0 0 0 0.01 0.02 0 0 0.01 0.01 0 0 0.01 0.01 0 0 0.01 0.01 0 0 0.01 0.01 0 0 0 0.01 0 0 0.01 0.02 0 0 0.01 0.01 0 0 0.01 0.02 0 0 0.01 0 0 0 0.01 0.02 0 0 0 0.01 0 0 0.01 0.02 0 0 0.01 0.01 0 0 0.01 0.01 0 0 0.01 0.02 0 0 0.01 0.02 0 0 0.01 0.01 0 0 0 0.02 0 0 0.01 0.02 0 0 0.01 0.01 0 0 0.01 0.02 0 0 0.01 0.02 0 0 0.01 0.02 0 0 0.01 0.02 0 0 0 0.03 0 0 0.01 0.02 0 0 0.01 0.02 0 0 0.01 0.03 0 0 0.01 0.03 0 0 0.01 0.02 0 0 0.01 0.05 0 0 0 0.03 0 0 0.01 0.04 0 0 0.01 0.06 0 0 0.01 0.1 0 0 0.01 0.18 0 0 -0.01 0.09 0 0 -0.01 0.05 0 0 -0.01 0.04 0 0 -0.01 0.05 0 0 0 0.03 0 0 -0.01 0.04 0 0 -0.01 0.02 0 0 -0.01 0.03 0 0 -0.01 0.02 0 0 -0.01 0.03 0 0 -0.01 0.01 0 0 0 0.03 0 0 -0.01 0.02 0 0 -0.01 0.01 0 0 -0.01 0.03 0 0 -0.01 0.02 0 0 -0.01 0.01 0 0 -0.01 0.02 0 0 0 0.01 0 0 -0.01 0.02 0 0 -0.01 0.01 0 0 -0.01 0.02 0 0 -0.01 0.01 0 0 -0.01 0.02 0 0 -0.01 0.01 0 0 0 0.01 0 0 -0.01 0.02 0 0 -0.01 0.01 0 0 0.01 0.01 0 0 0.01 0 0 0 0 0.01 0 0 0.01 0.01 0 0 0.01 0.01 0 0 0.01 0.01 0 0 0.01 0.01 0 0 0.01 0.01 0 0 0.01 0 0 0 0 0.01 0 0 0.07 0.01 0 0 0.02 0.01 0 0 0.02 0.01 0 0 0.01 0.01 0 0 0 0.01 0 0 0.01 0 0 0 0.01 0.01 0 0 0.01 0.01 0 0 0.01 0.01 0 0 0.01 0.01 0 0 0.01 0.01 0 0 0 0.01 0 0 0.01 0 0 0 0.01 0.01 0 0 0.01 0.01 0 0 0.01 0.01 0 0 0.42 -0.01 0 0 0.03 -0.01 0 0 0.01 -0.01 0 0 0.01 0 0 0 0.01 -0.01 0 0 0 -0.02 0 0 0.01 -2.82 0 0 -0.01 -0.02 0 0 0 -0.02 0 0 -0.01 -0.01 0 0 -0.01 0 0 0 -0.02 -0.01 0 0 -0.02 -0.01 0 0 -0.84 -0.01 0 0 -0.02 -0.01 0 0 -0.01 -0.02 0 0 0 -0.06 0 0 0 -0.01 0 0 0.01 -0.01 0 0 0.02 -0.01 0 0 0.87 0.01 0 0 0.03 0.01 0 0 0.02 0.01 0 0 0.02 0 0 0 0.01 0.01 0 0 0.01 0.01 0 0 0.01 0.01 0 0 0.01 0.01 0 0 0.01 0.01 0 0 0.01 0.01 0 0 0.01 0.01 0 0 0 0.02 0 0 0.01 0.02 0 0 0.01 0.01 0 0 0.01 0.04 0 0 0.01 2.83 0 0 -0.01 0.03 0 0 -0.01 0.03 0 0 -0.01 0.02 0 0 -0.01 0.01 0 0 0 0.01 0 0 -0.01 0.01 0 0 -0.01 0.01 0 0 -0.01 0.01 0 0 -0.01 0.01 0 0 -0.01 0.01 0 0 0 0 0 0 -0.02 0.01 0 0 -0.01 0.01 0 0 -0.03 0.01 0 0 -0.01 0.01 0 0 -0.05 0.01 0 0 -0.28 0 0 0 0.01 0.01 0 0 0.01 0.01 0 0 0.01 0.01 0 0 0.01 0.01 0 0 0.01 0.01 0 0 0 0.01 0 0 0.01 0 0 0 0.01 0.01 0 0 0.01 0.01 0 0 0.01 0.01 0 0 0.01 0.01 0 0 0.01 0.01 0 0 0 0.01 0 0 0.01 0 0 0 0.01 0.01 0 0 0.01 0.01 0 0 0.01 0.01 0 0 0.01 0.01 0 0 0 0.01 0 0 0.01 0.01 0 0 0.01 0 0 0 0.01 0.01 0 0 0.01 0.01 0 0 0.01 0.01 0 0 0.01 0.01 0 0 0 0.01 0 0 0.01 0.01 0 0 0.01 0 0 0 0.01 0.01 0 0 0.01 0.01 0 0 0.01 0.01 0 0 0.01 0.01 0 0 0 0.01 0 0 0.01 0 0 0 0.01 0.01 0 0 0.01 0.01 0 0 0.01 0.01 0 0 0.01 0.01 0 0 0.01 0.01 0 0 0 0.01 0 0 0.01 0 0 0 0.01 0.01 0 0 0.01 0.01 0 0 0.01 0.01 0 0 0.01 0.01 0 0 0.01 0.01 0 0 0 0.01 0 0 0.01 0 0 0 0.01 0.01 0 0 0.01 0.01 0 0 0.01 0.01 0 0 0.01 0.01 0 0 0 0.01 0 0 0.01 0.01 0 0 0.01 0 0 0 0.01 0.01 0 0 0.01 0.01 0 0 0.01 0.01 0 0 0.01 0.01 0 0 0 0.01 0 0 0.01 0.01 0 0 0.01 0 0 0 0.01 0.01 0 0 0.01 0.01 0 0 0.01 0.01 0 0 0.01 0.01 0 0 0 0.01 0 0 0.01 0 0 0 0.01 0.01 0 0 0.01 0.01 0 0 0.01 0.01 0 0 0.01 0.01 0 0 0.01 0.01 0 0 0 0.01 0 0 0.01 0.01 0 0 0.01 0.02 0 0 0.01 0.02 0 0 0.01 0.01 0 0 0.01 0.03 0 0 0.01 0.03 0 0 0 0.13 0 0 0 0.04 0 0 -0.01 0.01 0 0 -0.01 0.03 0 0 -0.01 0.02 0 0 -0.01 0 0 0 -0.01 0.02 0 0 -0.01 0.01 0 0 0 0.01 0 0 -0.01 0.02 0 0 -0.01 0 0 0 -0.01 0.01 0 0 -0.01 0.01 0 0 -0.02 0.01 0 0 0 0.01 0 0 -0.01 0.01 0 0 -0.02 0.01 0 0 -0.01 0 0 0 -0.02 0.01 0 0 -0.02 0.01 0 0 -0.02 0.01 0 0 -0.03 0.01 0 0 -0.14 -0.01 0 0 -0.02 -0.01 0 0 -0.03 -0.01 0 0 -0.02 -0.01 0 0 -0.01 0 0 0 -0.02 -0.01 0 0 -0.02 -0.01 0 0 -0.01 -0.01 0 0 -0.01 -0.01 0 0 0 -0.01 0 0 -0.01 -0.01 0 0 -0.01 0 0 0 -0.01 -0.01 0 0 -0.01 -0.01 0 0 -0.01 -0.01 0 0 0 -0.01 0 0 -0.01 -0.01 0 0 -0.01 -0.01 0 0 -0.01 -0.01 0 0 -0.01 -0.05 0 0 0.01 -0.01 0 0 0.01 -0.01 0 0 0.01 -0.01 0 0 0.01 -0.01 0 0 0.05 0.01 0 0 0.01 0.01 0 0 0.02 0.01 0 0 0.01 0.01 0 0 0.01 0.01 0 0 0.01 0.01 0 0 0.01 0.01 0 0 0.01 0.01 0 0 0.01 0.01 0 0 0.01 0.01 0 0 0.02 0 0 0 0 0.01 0 0 0.03 0.01 0 0 0.03 0.01 0 0 0.06 -0.01 0 0 0.03 -0.01 0 0 0.02 -0.01 0 0 0.02 0 0 0 0.01 -0.01 0 0 0.02 -0.01 0 0 0.01 -0.01 0 0 0 -0.01 0 0 0.01 -0.02 0 0 0.01 0 0 0 0.01 -0.02 0 0 0.01 -0.03 0 0 0.01 -0.03 0 0 0.01 -0.04 0 0 -0.01 -0.05 0 0 -0.01 -0.02 0 0 -0.01 -0.01 0 0 -0.01 -0.02 0 0 -0.01 -0.01 0 0 -0.01 0 0 0 0 -0.01 0 0 -0.01 -0.01 0 0 -0.01 -0.01 0 0 -0.01 -0.01 0 0 -0.01 -0.01 0 0 -0.01 -0.01 0 0 -0.01 0 0 0 0 -0.01 0 0 -0.01 -0.01 0 0 -0.01 -0.01 0 0 -0.01 -0.01 0 0 -0.01 -0.01 0 0 -0.01 -0.01 0 0 0 0 0 0 -0.01 -0.01 0 0 -0.01 -0.01 0 0 -0.01 -0.01 0 0 -0.01 -0.01 0 0 -0.01 -0.01 0 0 -0.01 0 0 0 0 -0.01 0 0 -0.01 -0.01 0 0 -0.01 -0.01 0 0 -0.01 -0.01 0 0 -0.01 -0.01 0 0 -0.01 -0.01 0 0 -0.01 0 0 0 0 -0.01 0 0 -0.01 -0.01 0 0 -0.01 -0.01 0 0 -0.01 -0.01 0 0 -0.01 -0.01 0 0 -0.01 -0.01 0 0 -0.01 0 0 0 0 -0.01 0 0 -0.01 -0.01 0 0 -0.01 -0.01 0 0 -0.01 -0.01 0 0 -0.01 -0.01 0 0 -0.01 -0.01 0 0 -0.01 0 0 0 0 -0.01 0 0 -0.01 -0.01 0 0 -0.01 -0.01 0 0 -0.01 -0.01 0 0 -0.01 -0.01 0 0 -0.01 -0.01 0 0 0 0 0 0 -0.01 -0.01 0 0 -0.01 -0.01 0 0 -0.01 -0.01 0 0 -0.01 -0.01 0 0 -0.01 -0.01 0 0 -0.01 0 0 0 0 -0.01 0 0 -0.01 -0.01 0 0 -0.01 -0.01 0 0 -0.01 -0.01 0 0 -0.01 -0.01 0 0 -0.01 -0.01 0 0 -0.01 0 0 0 0 -0.01 0 0 -0.01 -0.01 0 0 -0.01 -0.01 0 0 -0.01 -0.01 0 0 -0.01 -0.01 0 0 -0.01 -0.01 0 0 -0.01 0 0 0 0 -0.01 0 0 -0.01 -0.01 0 0 -0.01 -0.01 0 0 -0.01 -0.01 0 0 -0.01 -0.01 0 0 -0.01 -0.01 0 0 -0.01 0 0 0 0 -0.01 0 0 -0.01 -0.01 0 0 -0.01 -0.01 0 0 -0.01 -0.01 0 0 -0.01 -0.01 0 0 -0.01 -0.01 0 0 0 0 0 0 -0.01 -0.01 0 0 -0.01 -0.01 0 0 -0.01 -0.01 0 0 -0.01 -0.01 0 0 -0.01 -0.01 0 0 -0.01 0 0 0 0 -0.01 0 0 -0.01 -0.01 0 0 -0.01 -0.01 0 0 -0.01 -0.01 0 0 -0.01 -0.01 0 0 -0.01 -0.01 0 0 -0.01 0 0 0 0 -0.01 0 0 -0.01 -0.01 0 0 -0.01 0.01 0 0 -0.01 0.01 0 0 -0.01 0 0 0 -0.01 0.01 0 0 -0.01 0.01 0 0 0 0.01 0 0 -0.01 0.01 0 0 -0.01 0.01 0 0 -0.01 0.01 0 0 -0.01 0 0 0 -0.01 0.01 0 0 -0.01 0.01 0 0 0 0.01 0 0 -0.01 0.01 0 0 -0.01 0.01 0 0 -0.01 0 0 0 -0.01 0.01 0 0 -0.01 0.01 0 0 0 0.01 0 0 -0.01 0.01 0 0 -0.01 0.01 0 0 -0.01 0.01 0 0 -0.01 0 0 0 -0.01 0.01 0 0 -0.01 0.01 0 0 0 0.01 0 0 -0.01 0.01 0 0 -0.01 0.01 0 0 -0.01 0.01 0 0 -0.01 0 0 0 -0.01 0.01 0 0 -0.01 0.01 0 0 0.01 0.01 0 0 0.01 0.01 0 0 0.01 0.01 0 0 0.01 0.01 0 0 0.01 0.01 0 0 0.01 0.01 0 0 0.01 0.02 0 0 0.01 0.01 0 0 0.02 0.01 0 0 0.01 0.01 0 0 0.01 0.02 0 0 0.01 0.01 0 0 0.02 0.01 0 0 0.02 0.01 0 0 0 0.01 0 0 0.01 0.01 0 0 0.01 0.01 0 0 0.01 0.01 0 0 0.01 0.01 0 0 0.01 0 0 0 0.01 0.01 0 0 0 0.01 0 0 0.01 0.01 0 0 0.01 0.01 0 0 0.01 0.01 0 0 0.01 0.01 0 0 0.01 0.01 0 0 0.01 0.01 0 0 0.01 0.01 0 0 0.01 0.01 0 0 0.01 0.01 0 0 0.01 0.01 0 0 0.01 0 0 0 0.01 0.01 0 0 0 0.01 0 0 0.01 0.01 0 0 0.01 0.01 0 0 0.01 0.01 0 0 0.01 0.01 0 0 0.01 0.01 0 0 0.01 0.01 0 0 0 0.01 0 0 0.01 0.01 0 0 0.01 0.01 0 0 0.01 0 0 0 0.02 0.02 0 0 0.01 0.01 0 0 0.01 0.02 0 0 0.02 0.01 0 0 0.01 0.01 0 0 0.01 0.01 0 0 0.01 0.01 0 0 0.01 0.02 0 0 0.02 0.01 0 0 0.01 0.01 0 0 0.01 0.02 0 0 0 0.03 0 0 0 0.02 0 0 -0.01 0.02 0 0 -0.02 0.01 0 0 -0.02 0.01 0 0 -0.03 -0.01 0 0 -0.02 -0.01 0 0 -0.01 -0.01 0 0 -0.01 -0.01 0 0 0 -0.01 0 0 -0.01 -0.01 0 0 -0.01 0 0 0 -0.01 -0.01 0 0 -0.01 -0.01 0 0 -0.01 -0.01 0 0 0 -0.01 0 0 -0.01 -0.01 0 0 -0.01 -0.01 0 0 -0.01 0 0 0 -0.01 -0.01 0 0 -0.01 -0.01 0 0 -0.01 -0.01 0 0 0 -0.01 0 0 -0.01 -0.01 0 0 -0.01 -0.01 0 0 -0.01 0 0 0 -0.01 -0.01 0 0 -0.01 -0.01 0 0 -0.01 -0.01 0 0 0 -0.01 0 0 -0.01 -0.01 0 0 -0.01 -0.01 0 0 -0.01 0 0 0 -0.01 -0.01 0 0 -0.01 -0.01 0 0 -0.01 -0.01 0 0 0 -0.01 0 0 -0.01 -0.01 0 0 -0.01 0 0 0 -0.01 -0.01 0 0 -0.01 -0.01 0 0 -0.01 -0.01 0 0 -0.01 -0.01 0 0 0 -0.01 0 0 -0.01 -0.01 0 0 -0.01 0 0 0 -0.01 -0.01 0 0 -0.01 -0.01 0 0 -0.01 -0.01 0 0 0 -0.01 0 0 -0.01 -0.01 0 0 -0.01 -0.01 0 0 -0.01 0 0 0 -0.01 -0.01 0 0 -0.01 -0.01 0 0 -0.01 -0.01 0 0 0 -0.01 0 0 -0.01 -0.01 0 0 -0.01 -0.01 0 0 -0.01 0 0 0 -0.01 -0.01 0 0 -0.01 -0.01 0 0 -0.01 -0.01 0 0 0 -0.01 0 0 -0.01 -0.01 0 0 -0.01 -0.01 0 0 -0.01 0 0 0 -0.01 -0.01 0 0 -0.01 -0.01 0 0 -0.01 -0.01 0 0 0 -0.01 0 0 -0.01 -0.01 0 0 -0.01 0 0 0 -0.01 -0.01 0 0 -0.01 -0.01 0 0 -0.01 -0.01 0 0 -0.01 -0.01 0 0 0 -0.02 0 0 -0.01 -0.01 0 0 -0.01 -0.07 0 0 -0.01 -0.01 0 0 -0.01 -0.01 0 0 -0.01 -0.01 0 0 -0.01 -0.01 0 0 0 0 0 0 -0.01 -0.01 0 0 -0.01 -0.01 0 0 -0.01 -0.01 0 0 -0.01 -0.01 0 0 -0.01 -0.01 0 0 0 0.01 0 0 -0.02 0.01 0 0 -0.01 0.01 0 0 -0.02 0.01 0 0 -0.01 0.01 0 0 -0.01 0 0 0 -0.02 0.01 0 0 -0.02 0.01 0 0 -0.01 0.01 0 0 -0.01 0.01 0 0 -0.02 0.01 0 0 -0.02 0.01 0 0 -0.01 0 0 0 -0.03 0.01 0 0 -0.02 0.01 0 0 -0.01 0.01 0 0 -0.03 0.01 0 0 -0.02 0.01 0 0 -0.02 0.01 0 0 -0.03 0 0 0 -0.02 0.01 0 0 -0.03 0.01 0 0 -0.03 0.01 0 0 -0.04 0.01 0 0 -0.04 0.01 0 0 -0.04 0.01 0 0 -0.05 0 0 0 -0.09 0.01 0 0 -0.19 -0.01 0 0 -0.09 0 0 0 -0.06 -0.01 0 0 -0.04 -0.01 0 0 -0.05 -0.01 0 0 -0.03 -0.01 0 0 -0.02 -0.01 0 0 -0.04 -0.01 0 0 -0.02 0 0 0 -0.03 -0.01 0 0 -0.02 -0.01 0 0 -0.02 -0.01 0 0 -0.03 -0.01 0 0 -0.02 -0.01 0 0 -0.01 -0.01 0 0 -0.02 0 0 0 -0.02 -0.01 0 0 -0.01 -0.01 0 0 -0.02 -0.01 0 0 -0.02 -0.01 0 0 -0.02 -0.01 0 0 -0.01 -0.01 0 0 -0.02 0 0 0 -0.01 -0.01 0 0 -0.01 -0.01 0 0 -0.01 -0.01 0 0 -0.02 -0.01 0 0 -0.02 -0.01 0 0 -0.01 -0.01 0 0 0 0 0 0 -1.05 -0.01 0 0 -0.04 -0.01 0 0 -0.02 -0.01 0 0 -0.02 -0.01 0 0 -0.02 -0.01 0 0 -0.01 0 0 0 0 -0.01 0 0 -0.02 -0.01 0 0 -0.01 -0.01 0 0 -0.01 -0.02 0 0 -0.01 -0.01 0 0 -0.01 -0.01 0 0 0 -0.01 0 0 -0.01 -0.03 0 0 -0.01 -0.02 0 0 -0.01 -2.87 0 0 0.01z"/>
   <path class="fil0" d="M1.18 1.99l0.01 0 0 -0.08 0 0 0 -0.05 0.01 0 0 -0.03 0.01 0 0 -0.04 0.01 0 0 -0.02 0.01 0 0 -0.03 0.01 0 0 -0.02 0.01 0 0 -0.02 0 0 0 -0.02 0.01 0 0 -0.02 0.01 0 0 -0.02 0.01 0 0 -0.02 0.01 0 0 -0.01 0.01 0 0 -0.01 0.01 0 0 -0.02 0 0 0 -0.02 0.01 0 0 -0.01 0.01 0 0 -0.01 0.01 0 0 -0.01 0.01 0 0 -0.02 0.01 0 0 -0.01 0 0 0 -0.01 0.01 0 0 -0.01 0.01 0 0 -0.01 0.01 0 0 -0.01 0.01 0 0 -0.01 0.01 0 0 -0.01 0.01 0 0 -0.01 0 0 0 -0.01 0.01 0 0 -0.01 0.01 0 0 -0.01 0.01 0 0 -0.01 0.01 0 0 -0.01 0.02 0 0 -0.01 0 0 0 -0.01 0.01 0 0 0 0.01 0 0 -0.01 0.01 0 0 -0.01 0.01 0 0 -0.01 0.02 0 0 -0.01 0 0 0 -0.01 0.01 0 0 0 0.02 0 0 -0.01 0.01 0 0 -0.01 0.02 0 0 -0.01 0 0 0 -0.01 0.02 0 0 -0.01 0.02 0 0 -0.01 0.02 0 0 0 0 0 0 -0.01 0.02 0 0 -0.01 0.02 0 0 -0.01 0.02 0 0 -0.01 0.02 0 0 -0.01 0.03 0 0 -0.01 0.02 0 0 0 0.03 0 0 -0.01 0.03 0 0 -0.01 0.04 0 0 -0.01 0.05 0 0 -0.01 0.07 0 0 -0.01 0.12 0 0 0.01 0.09 0 0 0.01 0.04 0 0 0.01 0.04 0 0 0.01 0.03 0 0 0.01 0.03 0 0 0 0.03 0 0 0.01 0.02 0 0 0.01 0.02 0 0 0.01 0.02 0 0 0.01 0.02 0 0 0.01 0.01 0 0 0.01 0.02 0 0 0 0.02 0 0 0.01 0.01 0 0 0.01 0.01 0 0 0.01 0.02 0 0 0.01 0.01 0 0 0.01 0.01 0 0 0.01 0.01 0 0 0 0.01 0 0 0.01 0.02 0 0 0.01 0.01 0 0 0.01 0.01 0 0 0.01 0 0 0 0.01 0.02 0 0 0 0.01 0 0 0.01 0.01 0 0 0.01 0.01 0 0 0.01 0.01 0 0 0.01 0 0 0 0.01 0.01 0 0 0.01 0.01 0 0 0 0.01 0 0 0.01 0.01 0 0 0.01 0.01 0 0 0.02 0.01 0 0 0.01 0 0 0 0.01 0.01 0 0 0 0.01 0 0 0.02 0.01 0 0 0.01 0.01 0 0 0.01 0.01 0 0 0.02 0.01 0 0 0 0 0 0 0.02 0.01 0 0 0.01 0.01 0 0 0.02 0.01 0 0 0.01 0.01 0 0 0.02 0.01 0 0 0.02 0 0 0 0.02 0.01 0 0 0.01 0.01 0 0 0.02 0.01 0 0 0.02 0.01 0 0 0.02 0.01 0 0 0.03 0.01 0 0 0.02 0 0 0 0.04 0.01 0 0 0.03 0.01 0 0 0.04 0.01 0 0 0.06 0.01 0 0 0.2 -0.01 0 0 0.06 -0.01 0 0 0.03 -0.01 0 0 0.04 -0.01 0 0 0.03 0 0 0 0.03 -0.01 0 0 0.02 -0.01 0 0 0.02 -0.01 0 0 0.02 -0.01 0 0 0.02 -0.01 0 0 0.02 -0.01 0 0 0.02 0 0 0 0.01 -0.01 0 0 0.01 -0.01 0 0 0.02 -0.01 0 0 0.02 -0.01 0 0 0.01 -0.01 0 0 0.01 0 0 0 0.01 -0.01 0 0 0.01 -0.01 0 0 0.02 -0.01 0 0 0 -0.01 0 0 0.01 -0.01 0 0 0.02 -0.01 0 0 0.01 0 0 0 0.01 -0.01 0 0 0.01 -0.01 0 0 0 -0.01 0 0 0.01 -0.01 0 0 0.01 -0.01 0 0 0.01 -0.01 0 0 0.01 0 0 0 0.01 -0.01 0 0 0.01 -0.01 0 0 0 -0.01 0 0 0.01 -0.01 0 0 0.01 -0.01 0 0 0.01 -0.01 0 0 0.01 -0.01 0 0 0.01 -0.01 0 0 0.01 -0.01 0 0 0 -0.02 0 0 0.01 -0.01 0 0 0.01 -0.01 0 0 0.01 -0.01 0 0 0.01 -0.02 0 0 0.01 -0.01 0 0 0.01 -0.01 0 0 0 -0.02 0 0 0.01 -0.02 0 0 0.01 -0.01 0 0 0.01 -0.02 0 0 0.01 -0.02 0 0 0.01 -0.02 0 0 0 -0.02 0 0 0.01 -0.03 0 0 0.01 -0.02 0 0 0.01 -0.04 0 0 0.01 -0.03 0 0 0.01 -0.04 0 0 0.01 -0.06 0 0 0 -0.18 0 0 0 -0.07 0 0 -0.01 -0.04 0 0 -0.01 -0.04 0 0 -0.01 -0.02 0 0 -0.01 -0.04 0 0 -0.01 -0.01 0 0 -0.01 -0.03 0 0 0 -0.02 0 0 -0.01 -0.02 0 0 -0.01 -0.02 0 0 -0.01 -0.02 0 0 -0.01 -0.01 0 0 -0.01 -0.01 0 0 0 -0.02 0 0 -0.01 -0.02 0 0 -0.01 0 0 0 -0.01 -0.02 0 0 -0.01 -0.01 0 0 -0.01 -0.02 0 0 -0.01 -0.01 0 0 0 -0.01 0 0 -0.01 -0.01 0 0 -0.01 -0.01 0 0 -0.01 -0.01 0 0 -0.01 -0.01 0 0 -0.01 -0.01 0 0 -0.01 -0.01 0 0 0 -0.01 0 0 -0.01 -0.01 0 0 -0.01 -0.01 0 0 -0.01 -0.01 0 0 -0.01 -0.01 0 0 -0.01 0 0 0 -0.01 -0.01 0 0 0 -0.01 0 0 -0.01 -0.01 0 0 -0.02 -0.01 0 0 -0.01 -0.01 0 0 -0.01 -0.01 0 0 -0.01 0 0 0 -0.01 -0.01 0 0 -0.01 -0.01 0 0 -0.01 -0.01 0 0 -0.02 -0.01 0 0 0 -0.01 0 0 -0.02 0 0 0 -0.02 -0.01 0 0 -0.01 -0.01 0 0 -0.01 -0.01 0 0 -0.02 -0.01 0 0 -0.02 -0.01 0 0 -0.02 -0.01 0 0 -0.01 0 0 0 -0.03 -0.01 0 0 -0.02 -0.01 0 0 -0.02 -0.01 0 0 -0.04 -0.01 0 0 -0.02 -0.01 0 0 -0.03 -0.01 0 0 -0.06 0 0 0 -0.06 -0.01 0 0 -0.13zm0.77 -0.97l-0.06 0 0 0.01 -0.04 0 0 0.01 -0.03 0 0 0.01 -0.04 0 0 0.01 -0.02 0 0 0.01 -0.03 0 0 0 -0.02 0 0 0.01 -0.02 0 0 0.01 -0.03 0 0 0.01 -0.01 0 0 0.01 -0.02 0 0 0.01 -0.02 0 0 0.01 -0.01 0 0 0 -0.02 0 0 0.01 -0.02 0 0 0.01 -0.01 0 0 0.01 -0.01 0 0 0.01 -0.02 0 0 0.01 -0.01 0 0 0.01 -0.02 0 0 0 -0.01 0 0 0.01 0 0 0 0.01 -0.02 0 0 0.01 -0.01 0 0 0.01 -0.01 0 0 0.01 -0.02 0 0 0.01 0 0 0 0 -0.01 0 0 0.01 -0.01 0 0 0.01 -0.01 0 0 0.01 -0.01 0 0 0.01 -0.01 0 0 0.01 -0.01 0 0 0.01 -0.01 0 0 0 -0.01 0 0 0.02 -0.01 0 0 0.01 -0.01 0 0 0.01 -0.01 0 0 0.01 0 0 0 0 -0.01 0 0 0.01 -0.01 0 0 0.01 -0.01 0 0 0.01 -0.01 0 0 0.02 -0.01 0 0 0.01 -0.01 0 0 0 0 0 0 0.02 -0.01 0 0 0.01 -0.01 0 0 0.01 -0.01 0 0 0.02 -0.01 0 0 0 -0.01 0 0 0.02 -0.01 0 0 0.02 0 0 0 0.01 -0.01 0 0 0.01 -0.01 0 0 0.02 -0.01 0 0 0.02 -0.01 0 0 0.02 -0.01 0 0 0.01 -0.01 0 0 0.03 0 0 0 0.02 -0.01 0 0 0.01 -0.01 0 0 0.03 -0.01 0 0 0.02 -0.01 0 0 0.03 -0.01 0 0 0.03 -0.01 0 0 0.04 0 0 0 0.04 -0.01 0 0 0.06 -0.01 0 0 0.24 0.01 0 0 0.06 0.01 0 0 0.04 0 0 0 0.03 0.01 0 0 0.04 0.01 0 0 0.02 0.01 0 0 0.03 0.01 0 0 0.03 0.01 0 0 0.01 0.01 0 0 0.03 0 0 0 0.02 0.01 0 0 0.01 0.01 0 0 0.02 0.01 0 0 0.02 0.01 0 0 0.01 0.01 0 0 0.02 0.01 0 0 0.02 0 0 0 0.01 0.01 0 0 0.01 0.01 0 0 0.01 0.01 0 0 0.02 0.01 0 0 0.01 0.01 0 0 0.01 0.01 0 0 0.01 0 0 0 0.01 0.01 0 0 0.02 0.01 0 0 0.01 0.01 0 0 0.01 0.01 0 0 0 0.01 0 0 0.01 0.01 0 0 0.02 0 0 0 0.01 0.01 0 0 0.01 0.01 0 0 0.01 0.01 0 0 0 0.01 0 0 0.01 0.01 0 0 0.01 0 0 0 0.01 0.01 0 0 0.01 0.01 0 0 0.01 0.01 0 0 0.01 0.02 0 0 0 0.01 0 0 0.01 0 0 0 0.01 0.01 0 0 0.01 0.02 0 0 0.01 0.01 0 0 0.01 0.01 0 0 0 0.01 0 0 0.01 0.01 0 0 0.01 0.01 0 0 0.01 0.02 0 0 0.01 0.02 0 0 0.01 0 0 0 0.01 0.02 0 0 0 0.02 0 0 0.01 0.01 0 0 0.01 0.01 0 0 0.01 0.02 0 0 0.01 0.02 0 0 0.01 0.02 0 0 0.01 0.02 0 0 0 0.03 0 0 0.01 0.01 0 0 0.01 0.03 0 0 0.01 0.02 0 0 0.01 0.04 0 0 0.01 0.03 0 0 0.01 0.04 0 0 0 0.06 0 0 0.01 0.08 0 0 0.01 0.1 0 0 -0.01 0.1 0 0 -0.01 0.05 0 0 0 0.04 0 0 -0.01 0.03 0 0 -0.01 0.03 0 0 -0.01 0.03 0 0 -0.01 0.02 0 0 -0.01 0.03 0 0 -0.01 0.02 0 0 0 0.02 0 0 -0.01 0.02 0 0 -0.01 0.02 0 0 -0.01 0.01 0 0 -0.01 0.02 0 0 -0.01 0.02 0 0 -0.01 0 0 0 0 0.02 0 0 -0.01 0.02 0 0 -0.01 0.01 0 0 -0.01 0.01 0 0 -0.01 0.01 0 0 -0.01 0.02 0 0 -0.01 0.01 0 0 0 0.02 0 0 -0.01 0 0 0 -0.01 0.01 0 0 -0.01 0.01 0 0 -0.01 0.02 0 0 -0.01 0.01 0 0 0 0.01 0 0 -0.01 0 0 0 -0.01 0.01 0 0 -0.01 0.01 0 0 -0.01 0.01 0 0 -0.01 0.01 0 0 -0.01 0.01 0 0 0 0.01 0 0 -0.01 0 0 0 -0.01 0.01 0 0 -0.01 0.01 0 0 -0.01 0.01 0 0 -0.01 0.01 0 0 -0.01 0.01 0 0 -0.01 0 0 0 -0.01 0.01 0 0 -0.01 0.01 0 0 -0.01 0.01 0 0 -0.02 0.01 0 0 0 0.01 0 0 -0.02 0.01 0 0 -0.01 0 0 0 -0.02 0.01 0 0 -0.01 0.01 0 0 -0.01 0.01 0 0 -0.01 0.01 0 0 -0.02 0.01 0 0 -0.01 0.01 0 0 -0.02 0 0 0 -0.02 0.01 0 0 -0.02 0.01 0 0 -0.01 0.01 0 0 -0.03 0.01 0 0 -0.02 0.01 0 0 -0.02 0.01 0 0 -0.03 0 0 0 -0.02 0.01 0 0 -0.03 0.01 0 0 -0.03 0.01 0 0 -0.04 0.01 0 0 -0.06 0.01 0 0 -0.09 0.01 0 0 -0.1 -0.01 0 0 -0.1 -0.01 0 0 -0.05 -0.01 0 0 -0.03 -0.01 0 0 -0.04 -0.01 0 0 -0.03 -0.01 0 0 -0.03 0 0 0 -0.02 -0.01 0 0 -0.02 -0.01 0 0 -0.02 -0.01 0 0 -0.02 -0.01 0 0 -0.03 -0.01 0 0 -0.01 -0.01 0 0 -0.02 0 0 0 -0.02 -0.01 0 0 -0.01 -0.01 0 0 -0.01 -0.01 0 0 -0.02 -0.01 0 0 -0.02 -0.01 0 0 -0.01 -0.01 0 0 -0.01 0 0 0 -0.01 -0.01 0 0 -0.02 -0.01 0 0 -0.01 -0.01 0 0 -0.01 -0.01 0 0 -0.01 -0.01 0 0 -0.01 -0.01 0 0 -0.01 0 0 0 -0.01 -0.01 0 0 -0.01 -0.01 0 0 -0.01 -0.01 0 0 -0.01 -0.01 0 0 -0.01 -0.01 0 0 -0.01 0 0 0 -0.01 -0.01 0 0 -0.01 -0.01 0 0 0 -0.01 0 0 -0.01 -0.01 0 0 -0.01 -0.01 0 0 -0.01 -0.01 0 0 -0.01 0 0 0 -0.01 -0.02 0 0 -0.01 -0.01 0 0 0 -0.01 0 0 -0.01 -0.01 0 0 -0.01 -0.01 0 0 -0.01 -0.01 0 0 -0.01 -0.01 0 0 -0.01 -0.02 0 0 -0.01 -0.01 0 0 0 -0.01 0 0 -0.01 -0.01 0 0 -0.01 -0.02 0 0 -0.01 -0.01 0 0 -0.01 -0.02 0 0 -0.01 -0.01 0 0 -0.01 -0.02 0 0 0 -0.02 0 0 -0.01 -0.01 0 0 -0.01 -0.02 0 0 -0.01 -0.02 0 0 -0.01 -0.01 0 0 -0.01 -0.03 0 0 -0.01 -0.03 0 0 0 -0.02 0 0 -0.01 -0.03 0 0 -0.01 -0.02 0 0 -0.01 -0.05 0 0 -0.01 -0.04 0 0 -0.01 -0.06 0 0 0 -0.24 0 0 0z"/>
   <path class="fil0" d="M2.55 1.7l-0.01 0 0 0.01 -0.01 0 0 0 0 0 0 0.01 -0.01 0 0 0.01 -0.01 0 0 0.01 -0.01 0 0 0.01 -0.01 0 0 0.02 -0.01 0 0 0 -0.01 0 0 0.06 0.01 0 0 0.02 0.01 0 0 0.02 0.01 0 0 0.02 0.01 0 0 0.01 0.01 0 0 0.03 0.01 0 0 0.02 0 0 0 0.01 0.01 0 0 0.01 0.01 0 0 0.01 0.03 0 0 0.01 0.1 0 0 0.15 -0.12 0 0 0.01 -0.01 0 0 0.01 -0.02 0 0 0.02 0 0 0 0.01 -0.01 0 0 0.03 -0.01 0 0 0.02 -0.01 0 0 0.02 -0.01 0 0 0.02 -0.01 0 0 0.01 -0.01 0 0 0.06 0.01 0 0 0.01 0.01 0 0 0.01 0.01 0 0 0.01 0.01 0 0 0.01 0.01 0 0 0.01 0.01 0 0 0.01 0 0 0 0 0.01 0 0 0.01 0.01 0 0 0.01 0.01 0 0 0.01 -0.01 0 0 0.01 -0.01 0 0 0.01 -0.01 0 0 0.01 0 0 0 0 -0.01 0 0 0.01 -0.01 0 0 0.01 -0.01 0 0 0.01 -0.01 0 0 0.01 -0.01 0 0 0.01 -0.01 0 0 0.01 0 0 0 0 -0.01 0 0 0.01 -0.02 0 0 -0.01 -0.01 0 0 0 -0.01 0 0 -0.01 -0.01 0 0 -0.01 0 0 0 -0.01 -0.01 0 0 -0.01 -0.01 0 0 -0.01 -0.01 0 0 -0.01 -0.01 0 0 0 -0.02 0 0 -0.01 -0.03 0 0 0.01 -0.02 0 0 0 -0.01 0 0 0.01 -0.02 0 0 0.01 -0.03 0 0 0.01 -0.02 0 0 0.01 -0.03 0 0 0.01 -0.01 0 0 0.01 -0.01 0 0 0.01 -0.01 0 0 0.02 -0.01 0 0 0.11 -0.15 0 0 -0.12 -0.01 0 0 -0.02 -0.01 0 0 0 -0.01 0 0 -0.01 -0.02 0 0 -0.01 -0.02 0 0 -0.01 -0.03 0 0 -0.01 -0.01 0 0 -0.01 -0.02 0 0 -0.01 -0.02 0 0 0 -0.02 0 0 -0.01 -0.03 0 0 0.01 -0.02 0 0 0 -0.01 0 0 0.01 -0.01 0 0 0.01 -0.01 0 0 0.01 -0.01 0 0 0.01 -0.01 0 0 0.01 -0.01 0 0 0.01 -0.01 0 0 0 0 0 0 0.01 -0.02 0 0 -0.01 -0.01 0 0 0 -0.01 0 0 -0.01 -0.01 0 0 -0.01 0 0 0 -0.01 -0.01 0 0 -0.01 -0.01 0 0 -0.01 -0.01 0 0 -0.01 -0.01 0 0 0 -0.01 0 0 -0.01 -0.01 0 0 -0.01 0 0 0 -0.02 0 0 0 -0.01 0.01 0 0 -0.01 0.01 0 0 0 0.01 0 0 -0.01 0.01 0 0 -0.01 0.01 0 0 -0.01 0.01 0 0 -0.02 0 0 0 -0.01 0.01 0 0 -0.02 0.01 0 0 -0.02 -0.01 0 0 -0.02 -0.01 0 0 -0.02 0 0 0 -0.02 -0.01 0 0 -0.01 -0.01 0 0 -0.03 -0.01 0 0 -0.03 -0.01 0 0 -0.01 -0.01 0 0 -0.01 -0.01 0 0 -0.01 -0.01 0 0 -0.01 -0.12 0 0 -0.15 0.11 0 0 -0.01 0.02 0 0 -0.01 0.01 0 0 -0.02 0.01 0 0 0 0.01 0 0 -0.04 0.01 0 0 -0.02 0.01 0 0 -0.02 0.01 0 0 -0.02 0 0 0 -0.02 0.01 0 0 -0.01 0.01 0 0 -0.03 -0.01 0 0 -0.02 -0.01 0 0 -0.01 0 0 0 -0.01 -0.01 0 0 -0.01 -0.01 0 0 -0.01 -0.01 0 0 -0.01 -0.01 0 0 -0.01 -0.01 0 0 0 -0.01 0 0 -0.01 0 0 0 -0.02 0 0 0 -0.01 0.01 0 0 -0.01 0.01 0 0 0 0.01 0 0 -0.01 0.01 0 0 -0.01 0.01 0 0 -0.01 0.01 0 0 -0.01 0 0 0 -0.01 0.01 0 0 -0.01 0.01 0 0 0 0.01 0 0 -0.01 0.01 0 0 -0.01 0.01 0 0 0.01 0 0 0 0.01 0.01 0 0 0 0.01 0 0 0.01 0.01 0 0 0.01 0.01 0 0 0.01 0.01 0 0 0.01 0.01 0 0 0.01 0 0 0 0.01 0.02 0 0 0 0.05 0 0 0 0.02 0 0 -0.01 0.02 0 0 -0.01 0.01 0 0 -0.01 0.03 0 0 -0.01 0.03 0 0 -0.01 0.01 0 0 -0.01 0.02 0 0 -0.01 0.01 0 0 -0.01 0.01 0 0 -0.12 0.15 0 0 0.1 0.01 0 0 0.03 0.01 0 0 0.01 0.01 0 0 0 0 0 0 0.01 0.03 0 0 0.01 0.03 0 0 0.01 0.01 0 0 0.01 0.02 0 0 0.01 0.02 0 0 0.01 0.01 0 0 0 0.06 0 0 0 0.01 0 0 -0.01 0.02 0 0 -0.01 0.01 0 0 -0.01 0.01 0 0 -0.01 0 0 0 -0.01 0.01 0 0 -0.01 0.01 0 0 0 0.01 0 0 -0.01 0.01 0 0 -0.01 0.01 0 0 0.01 0.01 0 0 0.01 0 0 0 0 0.01 0 0 0.01 0.01 0 0 0.01 0.01 0 0 0.01 0.01 0 0 0.01 0.01 0 0 0.01 0.01 0 0 0.01 0 0 0 0 0.01 0 0 0.01 0.01 0 0 0.01 0.01 0 0 0.01 -0.01 0 0 0.01zm-0.6 -0.37l-0.02 0 0 0.01 -0.02 0 0 0.01 -0.01 0 0 0.01 -0.01 0 0 0 0 0 0 0.02 -0.01 0 0 0.02 -0.01 0 0 0.03 -0.01 0 0 0.08 -0.03 0 0 0.01 0 0 0 -0.01 -0.01 0 0 -0.01 -0.01 0 0 -0.01 -0.01 0 0 -0.01 -0.01 0 0 0 -0.01 0 0 -0.01 -0.01 0 0 -0.01 -0.01 0 0 -0.01 -0.02 0 0 -0.01 -0.08 0 0 0.01 -0.01 0 0 0.01 -0.02 0 0 0.01 -0.01 0 0 0.01 -0.01 0 0 0 -0.01 0 0 0.01 0 0 0 0.01 -0.01 0 0 0.01 -0.01 0 0 0.01 -0.01 0 0 0.01 -0.01 0 0 0.01 -0.01 0 0 0 -0.01 0 0 0.01 0 0 0 0.01 -0.01 0 0 0.01 -0.01 0 0 0.01 -0.01 0 0 0.01 -0.01 0 0 0.01 -0.01 0 0 0 -0.01 0 0 0.01 0 0 0 0.01 -0.01 0 0 0.02 -0.01 0 0 0.02 -0.01 0 0 0.05 0.01 0 0 0.03 0.01 0 0 0.02 0.01 0 0 0.01 0 0 0 0 0.01 0 0 0.01 0.01 0 0 0.01 0.01 0 0 0.01 0.01 0 0 0.01 0.01 0 0 0.02 -0.01 0 0 0.02 -0.1 0 0 0.01 -0.02 0 0 0.01 -0.02 0 0 0.01 -0.01 0 0 0.01 -0.01 0 0 0 0 0 0 0.02 -0.01 0 0 0.02 -0.01 0 0 0.03 -0.01 0 0 0.21 0.01 0 0 0.03 0.01 0 0 0.02 0.01 0 0 0.01 0 0 0 0.01 0.01 0 0 0 0.01 0 0 0.01 0.01 0 0 0.01 0.02 0 0 0.01 0.04 0 0 0.01 0.07 0 0 0.01 0.01 0 0 0.03 -0.01 0 0 0.01 -0.01 0 0 0.01 -0.01 0 0 0.01 -0.01 0 0 0 -0.01 0 0 0.01 0 0 0 0.01 -0.01 0 0 0.02 -0.01 0 0 0.02 -0.01 0 0 0.06 0.01 0 0 0.02 0.01 0 0 0.01 0.01 0 0 0.02 0 0 0 0.01 0.01 0 0 0 0.01 0 0 0.01 0.01 0 0 0.01 0.01 0 0 0.01 0.01 0 0 0.01 0.01 0 0 0.01 0 0 0 0 0.01 0 0 0.01 0.01 0 0 0.01 0.01 0 0 0.01 0.01 0 0 0.01 0.01 0 0 0.01 0.01 0 0 0.01 0 0 0 0 0.01 0 0 0.01 0.01 0 0 0.01 0.02 0 0 0.01 0.01 0 0 0.01 0.02 0 0 0.01 0.05 0 0 -0.01 0.03 0 0 -0.01 0.02 0 0 -0.01 0 0 0 -0.01 0.01 0 0 -0.01 0.01 0 0 0 0.01 0 0 -0.01 0.01 0 0 -0.01 0.01 0 0 -0.01 0.02 0 0 0.01 0.02 0 0 0.07 0.01 0 0 0.04 0.01 0 0 0.02 0.01 0 0 0.01 0 0 0 0 0.01 0 0 0.01 0.01 0 0 0.01 0.01 0 0 0.01 0.02 0 0 0.01 0.04 0 0 0.01 0.2 0 0 -0.01 0.03 0 0 -0.01 0.02 0 0 -0.01 0.01 0 0 -0.01 0.01 0 0 -0.01 0.01 0 0 -0.01 0.01 0 0 -0.01 0.01 0 0 -0.03 0.01 0 0 -0.09 0.01 0 0 -0.01 0.03 0 0 0.01 0.01 0 0 0.01 0.01 0 0 0.01 0 0 0 0 0.01 0 0 0.01 0.01 0 0 0.01 0.01 0 0 0.01 0.02 0 0 0.01 0.02 0 0 0.01 0.05 0 0 -0.01 0.03 0 0 -0.01 0.02 0 0 -0.01 0.01 0 0 -0.01 0 0 0 -0.01 0.01 0 0 0 0.01 0 0 -0.01 0.01 0 0 -0.01 0.01 0 0 -0.01 0.01 0 0 -0.01 0 0 0 -0.01 0.01 0 0 -0.01 0.01 0 0 0 0.01 0 0 -0.01 0.01 0 0 -0.01 0.01 0 0 -0.01 0.01 0 0 -0.01 0 0 0 -0.01 0.01 0 0 0 0.01 0 0 -0.01 0.01 0 0 -0.01 0.01 0 0 -0.02 0.01 0 0 -0.02 0.01 0 0 -0.07 -0.01 0 0 -0.02 -0.01 0 0 -0.02 -0.01 0 0 -0.01 -0.01 0 0 0 -0.01 0 0 -0.01 -0.01 0 0 -0.01 0 0 0 -0.01 -0.01 0 0 -0.01 -0.01 0 0 -0.01 0.01 0 0 -0.02 0.07 0 0 -0.01 0.04 0 0 -0.01 0.02 0 0 -0.01 0.01 0 0 -0.01 0.01 0 0 0 0.01 0 0 -0.02 0.01 0 0 -0.01 0.01 0 0 -0.03 0.01 0 0 -0.23 -0.01 0 0 -0.03 -0.01 0 0 -0.02 -0.01 0 0 -0.01 -0.01 0 0 0 -0.01 0 0 -0.01 -0.01 0 0 -0.01 -0.01 0 0 -0.01 -0.03 0 0 -0.01 -0.08 0 0 -0.01 -0.01 0 0 -0.01 -0.01 0 0 -0.02 0.01 0 0 -0.01 0.01 0 0 -0.01 0 0 0 -0.01 0.01 0 0 -0.01 0.01 0 0 0 0.01 0 0 -0.01 0.01 0 0 -0.01 0.01 0 0 -0.03 0.01 0 0 -0.07 -0.01 0 0 -0.02 -0.01 0 0 -0.01 -0.01 0 0 -0.02 -0.01 0 0 0 -0.01 0 0 -0.01 -0.01 0 0 -0.01 0 0 0 -0.01 -0.01 0 0 -0.01 -0.01 0 0 -0.01 -0.01 0 0 -0.01 -0.01 0 0 0 -0.01 0 0 -0.01 -0.01 0 0 -0.01 0 0 0 -0.01 -0.01 0 0 -0.01 -0.01 0 0 -0.01 -0.01 0 0 -0.01 -0.01 0 0 0 -0.01 0 0 -0.01 -0.01 0 0 -0.01 -0.01 0 0 -0.01 -0.02 0 0 -0.01 -0.08 0 0 0.01 -0.02 0 0 0.01 -0.01 0 0 0.01 -0.01 0 0 0.01 -0.01 0 0 0 -0.01 0 0 0.01 0 0 0 0.01 -0.01 0 0 0.01 -0.01 0 0 0.01 -0.02 0 0 -0.01 -0.02 0 0 -0.01 0 0 0 -0.08 -0.01 0 0 -0.03 -0.01 0 0 -0.02 -0.01 0 0 -0.01 -0.01 0 0 0 -0.01 0 0 -0.01 0 0 0 -0.01 -0.02 0 0 -0.01 -0.02 0 0 -0.01 -0.25 0 0 0.01z"/>
   <path class="fil0" d="M2.26 2.12l-0.01 0 0 0.03 -0.01 0 0 0.01 0 0 0 0.02 -0.01 0 0 0 -0.01 0 0 0.01 -0.01 0 0 0.01 -0.01 0 0 0.01 -0.01 0 0 0.01 -0.01 0 0 0.01 -0.01 0 0 0.01 -0.02 0 0 0 -0.03 0 0 0.01 -0.1 0 0 -0.01 -0.02 0 0 0 -0.02 0 0 -0.01 -0.01 0 0 -0.01 -0.02 0 0 -0.01 0 0 0 -0.01 -0.01 0 0 -0.01 -0.01 0 0 -0.01 -0.01 0 0 -0.01 -0.01 0 0 -0.01 -0.01 0 0 -0.02 -0.01 0 0 -0.02 0 0 0 -0.11 0 0 0 -0.02 0.01 0 0 -0.02 0.01 0 0 -0.02 0.01 0 0 0 0.01 0 0 -0.01 0.01 0 0 -0.01 0.01 0 0 -0.01 0 0 0 -0.01 0.01 0 0 -0.01 0.01 0 0 -0.01 0.02 0 0 0 0.02 0 0 -0.01 0.04 0 0 -0.01 0.05 0 0 0.01 0.04 0 0 0.01 0.02 0 0 0 0.02 0 0 0.01 0 0 0 0.01 0.02 0 0 0.01 0.01 0 0 0.01 0.01 0 0 0.01 0.01 0 0 0.01 0.01 0 0 0.01 0 0 0 0.02 0.01 0 0 0.02 0.01 0 0 0.04 0.01 0 0 0.05 -0.01 0 0 0.03zm-0.26 -0.37l-0.03 0 0 0.01 -0.02 0 0 0.01 -0.01 0 0 0 -0.02 0 0 0.01 -0.02 0 0 0.01 -0.01 0 0 0.01 -0.01 0 0 0.01 -0.01 0 0 0.01 -0.01 0 0 0.01 -0.01 0 0 0 -0.01 0 0 0.01 -0.01 0 0 0.01 0 0 0 0.01 -0.01 0 0 0.01 -0.01 0 0 0.02 -0.01 0 0 0 -0.01 0 0 0.02 -0.01 0 0 0.02 -0.01 0 0 0.02 0 0 0 0.02 -0.01 0 0 0.04 -0.01 0 0 0.11 0.01 0 0 0.03 0.01 0 0 0.03 0 0 0 0.02 0.01 0 0 0.02 0.01 0 0 0.01 0.01 0 0 0.01 0.01 0 0 0.01 0.01 0 0 0.02 0.01 0 0 0.01 0 0 0 0.01 0.01 0 0 0 0.01 0 0 0.01 0.01 0 0 0.01 0.01 0 0 0.01 0.02 0 0 0.01 0 0 0 0.01 0.02 0 0 0.01 0.01 0 0 0 0.02 0 0 0.01 0.02 0 0 0.01 0.03 0 0 0.01 0.04 0 0 0.01 0.09 0 0 -0.01 0.04 0 0 -0.01 0.02 0 0 -0.01 0.03 0 0 -0.01 0.02 0 0 0 0.01 0 0 -0.01 0.01 0 0 -0.01 0.02 0 0 -0.01 0.01 0 0 -0.01 0.01 0 0 -0.01 0 0 0 -0.01 0.01 0 0 0 0.01 0 0 -0.01 0.01 0 0 -0.01 0.01 0 0 -0.01 0.01 0 0 -0.02 0.01 0 0 0 0 0 0 -0.02 0.01 0 0 -0.02 0.01 0 0 -0.02 0.01 0 0 -0.02 0.01 0 0 -0.03 0.01 0 0 -0.13 -0.01 0 0 -0.04 -0.01 0 0 -0.02 -0.01 0 0 -0.02 -0.01 0 0 -0.02 -0.01 0 0 -0.01 0 0 0 -0.01 -0.01 0 0 -0.01 -0.01 0 0 -0.02 -0.01 0 0 -0.01 -0.01 0 0 -0.01 -0.01 0 0 0 -0.01 0 0 -0.01 0 0 0 -0.01 -0.02 0 0 -0.01 -0.01 0 0 -0.01 -0.02 0 0 -0.01 0 0 0 -0.01 -0.02 0 0 0 -0.02 0 0 -0.01 -0.02 0 0 -0.01 -0.04 0 0 -0.01 -0.14 0 0 0.01z"/>
  </g>
 </g>
</svg>
