<?xml version="1.0" encoding="UTF-8"?>
<!DOCTYPE svg PUBLIC "-//W3C//DTD SVG 1.1//EN" "http://www.w3.org/Graphics/SVG/1.1/DTD/svg11.dtd">
<!-- Creator: CorelDRAW 2020 (64-Bit) -->
<svg xmlns="http://www.w3.org/2000/svg" xml:space="preserve" width="313px" height="378px" version="1.1" style="shape-rendering:geometricPrecision; text-rendering:geometricPrecision; image-rendering:optimizeQuality; fill-rule:evenodd; clip-rule:evenodd"
viewBox="0 0 2.61 3.15"
 xmlns:xlink="http://www.w3.org/1999/xlink"
 xmlns:xodm="http://www.corel.com/coreldraw/odm/2003">
 <defs>
  <style type="text/css">
   <![CDATA[
    .fil0 {fill:#434242}
   ]]>
  </style>
 </defs>
 <g id="Layer_x0020_1">
  <metadata id="CorelCorpID_0Corel-Layer"/>
  <g id="_2542602406544">
   <path class="fil0" d="M0.71 2.71l1.17 0c0.01,0 0.02,0 0.02,0.02l0 0.32 -1.19 0 0 -0.34zm0.12 -0.17c0,-0.01 0,-0.02 0.02,-0.02l0.91 0c0.03,0 0.02,0.03 0.02,0.08l-0.95 0 0 -0.06zm0.31 -0.93l0.32 0c0,0.06 -0.01,0.1 -0.01,0.16 0,0.25 0.05,0.45 0.18,0.65l-0.65 0c0.07,-0.1 0.09,-0.16 0.13,-0.28 0.03,-0.1 0.05,-0.24 0.05,-0.36 0,-0.04 -0.01,-0.15 -0.02,-0.17zm-0.21 -0.5c0.14,0 0.07,0 0.09,0.14 0.01,0.09 0.22,0.09 0.23,0 0.02,-0.14 -0.05,-0.14 0.1,-0.14 0,0.16 -0.02,0.2 0.14,0.2 0.13,0 0.1,-0.09 0.1,-0.2l0.1 0 0 0.39 -0.76 0 0 -0.39zm-0.1 0.01l0 0.38c0,0.13 0.15,0.11 0.22,0.11 0.01,0.1 0.02,0.19 0,0.29 -0.01,0.1 -0.02,0.19 -0.05,0.27 -0.02,0.07 -0.1,0.22 -0.15,0.25 -0.07,0.03 -0.12,-0.01 -0.12,0.19 -0.07,0 -0.11,0.05 -0.11,0.11l0 0.33c-0.11,0 -0.14,-0.01 -0.14,0.06 0,0.03 0.03,0.04 0.06,0.04l1.54 0c0.07,0 0.1,-0.1 -0.02,-0.1l-0.07 0 0 -0.34c0,-0.04 -0.03,-0.08 -0.06,-0.09 -0.04,-0.02 -0.05,0 -0.05,-0.03 -0.01,-0.03 0,-0.05 -0.01,-0.08 -0.02,-0.1 -0.08,-0.06 -0.13,-0.12 -0.11,-0.12 -0.18,-0.35 -0.18,-0.57l0 -0.13c0,-0.04 0,-0.05 0,-0.08 0.07,0 0.14,0.01 0.18,-0.03 0.02,-0.01 0.04,-0.03 0.04,-0.06l0 -0.41c0,-0.11 -0.2,-0.12 -0.25,-0.06 -0.04,0.04 -0.03,0.11 -0.03,0.17l-0.05 0c0,-0.06 0.01,-0.13 -0.02,-0.17 -0.04,-0.05 -0.23,-0.06 -0.26,0.03 -0.02,0.05 0.02,0.14 -0.03,0.14l-0.03 0c0,-0.18 0,-0.2 -0.18,-0.2 -0.06,0 -0.1,0.04 -0.1,0.1z"/>
   <path class="fil0" d="M1.05 0.27c-0.08,0.01 -0.23,0.08 -0.3,0.12 -0.04,-0.05 -0.12,-0.13 -0.19,-0.13 -0.07,0 -0.12,0.06 -0.17,0.12 -0.03,0.03 -0.05,0.05 -0.08,0.08 -0.05,0.04 -0.05,0.05 -0.05,0.12 0,0.07 0.09,0.12 0.13,0.17 -0.01,0.02 -0.09,0.15 -0.13,0.3 -0.09,0 -0.17,-0.02 -0.23,0.05 -0.01,0.01 -0.03,0.04 -0.03,0.06l0 0.29c0,0.05 0.04,0.09 0.08,0.11 0.03,0.01 0.13,0 0.18,0 0.01,0.08 0.09,0.23 0.13,0.31 -0.03,0.04 -0.1,0.08 -0.12,0.12 -0.06,0.1 0.04,0.18 0.1,0.24 0.1,0.09 0.18,0.2 0.3,0.08 0.02,-0.03 0.06,-0.06 0.08,-0.08 0.08,0.04 0.12,-0.05 0.06,-0.08 -0.02,-0.01 -0.05,-0.03 -0.06,-0.03 -0.06,0 -0.14,0.14 -0.19,0.14 -0.02,0 -0.09,-0.08 -0.11,-0.09 -0.04,-0.05 -0.1,-0.08 -0.1,-0.12 0,-0.06 0.18,-0.12 0.14,-0.21 -0.01,-0.01 -0.02,-0.03 -0.03,-0.04 -0.02,-0.03 -0.03,-0.06 -0.05,-0.1 -0.01,-0.03 -0.03,-0.06 -0.04,-0.1 -0.04,-0.15 -0.01,-0.13 -0.15,-0.13 -0.15,0 -0.12,0.05 -0.12,-0.29 0,-0.06 0.21,0 0.24,-0.05 0.01,-0.01 0.05,-0.15 0.07,-0.21 0.04,-0.09 0.1,-0.16 0.08,-0.2 -0.03,-0.05 -0.14,-0.1 -0.14,-0.16 0,-0.02 0.19,-0.2 0.21,-0.21 0.04,0 0.14,0.15 0.17,0.15 0.05,0 0.08,-0.04 0.15,-0.07 0.22,-0.1 0.27,-0.04 0.27,-0.15 -0.01,-0.22 -0.06,-0.18 0.29,-0.18 0.06,0 -0.02,0.22 0.05,0.25 0.06,0.02 0.11,0.02 0.24,0.08 0.16,0.08 0.11,0.12 0.23,0 0.1,-0.1 0.08,-0.1 0.2,0.02 0.01,0.02 0.1,0.09 0.1,0.11 0,0.06 -0.15,0.14 -0.15,0.19 0,0.01 0.05,0.09 0.07,0.12 0.03,0.07 0.06,0.15 0.07,0.22 0.02,0.09 0.05,0.06 0.25,0.06 0,0.01 0.01,0.02 0.01,0.03 0,0.07 0.01,0.22 0,0.28 -0.14,0.03 -0.23,-0.04 -0.25,0.05 -0.01,0.03 -0.01,0.06 -0.02,0.08 -0.02,0.06 -0.06,0.16 -0.09,0.21 -0.01,0.02 -0.04,0.05 -0.04,0.07 0,0.06 0.15,0.14 0.15,0.19 0,0.02 -0.19,0.2 -0.21,0.2 -0.04,0 -0.13,-0.14 -0.18,-0.14 -0.03,0 -0.09,0.03 -0.09,0.07 0,0.05 0.04,0.06 0.09,0.04 0.01,0.02 0.11,0.13 0.16,0.13 0.1,0 0.13,-0.05 0.2,-0.13 0.04,-0.04 0.13,-0.11 0.13,-0.17 0,-0.09 -0.1,-0.14 -0.13,-0.19 0.03,-0.08 0.11,-0.22 0.12,-0.31 0.05,0 0.13,0.01 0.17,0 0.04,-0.01 0.09,-0.06 0.09,-0.1l0 -0.29c0,-0.05 -0.04,-0.09 -0.08,-0.11 -0.04,-0.02 -0.12,-0.01 -0.18,-0.01 -0.04,-0.17 -0.12,-0.26 -0.12,-0.3 0.04,-0.06 0.15,-0.1 0.13,-0.21 -0.02,-0.06 -0.1,-0.12 -0.16,-0.18 -0.06,-0.06 -0.14,-0.17 -0.25,-0.05 -0.03,0.02 -0.07,0.05 -0.08,0.08 -0.08,-0.04 -0.22,-0.11 -0.31,-0.12 0,-0.12 0.03,-0.27 -0.15,-0.27l-0.21 0c-0.18,0 -0.15,0.17 -0.15,0.27z"/>
   <path class="fil0" d="M0.87 1.91c0.03,0 0.05,-0.02 0.05,-0.06 -0.01,-0.02 -0.04,-0.04 -0.06,-0.06 -0.14,-0.13 -0.21,-0.29 -0.21,-0.5 0,-0.24 0.16,-0.47 0.37,-0.57 0.18,-0.09 0.39,-0.09 0.57,0 0.41,0.19 0.49,0.74 0.2,1.03 -0.02,0.02 -0.04,0.04 -0.06,0.06 -0.01,0.01 -0.04,0.03 -0.04,0.06 0,0.02 0.02,0.04 0.05,0.04 0.03,0 0.05,-0.02 0.07,-0.04 0.02,-0.01 0.04,-0.04 0.06,-0.06 0.03,-0.04 0.06,-0.07 0.09,-0.13 0.12,-0.21 0.14,-0.47 0.03,-0.69 -0.03,-0.05 -0.05,-0.08 -0.07,-0.12 -0.08,-0.11 -0.18,-0.2 -0.31,-0.25 -0.15,-0.06 -0.27,-0.08 -0.44,-0.05 -0.02,0 -0.04,0.01 -0.06,0.01 -0.09,0.02 -0.19,0.08 -0.26,0.13 -0.11,0.08 -0.21,0.2 -0.26,0.35 -0.08,0.25 -0.04,0.5 0.11,0.71 0.03,0.03 0.12,0.14 0.17,0.14z"/>
   <path class="fil0" d="M0.84 2.87c0,0.02 0,0.06 0.03,0.06l0.87 0c0.05,0 0.05,-0.1 0,-0.1l-0.87 0c-0.01,0 -0.03,0.02 -0.03,0.04z"/>
  </g>
 </g>
</svg>
